STARTFONT 2.1
COMMENT
COMMENT Converted from OpenType font "FreeSans.ttf" by "otf2bdf 3.0".
COMMENT
FONT -FreeType-FreeSans-Bold-R-Normal--50-120-300-300-P-276-ISO10646-1
SIZE 12 300 300
FONTBOUNDINGBOX 153 68 -58 -15
STARTPROPERTIES 19
FOUNDRY "FreeType"
FAMILY_NAME "FreeSans"
WEIGHT_NAME "Bold"
SLANT "R"
SETWIDTH_NAME "Normal"
ADD_STYLE_NAME ""
PIXEL_SIZE 50
POINT_SIZE 120
RESOLUTION_X 300
RESOLUTION_Y 300
SPACING "P"
AVERAGE_WIDTH 276
CHARSET_REGISTRY "ISO10646"
CHARSET_ENCODING "1"
FONT_ASCENT 45
FONT_DESCENT 10
COPYRIGHT "Copyright 2002, 2003, 2005, 2008, 2009, 2010, 2012 GNU Freefont contributors."
_OTF_FONTFILE "FreeSans.ttf"
_OTF_PSNAME "FreeSans"
ENDPROPERTIES
CHARS 4472
STARTCHAR 0020
ENCODING 32
SWIDTH 260 0
DWIDTH 13 0
BBX 0 0 0 0
BITMAP
ENDCHAR
STARTCHAR 0021
ENCODING 33
SWIDTH 340 0
DWIDTH 17 0
BBX 4 36 6 0
BITMAP
F0
F0
F0
F0
F0
F0
F0
F0
F0
F0
F0
F0
F0
F0
F0
F0
F0
F0
F0
F0
F0
F0
70
60
60
60
60
60
00
00
00
F0
F0
F0
F0
F0
ENDCHAR
STARTCHAR 0022
ENCODING 34
SWIDTH 340 0
DWIDTH 17 0
BBX 13 13 2 23
BITMAP
F8F8
F8F8
F8F8
F8F8
F8F8
F8F8
F8F8
F0F0
F0F0
7070
7070
6060
6060
ENDCHAR
STARTCHAR 0023
ENCODING 35
SWIDTH 560 0
DWIDTH 28 0
BBX 26 35 1 -1
BITMAP
00781E00
00781E00
00781E00
00701E00
00701C00
00F03C00
00F03C00
00F03C00
00F03C00
3FFFFFC0
3FFFFFC0
3FFFFFC0
01E07800
01E07800
01C07000
03C07000
03C0F000
03C0F000
03C0F000
03C0F000
0380E000
FFFFFF80
FFFFFF80
FFFFFF80
0781E000
0701C000
0F03C000
0F03C000
0F03C000
0F03C000
0E03C000
1E038000
1E078000
1E078000
1E078000
ENDCHAR
STARTCHAR 0024
ENCODING 36
SWIDTH 560 0
DWIDTH 28 0
BBX 25 44 1 -6
BITMAP
001C0000
001C0000
001C0000
01FFC000
07FFF000
0FFFF800
1F9CFC00
3E1C3E00
3C1C1E00
7C1C1F00
781C0F00
781C0F00
781C0000
781C0000
7C1C0000
7C1C0000
3F1C0000
3FDC0000
1FFE0000
07FFC000
01FFF800
007FFC00
001FFE00
001C7F00
001C1F00
001C0F80
001C0780
F01C0780
F01C0780
F01C0780
F01C0780
F81C0F80
781C0F00
7C1C1F00
3F1C3E00
3FFFFE00
0FFFF800
07FFF000
00FF8000
001C0000
001C0000
001C0000
001C0000
001C0000
ENDCHAR
STARTCHAR 0025
ENCODING 37
SWIDTH 880 0
DWIDTH 44 0
BBX 41 37 1 -1
BITMAP
000000078000
000000070000
03F0000F0000
0FFC000E0000
1FFE001C0000
3FFF001C0000
7C0F00380000
780780380000
F00380700000
F00380700000
E00380E00000
F00381E00000
F00381C00000
780783C00000
7C0F03800000
3FFF07800000
1FFE07000000
0FFC0E000000
03F00E000000
00001C000000
00001C03F000
00003807FC00
0000781FFE00
0000701FFF00
0000F03C0F00
0000E0780780
0001E0780380
0001C0780380
0003C0700380
000380780380
000700780380
000700380780
000E003C0F80
001E001FFF00
001C001FFE00
003C0007FC00
00380003F000
ENDCHAR
STARTCHAR 0026
ENCODING 38
SWIDTH 660 0
DWIDTH 33 0
BBX 29 36 3 0
BITMAP
00FF0000
01FF8000
03FFC000
07C3E000
0781E000
0F00F000
0F00F000
0F00F000
0F00F000
0F81F000
0781E000
07C3E000
03EFC000
01FF8000
01FF0000
00FC0000
03FC0000
07FE0000
1FBE03C0
3F1F03C0
3E0F83C0
7C07C7C0
7807E780
F803EF80
F801FF80
F800FF00
F800FF00
F8007E00
F8007F00
FC00FF80
7E01FFC0
7F07E7C0
3FFFC7E0
1FFF83F0
0FFF01F8
03F80000
ENDCHAR
STARTCHAR 0027
ENCODING 39
SWIDTH 200 0
DWIDTH 10 0
BBX 5 13 3 23
BITMAP
F8
F8
F8
F8
F8
F8
F8
F0
F0
70
70
60
60
ENDCHAR
STARTCHAR 0028
ENCODING 40
SWIDTH 340 0
DWIDTH 17 0
BBX 11 47 4 -11
BITMAP
00E0
01C0
0380
0380
0700
0700
0F00
0E00
1E00
1C00
3C00
3C00
3800
7800
7800
7800
7800
7000
F000
F000
F000
F000
F000
F000
F000
F000
F000
F000
F000
7000
7800
7800
7800
7800
3800
3C00
3C00
1C00
1E00
0E00
0E00
0700
0700
0380
0380
01C0
00E0
ENDCHAR
STARTCHAR 0029
ENCODING 41
SWIDTH 340 0
DWIDTH 17 0
BBX 11 47 2 -11
BITMAP
E000
7000
3800
3800
1C00
1C00
1E00
0E00
0F00
0700
0780
0780
0380
03C0
03C0
03C0
03C0
01C0
01E0
01E0
01E0
01E0
01E0
01E0
01E0
01E0
01E0
01E0
01E0
01E0
03C0
03C0
03C0
03C0
0380
0780
0780
0700
0F00
0E00
0E00
1C00
1C00
3800
3800
7000
E000
ENDCHAR
STARTCHAR 002A
ENCODING 42
SWIDTH 380 0
DWIDTH 19 0
BBX 15 14 2 22
BITMAP
0380
0380
0380
0380
E38C
FFFE
FFFE
1FF0
07C0
0FE0
1EE0
1C70
3C78
1830
ENDCHAR
STARTCHAR 002B
ENCODING 43
SWIDTH 580 0
DWIDTH 29 0
BBX 24 24 3 0
BITMAP
003C00
003C00
003C00
003C00
003C00
003C00
003C00
003C00
003C00
003C00
003FFF
FFFFFF
FFFFFF
FFFFFF
003C00
003C00
003C00
003C00
003C00
003C00
003C00
003C00
003C00
003C00
ENDCHAR
STARTCHAR 002C
ENCODING 44
SWIDTH 280 0
DWIDTH 14 0
BBX 5 12 4 -7
BITMAP
F8
F8
F8
F8
F8
18
18
18
18
38
F0
C0
ENDCHAR
STARTCHAR 002D
ENCODING 45
SWIDTH 340 0
DWIDTH 17 0
BBX 12 4 2 12
BITMAP
FFF0
FFF0
FFF0
FFF0
ENDCHAR
STARTCHAR 002E
ENCODING 46
SWIDTH 240 0
DWIDTH 12 0
BBX 5 5 4 0
BITMAP
F8
F8
F8
F8
F8
ENDCHAR
STARTCHAR 002F
ENCODING 47
SWIDTH 280 0
DWIDTH 14 0
BBX 14 37 0 -1
BITMAP
000C
001C
001C
0018
0038
0038
0038
0070
0070
0070
00E0
00E0
00E0
00C0
01C0
01C0
0180
0380
0380
0300
0700
0700
0600
0E00
0E00
0C00
1C00
1C00
1800
3800
3800
3800
7000
7000
7000
E000
E000
ENDCHAR
STARTCHAR 0030
ENCODING 48
SWIDTH 560 0
DWIDTH 28 0
BBX 24 36 2 0
BITMAP
01FF80
07FFC0
0FFFE0
1FFFF0
1F81F8
3F00F8
3E007C
7C007C
7C003E
7C003E
78003E
F8001E
F8001E
F8001E
F8001F
F8001F
F8001F
F8001F
F8001F
F8001F
F8001F
F8001F
F8001E
F8001E
78003E
78003E
7C003E
7C003C
3C007C
3E007C
3F00F8
1F81F8
0FFFF0
07FFE0
03FFC0
00FE00
ENDCHAR
STARTCHAR 0031
ENCODING 49
SWIDTH 560 0
DWIDTH 28 0
BBX 12 36 6 0
BITMAP
0070
0070
00F0
00F0
00F0
01F0
03F0
3FF0
FFF0
FFF0
FFF0
01F0
01F0
01F0
01F0
01F0
01F0
01F0
01F0
01F0
01F0
01F0
01F0
01F0
01F0
01F0
01F0
01F0
01F0
01F0
01F0
01F0
01F0
01F0
01F0
01F0
ENDCHAR
STARTCHAR 0032
ENCODING 50
SWIDTH 560 0
DWIDTH 28 0
BBX 24 35 2 1
BITMAP
01FFC0
07FFF0
0FFFF8
1FFFFC
1F80FC
3F007E
3E003E
7C003F
7C001F
7C001F
7C001F
7C001F
00001F
00003E
00003E
00007C
0000FC
0003F8
000FF0
001FC0
007F80
01FE00
03F800
07F000
0FC000
1F8000
3E0000
3E0000
7C0000
7C0000
780000
FFFFFF
FFFFFF
FFFFFF
FFFFFF
ENDCHAR
STARTCHAR 0033
ENCODING 51
SWIDTH 560 0
DWIDTH 28 0
BBX 25 36 1 0
BITMAP
01FFC000
07FFF000
0FFFF800
1FFFFC00
3F00FE00
3E003E00
3E003E00
7C001F00
7C001F00
7C001F00
7C001F00
00001E00
00003E00
00007E00
0001FC00
003FF800
003FE000
003FF000
003FFC00
0000FE00
00003F00
00001F00
00000F00
00000F80
00000F80
F8000F80
F8000F80
F8000F00
7C001F00
7C001F00
7E003E00
3F81FE00
1FFFFC00
0FFFF800
07FFE000
00FF8000
ENDCHAR
STARTCHAR 0034
ENCODING 52
SWIDTH 560 0
DWIDTH 28 0
BBX 24 36 2 0
BITMAP
0001E0
0001E0
0003E0
0007E0
0007E0
000FE0
001FE0
001FE0
003FE0
007BE0
0073E0
00F3E0
01E3E0
01C3E0
03C3E0
0783E0
0703E0
0E03E0
1E03E0
1C03E0
3803E0
7803E0
7003E0
E003E0
FFFFFF
FFFFFF
FFFFFF
FFFFFF
0003E0
0003E0
0003E0
0003E0
0003E0
0003E0
0003E0
0003E0
ENDCHAR
STARTCHAR 0035
ENCODING 53
SWIDTH 560 0
DWIDTH 28 0
BBX 24 37 2 -1
BITMAP
1FFFFC
1FFFFC
1FFFFC
1FFFFC
1FFFFC
1E0000
1E0000
3E0000
3E0000
3C0000
3C0000
3C0000
3C7F00
3DFFC0
7FFFF0
7FFFF8
7F03F8
7E00FC
78007E
00003E
00003E
00001E
00001F
00001F
00001F
00001F
00001E
00001E
F0003E
F8003E
7C007C
7E00FC
3F83F8
3FFFF0
1FFFE0
07FFC0
01FE00
ENDCHAR
STARTCHAR 0036
ENCODING 54
SWIDTH 560 0
DWIDTH 28 0
BBX 24 36 2 0
BITMAP
00FF80
03FFE0
07FFF0
0FFFF8
1F80F8
1F007C
3E007C
3C003E
7C003E
780000
780000
780000
F80000
F87F00
F9FFE0
F3FFF0
F7FFF8
FF81FC
FE007C
FC003E
FC003E
F8001E
F8001F
F8001F
F8001F
78001F
78001E
78003E
7C003E
3E007E
3F00FC
1FC3F8
0FFFF0
0FFFE0
03FFC0
00FF00
ENDCHAR
STARTCHAR 0037
ENCODING 55
SWIDTH 560 0
DWIDTH 28 0
BBX 24 36 2 0
BITMAP
FFFFFF
FFFFFF
FFFFFF
FFFFFF
FFFFFE
00001E
00003C
000078
000078
0000F0
0001E0
0001E0
0003C0
0003C0
000780
000F00
000F00
001E00
001E00
003E00
003C00
007C00
007800
007800
00F800
00F000
00F000
01F000
01E000
01E000
03E000
03E000
03C000
03C000
07C000
07C000
ENDCHAR
STARTCHAR 0038
ENCODING 56
SWIDTH 560 0
DWIDTH 28 0
BBX 24 36 2 0
BITMAP
01FF80
07FFE0
0FFFF0
1FFFF8
3F00FC
3E007C
7C007C
7C003E
7C003E
7C003E
7C003C
7C007C
3E00FC
1F83F8
0FFFF0
07FFC0
07FFE0
1FFFF0
3F81F8
3E007C
7C003E
78003E
F8001E
F8001F
F8001F
F8001F
F8001F
F8001E
78003E
7C007E
7E00FC
3F83FC
1FFFF8
0FFFF0
07FFC0
00FF00
ENDCHAR
STARTCHAR 0039
ENCODING 57
SWIDTH 560 0
DWIDTH 28 0
BBX 24 36 2 0
BITMAP
01FF80
07FFC0
0FFFF0
1FFFF0
3F01F8
7E007C
7C007C
7C003C
F8001E
F8001E
F8001E
F8001E
F8001E
F8001F
F8003F
7C003F
7C007F
7E00FF
3F83FF
1FFFFF
0FFFDF
07FF9E
01FE1E
00001E
00001E
00003E
00003C
78003C
7C007C
7C00F8
3E01F8
3F83F0
1FFFE0
0FFFC0
07FF80
00FE00
ENDCHAR
STARTCHAR 003A
ENCODING 58
SWIDTH 240 0
DWIDTH 12 0
BBX 5 26 4 0
BITMAP
F8
F8
F8
F8
F8
00
00
00
00
00
00
00
00
00
00
00
00
00
00
00
00
F8
F8
F8
F8
F8
ENDCHAR
STARTCHAR 003B
ENCODING 59
SWIDTH 260 0
DWIDTH 13 0
BBX 5 33 4 -7
BITMAP
F8
F8
F8
F8
F8
00
00
00
00
00
00
00
00
00
00
00
00
00
00
00
00
F8
F8
F8
F8
F8
18
18
18
18
38
F0
C0
ENDCHAR
STARTCHAR 003C
ENCODING 60
SWIDTH 580 0
DWIDTH 29 0
BBX 25 24 2 0
BITMAP
00000080
00000380
00000F80
00007F80
0001FF00
0007FC00
003FE000
00FF8000
07FC0000
1FF00000
7FC00000
FE000000
F8000000
FF000000
7FC00000
1FF80000
03FE0000
00FF8000
001FF000
0007FC00
0001FF80
00003F80
00000F80
00000380
ENDCHAR
STARTCHAR 003D
ENCODING 61
SWIDTH 580 0
DWIDTH 29 0
BBX 24 12 3 6
BITMAP
FFFFFF
FFFFFF
FFFFFF
FFFFFF
000000
000000
000000
000000
FFFFFF
FFFFFF
FFFFFF
FFFFFF
ENDCHAR
STARTCHAR 003E
ENCODING 62
SWIDTH 580 0
DWIDTH 29 0
BBX 24 23 3 1
BITMAP
C00000
F80000
FE0000
FF8000
3FF000
07FC00
01FF00
003FE0
000FF8
0003FE
00007F
00001F
00007F
0003FE
000FF8
007FC0
01FF00
0FFC00
3FE000
FF8000
FE0000
F00000
C00000
ENDCHAR
STARTCHAR 003F
ENCODING 63
SWIDTH 560 0
DWIDTH 28 0
BBX 22 36 4 1
BITMAP
07FF00
0FFFC0
1FFFE0
3FFFF0
7E03F8
7C00F8
F800F8
F8007C
F8007C
F8007C
F8007C
000078
0000F8
0001F8
0003F0
0007E0
000FC0
001F80
003F00
007E00
007C00
00F800
00F800
00F800
00F800
00F800
000000
000000
000000
000000
000000
00F800
00F800
00F800
00F800
00F800
ENDCHAR
STARTCHAR 0040
ENCODING 64
SWIDTH 1020 0
DWIDTH 51 0
BBX 46 43 2 -6
BITMAP
00007FFE0000
0001FFFFC000
0007FFFFF000
001FFFFFFC00
007FC003FE00
00FE0000FF00
01FC00003F80
03F000001FC0
07E000000FE0
07C0000007E0
0F800FE003F0
1F003FF1E1F0
1F007FF9E0F8
3E01F83FC0F8
3C01F01FC0F8
7C03E00FC07C
7C07C00F807C
780F800F807C
F80F800F807C
F80F000F807C
F81F000F0078
F81F000F0078
F81F001F00F8
F81F001E00F8
F81F001E01F0
F81F003E01F0
F81F003C03E0
780F807C07E0
7C0F80FC0FC0
7C07E3FF3F80
7E07FF9FFF00
3E01FF1FFE00
1F00FC0FF800
1F8000000000
0FC000000000
07E000000000
03F800000000
01FE00000000
00FFC01F8000
003FFFFF8000
001FFFFF8000
0003FFFF0000
00007FF00000
ENDCHAR
STARTCHAR 0041
ENCODING 65
SWIDTH 660 0
DWIDTH 33 0
BBX 31 36 1 0
BITMAP
0007E000
000FE000
000FF000
001FF000
001FF000
001EF800
003EF800
003E7800
003C7C00
007C7C00
007C3C00
00783E00
00F83E00
00F81F00
00F01F00
01F01F00
01E00F80
03E00F80
03E00F80
03C007C0
07C007C0
07FFFFC0
07FFFFE0
0FFFFFE0
0FFFFFE0
0F0001F0
1F0001F0
1F0001F8
3E0000F8
3E0000F8
3E0000FC
7C00007C
7C00007C
7C00007E
F800003E
F800003E
ENDCHAR
STARTCHAR 0042
ENCODING 66
SWIDTH 660 0
DWIDTH 33 0
BBX 28 36 4 0
BITMAP
FFFFE000
FFFFF800
FFFFFE00
FFFFFF00
F8007F00
F8001F80
F8000F80
F8000780
F80007C0
F80007C0
F80007C0
F8000780
F8000780
F8000F80
F8001F00
F8007E00
FFFFFC00
FFFFF800
FFFFFE00
FFFFFF80
F8001FC0
F80007C0
F80003E0
F80001E0
F80001F0
F80001F0
F80001F0
F80001F0
F80001E0
F80003E0
F80007E0
F8001FC0
FFFFFF80
FFFFFF00
FFFFFE00
FFFFF800
ENDCHAR
STARTCHAR 0043
ENCODING 67
SWIDTH 700 0
DWIDTH 35 0
BBX 32 37 2 0
BITMAP
001FFE00
00FFFF80
01FFFFC0
07FFFFE0
07F007F0
0FC001F8
1F8000F8
1F00007C
3E00007C
3E00003C
7C00003E
7C000000
78000000
F8000000
F8000000
F8000000
F8000000
F8000000
F8000000
F8000000
F8000000
F8000000
F8000000
F800001F
7800001E
7C00003E
7C00003E
3E00003E
3E00007C
1F0000FC
1F8000F8
0FE003F8
07F80FF0
03FFFFE0
01FFFFC0
007FFF00
000FF800
ENDCHAR
STARTCHAR 0044
ENCODING 68
SWIDTH 700 0
DWIDTH 35 0
BBX 29 36 4 0
BITMAP
FFFFC000
FFFFF800
FFFFFC00
FFFFFE00
F800FF00
F8001F80
F8000FC0
F80007C0
F80003E0
F80003E0
F80001F0
F80001F0
F80001F0
F80000F0
F80000F0
F80000F8
F80000F8
F80000F8
F80000F8
F80000F8
F80000F8
F80000F0
F80000F0
F80001F0
F80001F0
F80001F0
F80003E0
F80003E0
F80007C0
F8000FC0
F8001F80
F800FF00
FFFFFE00
FFFFFC00
FFFFF800
FFFFC000
ENDCHAR
STARTCHAR 0045
ENCODING 69
SWIDTH 640 0
DWIDTH 32 0
BBX 26 36 4 0
BITMAP
FFFFFF80
FFFFFF80
FFFFFF80
FFFFFF80
F8000000
F8000000
F8000000
F8000000
F8000000
F8000000
F8000000
F8000000
F8000000
F8000000
F8000000
F8000000
FFFFFF00
FFFFFF00
FFFFFF00
FFFFFF00
F8000000
F8000000
F8000000
F8000000
F8000000
F8000000
F8000000
F8000000
F8000000
F8000000
F8000000
F8000000
FFFFFFC0
FFFFFFC0
FFFFFFC0
FFFFFFC0
ENDCHAR
STARTCHAR 0046
ENCODING 70
SWIDTH 600 0
DWIDTH 30 0
BBX 24 36 4 0
BITMAP
FFFFFF
FFFFFF
FFFFFF
FFFFFF
F80000
F80000
F80000
F80000
F80000
F80000
F80000
F80000
F80000
F80000
F80000
F80000
FFFFFC
FFFFFC
FFFFFC
FFFFFC
F80000
F80000
F80000
F80000
F80000
F80000
F80000
F80000
F80000
F80000
F80000
F80000
F80000
F80000
F80000
F80000
ENDCHAR
STARTCHAR 0047
ENCODING 71
SWIDTH 760 0
DWIDTH 38 0
BBX 33 37 2 0
BITMAP
001FFE0000
007FFF8000
01FFFFE000
03FFFFF000
07F003F800
0FC000FC00
1F80007C00
1F00003E00
3E00003E00
3E00001E00
7C00001F00
7C00000000
7800000000
F800000000
F800000000
F800000000
F800000000
F8003FFF80
F8003FFF80
F8003FFF80
F8003FFF80
F800000780
F800000780
F800000780
7C00000780
7C00000F80
7C00000F80
3E00000F80
3F00001F80
1F80003F80
1FC0007F80
0FE001FF80
07FC07F780
03FFFFE780
01FFFF8380
007FFE0380
000FF00000
ENDCHAR
STARTCHAR 0048
ENCODING 72
SWIDTH 720 0
DWIDTH 36 0
BBX 28 36 4 0
BITMAP
F80001F0
F80001F0
F80001F0
F80001F0
F80001F0
F80001F0
F80001F0
F80001F0
F80001F0
F80001F0
F80001F0
F80001F0
F80001F0
F80001F0
F80001F0
F80001F0
FFFFFFF0
FFFFFFF0
FFFFFFF0
FFFFFFF0
F80001F0
F80001F0
F80001F0
F80001F0
F80001F0
F80001F0
F80001F0
F80001F0
F80001F0
F80001F0
F80001F0
F80001F0
F80001F0
F80001F0
F80001F0
F80001F0
ENDCHAR
STARTCHAR 0049
ENCODING 73
SWIDTH 280 0
DWIDTH 14 0
BBX 5 36 5 0
BITMAP
F8
F8
F8
F8
F8
F8
F8
F8
F8
F8
F8
F8
F8
F8
F8
F8
F8
F8
F8
F8
F8
F8
F8
F8
F8
F8
F8
F8
F8
F8
F8
F8
F8
F8
F8
F8
ENDCHAR
STARTCHAR 004A
ENCODING 74
SWIDTH 520 0
DWIDTH 26 0
BBX 21 37 2 -1
BITMAP
0000F8
0000F8
0000F8
0000F8
0000F8
0000F8
0000F8
0000F8
0000F8
0000F8
0000F8
0000F8
0000F8
0000F8
0000F8
0000F8
0000F8
0000F8
0000F8
0000F8
0000F8
0000F8
0000F8
0000F8
0000F8
F800F8
F800F8
F800F8
F800F8
F801F0
F801F0
7C03F0
7F07E0
3FFFE0
1FFFC0
0FFF00
03FC00
ENDCHAR
STARTCHAR 004B
ENCODING 75
SWIDTH 680 0
DWIDTH 34 0
BBX 29 36 4 0
BITMAP
F80003F0
F80007E0
F8000FC0
F8001F80
F8003F00
F8007E00
F800FC00
F801F800
F803F000
F807E000
F80FC000
F81F8000
F83F0000
F87E0000
F8FC0000
F9FE0000
FBFE0000
FFFF0000
FFDF8000
FF8F8000
FF07C000
FE07E000
FC03E000
F801F000
F801F800
F800FC00
F8007C00
F8003E00
F8003F00
F8001F00
F8000F80
F8000FC0
F80007C0
F80003E0
F80003F0
F80001F8
ENDCHAR
STARTCHAR 004C
ENCODING 76
SWIDTH 560 0
DWIDTH 28 0
BBX 23 36 4 0
BITMAP
F80000
F80000
F80000
F80000
F80000
F80000
F80000
F80000
F80000
F80000
F80000
F80000
F80000
F80000
F80000
F80000
F80000
F80000
F80000
F80000
F80000
F80000
F80000
F80000
F80000
F80000
F80000
F80000
F80000
F80000
F80000
F80000
FFFFFE
FFFFFE
FFFFFE
FFFFFE
ENDCHAR
STARTCHAR 004D
ENCODING 77
SWIDTH 840 0
DWIDTH 42 0
BBX 35 36 4 0
BITMAP
FE00000FE0
FE00001FE0
FF00001FE0
FF00001FE0
FF00003FE0
FF80003FE0
FF80003FE0
FF80007BE0
FBC0007BE0
FBC0007BE0
FBC000F3E0
F9E000F3E0
F9E000F3E0
F9E001E3E0
F8F001E3E0
F8F001E3E0
F8F003C3E0
F87803C3E0
F87803C3E0
F8780783E0
F83C0783E0
F83C0783E0
F83C0F03E0
F81E0F03E0
F81E0F03E0
F81E1E03E0
F80F1E03E0
F80F1E03E0
F80F3C03E0
F807BC03E0
F807BC03E0
F807F803E0
F803F803E0
F803F803E0
F803F003E0
F801F003E0
ENDCHAR
STARTCHAR 004E
ENCODING 78
SWIDTH 740 0
DWIDTH 37 0
BBX 29 36 4 0
BITMAP
FC0000F8
FC0000F8
FE0000F8
FF0000F8
FF0000F8
FF8000F8
FF8000F8
FFC000F8
FBE000F8
FBE000F8
F9F000F8
F8F800F8
F8F800F8
F87C00F8
F83E00F8
F83E00F8
F81F00F8
F81F00F8
F80F80F8
F807C0F8
F807C0F8
F803E0F8
F801F0F8
F801F0F8
F800F8F8
F80078F8
F8007CF8
F8003EF8
F8003EF8
F8001FF8
F8000FF8
F8000FF8
F80007F8
F80003F8
F80003F8
F80001F8
ENDCHAR
STARTCHAR 004F
ENCODING 79
SWIDTH 780 0
DWIDTH 39 0
BBX 36 37 2 0
BITMAP
001FFF0000
007FFFE000
01FFFFF000
03FFFFF800
07F801FE00
0FE0007E00
1F80003F00
1F00001F80
3F00000F80
3E000007C0
7C000007C0
7C000003E0
78000003E0
F8000003E0
F8000001E0
F8000001E0
F8000001F0
F8000001F0
F8000001F0
F8000001F0
F8000001F0
F8000001E0
F8000001E0
78000003E0
7C000003E0
7C000003E0
7E000007C0
3E00000FC0
3F00000F80
1F80001F80
0FC0003F00
07F000FE00
03FC07FC00
01FFFFF800
00FFFFE000
003FFFC000
0007FC0000
ENDCHAR
STARTCHAR 0050
ENCODING 80
SWIDTH 660 0
DWIDTH 33 0
BBX 26 36 4 0
BITMAP
FFFFE000
FFFFF800
FFFFFC00
FFFFFE00
F8007F00
F8001F80
F8000F80
F8000F80
F8000780
F80007C0
F80007C0
F80007C0
F80007C0
F8000F80
F8000F80
F8001F80
F8007F00
FFFFFF00
FFFFFE00
FFFFF800
FFFFE000
F8000000
F8000000
F8000000
F8000000
F8000000
F8000000
F8000000
F8000000
F8000000
F8000000
F8000000
F8000000
F8000000
F8000000
F8000000
ENDCHAR
STARTCHAR 0051
ENCODING 81
SWIDTH 780 0
DWIDTH 39 0
BBX 36 39 2 -2
BITMAP
001FFF0000
007FFFC000
01FFFFF000
03FFFFF800
07F801FE00
0FE0007E00
1F80003F00
1F00001F80
3F00000F80
3E000007C0
7C000007C0
7C000003E0
7C000003E0
F8000003E0
F8000001E0
F8000001E0
F8000001F0
F8000001F0
F8000001F0
F8000001F0
F8000001F0
F8000001E0
F8000001E0
78000003E0
7C000003E0
7C000003C0
7E000207C0
3E00078FC0
3F000FCF80
1F8007FF80
0FC001FF00
07F000FE00
03FC07FE00
01FFFFFF00
00FFFFEF80
003FFF87E0
0007FC03E0
00000001C0
0000000080
ENDCHAR
STARTCHAR 0052
ENCODING 82
SWIDTH 700 0
DWIDTH 35 0
BBX 29 36 4 0
BITMAP
FFFFF800
FFFFFE00
FFFFFF80
FFFFFFC0
F8001FC0
F80007E0
F80003E0
F80001E0
F80001F0
F80001F0
F80001F0
F80001E0
F80001E0
F80003E0
F80007C0
F8001FC0
FFFFFF80
FFFFFE00
FFFFFF00
FFFFFF80
F8000FC0
F80007E0
F80003E0
F80001E0
F80001F0
F80001F0
F80001F0
F80001F0
F80001F0
F80001F0
F80001F0
F80001F0
F80001F0
F80001F0
F80001F0
F80000F8
ENDCHAR
STARTCHAR 0053
ENCODING 83
SWIDTH 660 0
DWIDTH 33 0
BBX 28 37 3 0
BITMAP
00FFF000
03FFFC00
0FFFFE00
1FFFFF00
3F803F80
3E000FC0
3E0007C0
7C0007C0
7C0003C0
7C0003E0
7C0003E0
7C000000
7E000000
3F000000
3FE00000
1FFE0000
0FFFE000
03FFFC00
007FFF00
0007FF80
0000FFC0
00001FE0
000007E0
000003E0
000001F0
F80001F0
F80001F0
F80001F0
F80001E0
7C0003E0
7E0007E0
3F000FC0
3FC03F80
1FFFFF80
0FFFFE00
03FFFC00
007FE000
ENDCHAR
STARTCHAR 0054
ENCODING 84
SWIDTH 640 0
DWIDTH 32 0
BBX 28 36 2 0
BITMAP
FFFFFFF0
FFFFFFF0
FFFFFFF0
FFFFFFF0
000F8000
000F8000
000F8000
000F8000
000F8000
000F8000
000F8000
000F8000
000F8000
000F8000
000F8000
000F8000
000F8000
000F8000
000F8000
000F8000
000F8000
000F8000
000F8000
000F8000
000F8000
000F8000
000F8000
000F8000
000F8000
000F8000
000F8000
000F8000
000F8000
000F8000
000F8000
000F8000
ENDCHAR
STARTCHAR 0055
ENCODING 85
SWIDTH 720 0
DWIDTH 36 0
BBX 28 37 4 -1
BITMAP
F80001F0
F80001F0
F80001F0
F80001F0
F80001F0
F80001F0
F80001F0
F80001F0
F80001F0
F80001F0
F80001F0
F80001F0
F80001F0
F80001F0
F80001F0
F80001F0
F80001F0
F80001F0
F80001F0
F80001F0
F80001F0
F80001F0
F80001F0
F80001F0
F80001F0
F80001F0
F80001F0
F80001E0
F80003E0
7C0003E0
7E0007E0
3F000FC0
3FE07F80
1FFFFF00
0FFFFE00
03FFF800
007FC000
ENDCHAR
STARTCHAR 0056
ENCODING 86
SWIDTH 640 0
DWIDTH 32 0
BBX 30 36 1 0
BITMAP
F800007C
F800007C
7C00007C
7C0000F8
7C0000F8
3E0000F8
3E0001F0
3E0001F0
1F0001F0
1F0003E0
0F0003E0
0F8003C0
0F8007C0
078007C0
07C00780
07C00F80
03E00F80
03E00F00
03E01F00
01F01F00
01F01E00
00F03E00
00F83E00
00F83C00
00787C00
007C7C00
007C7800
003CF800
003EF000
003EF000
001FF000
001FE000
000FE000
000FE000
000FC000
0007C000
ENDCHAR
STARTCHAR 0057
ENCODING 87
SWIDTH 940 0
DWIDTH 47 0
BBX 45 36 1 0
BITMAP
F8000F8000F8
F8001F8000F8
7C001FC001F0
7C001FC001F0
7C001FC001F0
7C003FE001F0
3E003FE003E0
3E003DE003E0
3E003DE003E0
3E007DF003E0
1F0078F007C0
1F0078F007C0
1F00F8F807C0
1F00F8F807C0
0F00F0780780
0F80F0780F80
0F81F07C0F80
0F81E03C0F80
0781E03C0F00
07C1E03C1F00
07C3E03E1F00
07C3C01E1F00
03C3C01E1E00
03E7C01F3E00
03E7C00F3E00
03E7800F3E00
01E7800F3C00
01FF800FBC00
01FF0007FC00
00FF0007FC00
00FF0007F800
00FF0007F800
00FE0003F800
007E0003F800
007E0003F000
007E0001F000
ENDCHAR
STARTCHAR 0058
ENCODING 88
SWIDTH 660 0
DWIDTH 33 0
BBX 31 36 1 0
BITMAP
7E00007C
3E0000F8
3F0001F8
1F8001F0
0F8003E0
0FC007E0
07E007C0
03E00F80
03F01F80
01F01F00
00F83E00
00FC7C00
007C7C00
003EF800
001FF000
001FF000
000FE000
0007C000
000FE000
001FF000
001FF000
003EF800
007CFC00
00FC7C00
00F83E00
01F03F00
03F01F00
03E00F80
07C00FC0
0FC007E0
0F8003E0
1F0003F0
3F0001F8
7E0000F8
7C0000FC
FC00007E
ENDCHAR
STARTCHAR 0059
ENCODING 89
SWIDTH 680 0
DWIDTH 34 0
BBX 32 36 1 0
BITMAP
FC00003F
7E00003E
3E00007E
3F00007C
1F0000FC
1F8000F8
0FC001F0
07C003F0
07E003E0
03F007C0
01F007C0
01F80F80
00F81F80
007C1F00
007E3E00
003E3E00
001F7C00
001FF800
000FF800
000FF000
0007F000
0003E000
0003E000
0003E000
0003E000
0003E000
0003E000
0003E000
0003E000
0003E000
0003E000
0003E000
0003E000
0003E000
0003E000
0003E000
ENDCHAR
STARTCHAR 005A
ENCODING 90
SWIDTH 620 0
DWIDTH 31 0
BBX 27 36 2 0
BITMAP
7FFFFFE0
7FFFFFE0
7FFFFFE0
7FFFFFE0
000007E0
00000FC0
00001F80
00001F80
00003F00
00007E00
0000FC00
0000F800
0001F800
0003F000
0007E000
000FC000
000F8000
001F8000
003F0000
007E0000
00FC0000
00FC0000
01F80000
03F00000
07E00000
07C00000
0FC00000
1F800000
3F000000
7E000000
7C000000
FC000000
FFFFFFE0
FFFFFFE0
FFFFFFE0
FFFFFFE0
ENDCHAR
STARTCHAR 005B
ENCODING 91
SWIDTH 280 0
DWIDTH 14 0
BBX 9 47 3 -11
BITMAP
FF80
FF80
FF80
FF80
F000
F000
F000
F000
F000
F000
F000
F000
F000
F000
F000
F000
F000
F000
F000
F000
F000
F000
F000
F000
F000
F000
F000
F000
F000
F000
F000
F000
F000
F000
F000
F000
F000
F000
F000
F000
F000
F000
F000
FF80
FF80
FF80
FF80
ENDCHAR
STARTCHAR 005C
ENCODING 92
SWIDTH 280 0
DWIDTH 14 0
BBX 14 37 0 -1
BITMAP
E000
E000
7000
7000
7000
3000
3800
3800
1800
1C00
1C00
0C00
0E00
0E00
0600
0700
0700
0300
0380
0380
0180
01C0
01C0
00C0
00E0
00E0
0060
0070
0070
0070
0038
0038
0038
0018
001C
001C
000C
ENDCHAR
STARTCHAR 005D
ENCODING 93
SWIDTH 280 0
DWIDTH 14 0
BBX 9 47 1 -11
BITMAP
FF80
FF80
FF80
FF80
0780
0780
0780
0780
0780
0780
0780
0780
0780
0780
0780
0780
0780
0780
0780
0780
0780
0780
0780
0780
0780
0780
0780
0780
0780
0780
0780
0780
0780
0780
0780
0780
0780
0780
0780
0780
0780
0780
0780
FF80
FF80
FF80
FF80
ENDCHAR
STARTCHAR 005E
ENCODING 94
SWIDTH 460 0
DWIDTH 23 0
BBX 18 19 3 17
BITMAP
01E000
03E000
03E000
03F000
07F000
077800
0F3800
0F3800
0E3C00
1E1C00
1C1E00
3C0E00
380E00
380F00
780700
700780
F00380
E00380
E003C0
ENDCHAR
STARTCHAR 005F
ENCODING 95
SWIDTH 560 0
DWIDTH 28 0
BBX 30 3 -1 -9
BITMAP
FFFFFFFC
FFFFFFFC
FFFFFFFC
ENDCHAR
STARTCHAR 0060
ENCODING 96
SWIDTH 260 0
DWIDTH 13 0
BBX 10 8 1 29
BITMAP
FC00
7C00
3E00
1F00
0F00
0780
03C0
01C0
ENDCHAR
STARTCHAR 0061
ENCODING 97
SWIDTH 540 0
DWIDTH 27 0
BBX 24 28 2 -1
BITMAP
01FF00
07FFC0
1FFFE0
3FFFF0
3F83F8
7E00F8
7C0078
7C0078
000078
000078
0000F8
0003F8
00FFF8
0FFFF8
3FFF78
7FE078
7E0078
FC0078
F80078
F80078
F80078
F800F8
F801F8
7C03F8
7FFFFF
3FFF7F
1FFC3F
07F01F
ENDCHAR
STARTCHAR 0062
ENCODING 98
SWIDTH 560 0
DWIDTH 28 0
BBX 24 37 3 -1
BITMAP
F00000
F00000
F00000
F00000
F00000
F00000
F00000
F00000
F00000
F07F00
F1FFC0
F3FFE0
F7FFF0
FF83F8
FE00FC
FC007C
FC007E
F8003E
F8003E
F8001E
F0001F
F0001F
F0001F
F0001F
F0001F
F0001E
F0001E
F8003E
F8003E
FC007E
FC007C
FE00FC
FF83F8
F7FFF0
F7FFE0
F1FFC0
007F00
ENDCHAR
STARTCHAR 0063
ENCODING 99
SWIDTH 500 0
DWIDTH 25 0
BBX 23 28 2 -1
BITMAP
00FE00
03FFC0
07FFE0
0FFFF0
1F83F8
3F00F8
3E007C
7C007C
7C003C
F80000
F80000
F80000
F80000
F80000
F80000
F80000
F80000
F80000
F8003E
7C003C
7C007C
7E007C
3F00F8
3F83F8
1FFFF0
0FFFE0
03FFC0
00FE00
ENDCHAR
STARTCHAR 0064
ENCODING 100
SWIDTH 560 0
DWIDTH 28 0
BBX 23 37 2 -1
BITMAP
00001E
00001E
00001E
00001E
00001E
00001E
00001E
00001E
00001E
00FC1E
03FF1E
0FFFDE
1FFFDE
3FC3FE
3F00FE
7E007E
7C007E
7C003E
F8003E
F8001E
F8001E
F8001E
F8001E
F8001E
F8001E
F8001E
F8001E
F8003E
7C003E
7C003E
7E007E
3F00FE
3FC3FE
1FFFDE
0FFF9E
03FF1E
00FC00
ENDCHAR
STARTCHAR 0065
ENCODING 101
SWIDTH 540 0
DWIDTH 27 0
BBX 24 28 2 -1
BITMAP
00FF00
03FFC0
07FFF0
0FFFF8
1FC3F8
3F00FC
3E007C
7C003E
78003E
F8001E
F8001E
F8001E
FFFFFF
FFFFFF
FFFFFF
F80000
F80000
F80000
F80000
7C003E
7C003E
7E007C
3F00FC
1FC1F8
1FFFF8
0FFFE0
03FFC0
00FF00
ENDCHAR
STARTCHAR 0066
ENCODING 102
SWIDTH 280 0
DWIDTH 14 0
BBX 11 36 2 0
BITMAP
03E0
07E0
0FE0
1FE0
1F00
1E00
1E00
1E00
1E00
1E00
FFE0
FFE0
FFE0
1E00
1E00
1E00
1E00
1E00
1E00
1E00
1E00
1E00
1E00
1E00
1E00
1E00
1E00
1E00
1E00
1E00
1E00
1E00
1E00
1E00
1E00
1E00
ENDCHAR
STARTCHAR 0067
ENCODING 103
SWIDTH 560 0
DWIDTH 28 0
BBX 23 38 2 -11
BITMAP
00FC00
03FF3E
0FFFBE
1FFFFE
1F83FE
3F01FE
7E00FE
7C007E
7C007E
F8007E
F8003E
F8003E
F8003E
F8003E
F8003E
F8003E
F8003E
F8003E
F8007E
7C007E
7C007E
7E00FE
3F01FE
3F83FE
1FFFBE
0FFF3E
03FE3E
00FC3C
00003C
00007C
7C007C
7C007C
7C00F8
3E01F8
3FFFF0
1FFFE0
07FFC0
01FF00
ENDCHAR
STARTCHAR 0068
ENCODING 104
SWIDTH 540 0
DWIDTH 27 0
BBX 21 36 3 0
BITMAP
F00000
F00000
F00000
F00000
F00000
F00000
F00000
F00000
F00000
F07F00
F1FFC0
F3FFE0
F7FFF0
FF01F8
FE00F8
FC0078
F80078
F80078
F80078
F00078
F00078
F00078
F00078
F00078
F00078
F00078
F00078
F00078
F00078
F00078
F00078
F00078
F00078
F00078
F00078
F00078
ENDCHAR
STARTCHAR 0069
ENCODING 105
SWIDTH 220 0
DWIDTH 11 0
BBX 4 36 3 0
BITMAP
F0
F0
F0
F0
F0
00
00
00
00
00
F0
F0
F0
F0
F0
F0
F0
F0
F0
F0
F0
F0
F0
F0
F0
F0
F0
F0
F0
F0
F0
F0
F0
F0
F0
F0
ENDCHAR
STARTCHAR 006A
ENCODING 106
SWIDTH 240 0
DWIDTH 12 0
BBX 8 47 0 -11
BITMAP
0F
0F
0F
0F
0F
00
00
00
00
00
0F
0F
0F
0F
0F
0F
0F
0F
0F
0F
0F
0F
0F
0F
0F
0F
0F
0F
0F
0F
0F
0F
0F
0F
0F
0F
0F
0F
0F
0F
0F
0F
1F
FF
FE
FE
F8
ENDCHAR
STARTCHAR 006B
ENCODING 107
SWIDTH 520 0
DWIDTH 26 0
BBX 22 36 3 0
BITMAP
F00000
F00000
F00000
F00000
F00000
F00000
F00000
F00000
F00000
F00000
F001F0
F003E0
F007C0
F00F80
F01F00
F03E00
F07C00
F0F800
F1F000
F3F000
F7F000
FFF800
FF7C00
FE7C00
FC3E00
F83F00
F01F00
F00F80
F00F80
F007C0
F003E0
F003E0
F001F0
F001F8
F000F8
F0007C
ENDCHAR
STARTCHAR 006C
ENCODING 108
SWIDTH 220 0
DWIDTH 11 0
BBX 5 36 3 0
BITMAP
F8
F8
F8
F8
F8
F8
F8
F8
F8
F8
F8
F8
F8
F8
F8
F8
F8
F8
F8
F8
F8
F8
F8
F8
F8
F8
F8
F8
F8
F8
F8
F8
F8
F8
F8
F8
ENDCHAR
STARTCHAR 006D
ENCODING 109
SWIDTH 820 0
DWIDTH 41 0
BBX 35 27 3 0
BITMAP
007E00FC00
F1FF83FF00
F3FFC7FF80
F7FFEFFFC0
FF07FE0FC0
FC03F807C0
FC01F803E0
F801F003E0
F801F003E0
F801F003E0
F801F003E0
F801F003E0
F801F003E0
F801F003E0
F801F003E0
F801F003E0
F801F003E0
F801F003E0
F801F003E0
F801F003E0
F801F003E0
F801F003E0
F801F003E0
F801F003E0
F801F003E0
F801F003E0
F801F003E0
ENDCHAR
STARTCHAR 006E
ENCODING 110
SWIDTH 540 0
DWIDTH 27 0
BBX 21 27 3 0
BITMAP
007F00
F1FFC0
F3FFE0
F7FFF0
FF01F8
FE00F8
FC0078
FC0078
F80078
F80078
F80078
F80078
F80078
F80078
F80078
F80078
F80078
F80078
F80078
F80078
F80078
F80078
F80078
F80078
F80078
F80078
F80078
ENDCHAR
STARTCHAR 006F
ENCODING 111
SWIDTH 540 0
DWIDTH 27 0
BBX 24 28 2 -1
BITMAP
00FF00
03FFC0
0FFFE0
1FFFF0
1F83F8
3F00FC
7E007C
7C003E
7C003E
F8003E
F8001E
F8001E
F8001F
F8001F
F8001F
F8001F
F8001F
F8001E
F8003E
7C003E
7C003E
7E007C
3F00FC
1F83F8
1FFFF0
0FFFE0
03FFC0
00FF00
ENDCHAR
STARTCHAR 0070
ENCODING 112
SWIDTH 560 0
DWIDTH 28 0
BBX 24 37 3 -10
BITMAP
007F00
F1FFC0
F3FFE0
F7FFF0
FF83F8
FF00FC
FE007C
FC007E
FC003E
F8003E
F8001E
F8001E
F8001F
F8001F
F8001F
F8001F
F8001F
F8001E
F8003E
FC003E
FC007E
FE007C
FF00FC
FF83F8
FFFFF0
FBFFE0
F9FFC0
F87F00
F80000
F80000
F80000
F80000
F80000
F80000
F80000
F80000
F80000
ENDCHAR
STARTCHAR 0071
ENCODING 113
SWIDTH 560 0
DWIDTH 28 0
BBX 23 37 2 -10
BITMAP
00FC00
03FF1E
0FFFDE
1FFFDE
1FC3FE
3F00FE
7E007E
7C003E
7C003E
F8003E
F8001E
F8001E
F8001E
F8001E
F8001E
F8001E
F8001E
F8001E
F8003E
7C003E
7C003E
7E007E
3F00FE
3FC3FE
1FFFDE
0FFFDE
07FF1E
00FC1E
00001E
00001E
00001E
00001E
00001E
00001E
00001E
00001E
00001E
ENDCHAR
STARTCHAR 0072
ENCODING 114
SWIDTH 340 0
DWIDTH 17 0
BBX 13 27 3 0
BITMAP
0078
F1F8
F3F8
F7F8
FFC0
FF00
FC00
FC00
F800
F800
F800
F800
F800
F800
F800
F800
F800
F800
F800
F800
F800
F800
F800
F800
F800
F800
F800
ENDCHAR
STARTCHAR 0073
ENCODING 115
SWIDTH 500 0
DWIDTH 25 0
BBX 23 28 1 -1
BITMAP
00FF00
07FFC0
0FFFE0
1FFFF0
3F83F8
7E00F8
7C007C
7C007C
7C0000
7C0000
7E0000
3FC000
1FFC00
0FFFC0
03FFF0
007FF8
0007FC
0000FC
00003E
F8003E
F8003E
FC003C
7C007C
7F01FC
3FFFF8
1FFFF0
0FFFC0
01FF00
ENDCHAR
STARTCHAR 0074
ENCODING 116
SWIDTH 280 0
DWIDTH 14 0
BBX 11 34 2 -1
BITMAP
1E00
1E00
1E00
1E00
1E00
1E00
1E00
FFE0
FFE0
FFE0
1E00
1E00
1E00
1E00
1E00
1E00
1E00
1E00
1E00
1E00
1E00
1E00
1E00
1E00
1E00
1E00
1E00
1E00
1E00
1E00
1FE0
1FE0
0FE0
07E0
ENDCHAR
STARTCHAR 0075
ENCODING 117
SWIDTH 540 0
DWIDTH 27 0
BBX 21 27 3 -1
BITMAP
F00078
F00078
F00078
F00078
F00078
F00078
F00078
F00078
F00078
F00078
F00078
F00078
F00078
F00078
F00078
F00078
F00078
F00078
F000F8
F000F8
F801F8
F803F8
FC07F8
7FFF78
3FFE78
1FFC78
07F000
ENDCHAR
STARTCHAR 0076
ENCODING 118
SWIDTH 500 0
DWIDTH 25 0
BBX 23 26 1 0
BITMAP
F0003E
F8003E
F8003C
78007C
7C007C
7C0078
3C00F8
3E00F0
1E00F0
1E01F0
1F01E0
0F01E0
0F03C0
0F83C0
0787C0
078780
07C780
03CF80
03CF00
03EF00
01FE00
01FE00
01FE00
00FC00
00FC00
007800
ENDCHAR
STARTCHAR 0077
ENCODING 119
SWIDTH 720 0
DWIDTH 36 0
BBX 35 26 1 0
BITMAP
F003F003E0
F803F003C0
F803F007C0
7803F807C0
7807F80780
7C07F80780
7C07F80F80
3C077C0F00
3C0F3C0F00
3E0F3C0F00
1E0F3C1F00
1E0E3E1E00
1E1E1E1E00
1F1E1E3E00
0F1E1E3C00
0F1C1F3C00
0F3C0F3C00
07BC0F7C00
07BC0F7800
07B80FF800
03F807F800
03F807F000
03F807F000
03F803F000
01F003E000
01F003E000
ENDCHAR
STARTCHAR 0078
ENCODING 120
SWIDTH 480 0
DWIDTH 24 0
BBX 22 26 1 0
BITMAP
F8007C
7C00F8
3C00F0
3E01F0
1F03E0
0F03C0
0F87C0
07CF80
03CF00
01FE00
01FE00
00FC00
007800
00FC00
00FE00
01FE00
03FF00
07CF80
078780
0F87C0
1F03E0
1E03E0
3E01F0
7C00F8
7800F8
F8007C
ENDCHAR
STARTCHAR 0079
ENCODING 121
SWIDTH 480 0
DWIDTH 24 0
BBX 22 37 1 -11
BITMAP
F0003C
F0007C
F80078
780078
7800F8
7C00F0
3C01F0
3C01F0
3E01E0
1E03E0
1E03C0
1F03C0
0F07C0
0F0780
0F8780
078F80
078F00
07CF00
03DF00
03DE00
03FE00
01FC00
01FC00
01FC00
00F800
00F800
00F800
00F000
01F000
01E000
01E000
03E000
07C000
7FC000
7F8000
7F0000
3C0000
ENDCHAR
STARTCHAR 007A
ENCODING 122
SWIDTH 480 0
DWIDTH 24 0
BBX 21 26 2 0
BITMAP
7FFFF0
7FFFF0
7FFFF0
7FFFF0
0003E0
0003E0
0007C0
000F80
001F00
003E00
007C00
007C00
00F800
01F000
03E000
07C000
0F8000
1F8000
1F0000
3E0000
7C0000
F80000
FFFFF8
FFFFF8
FFFFF8
FFFFF8
ENDCHAR
STARTCHAR 007B
ENCODING 123
SWIDTH 340 0
DWIDTH 17 0
BBX 11 47 2 -11
BITMAP
01E0
07E0
07E0
0F80
0F00
0F00
0F00
0F00
0F00
0F00
0F00
0F00
0F00
0F00
0F00
0F00
0F00
0F00
0F00
1E00
1E00
7E00
FC00
F000
F800
7C00
1E00
1E00
0F00
0F00
0F00
0F00
0F00
0F00
0F00
0F00
0F00
0F00
0F00
0F00
0F00
0F00
0F00
0F80
07E0
07E0
01E0
ENDCHAR
STARTCHAR 007C
ENCODING 124
SWIDTH 240 0
DWIDTH 12 0
BBX 3 47 5 -11
BITMAP
E0
E0
E0
E0
E0
E0
E0
E0
E0
E0
E0
E0
E0
E0
E0
E0
E0
E0
E0
E0
E0
E0
E0
E0
E0
E0
E0
E0
E0
E0
E0
E0
E0
E0
E0
E0
E0
E0
E0
E0
E0
E0
E0
E0
E0
E0
E0
ENDCHAR
STARTCHAR 007D
ENCODING 125
SWIDTH 340 0
DWIDTH 17 0
BBX 12 47 3 -11
BITMAP
F800
FC00
FE00
1E00
0F00
0F00
0F00
0F00
0F00
0F00
0F00
0F00
0F00
0F00
0F00
0F00
0F00
0F00
0F00
0700
0780
03E0
03F0
00F0
01F0
03E0
0780
0780
0F00
0F00
0F00
0F00
0F00
0F00
0F00
0F00
0F00
0F00
0F00
0F00
0F00
0F00
0F00
1E00
FE00
FC00
F800
ENDCHAR
STARTCHAR 007E
ENCODING 126
SWIDTH 500 0
DWIDTH 25 0
BBX 22 9 2 13
BITMAP
3F0000
7FC000
7FE000
F1F81C
E0FC1C
E07F78
001FF8
000FF0
0003E0
ENDCHAR
STARTCHAR 00A0
ENCODING 160
SWIDTH 280 0
DWIDTH 14 0
BBX 0 0 0 0
BITMAP
ENDCHAR
STARTCHAR 00A1
ENCODING 161
SWIDTH 340 0
DWIDTH 17 0
BBX 4 36 7 -10
BITMAP
F0
F0
F0
F0
F0
00
00
00
60
60
60
60
60
E0
F0
F0
F0
F0
F0
F0
F0
F0
F0
F0
F0
F0
F0
F0
F0
F0
F0
F0
F0
F0
F0
F0
ENDCHAR
STARTCHAR 00A2
ENCODING 162
SWIDTH 560 0
DWIDTH 28 0
BBX 23 36 3 -5
BITMAP
003000
003000
003000
003000
003000
03FF80
07FFC0
0FFFF0
1FFFF8
3F31F8
3E30FC
7C307C
7C307C
78303C
F83000
F83000
F83000
F83000
F83000
F83000
F83000
F83000
F8303E
78303C
7C307C
7C307C
3E30F8
3FB3F8
1FFFF0
0FFFE0
07FFC0
00FE00
003000
003000
003000
003000
ENDCHAR
STARTCHAR 00A3
ENCODING 163
SWIDTH 560 0
DWIDTH 28 0
BBX 25 37 2 -1
BITMAP
007F8000
01FFE000
07FFF000
0FFFF800
1FC1FC00
3F007E00
3E003E00
7C003E00
7C001E00
7C001F00
7C001F00
7C000000
7C000000
3C000000
3E000000
1F000000
1F000000
FFFF8000
FFFF8000
FFFF8000
07C00000
03C00000
03E00000
03E00000
03E00000
03C00000
07C00000
07800000
07800000
0F000000
1E000000
3DFC0200
7FFFFF00
FFFFFF00
7FFFFF80
381FFE00
0001F800
ENDCHAR
STARTCHAR 00A4
ENCODING 164
SWIDTH 560 0
DWIDTH 28 0
BBX 21 20 3 7
BITMAP
300020
79FC70
FFFFF8
7FFFF8
3FFFF0
3F07E0
3E03E0
7C01F0
7800F0
7800F0
7800F0
7800F0
7C01F0
3E03E0
3F07E0
3FFFE0
7FFFF0
FFFFF8
79FC70
300020
ENDCHAR
STARTCHAR 00A5
ENCODING 165
SWIDTH 560 0
DWIDTH 28 0
BBX 26 36 1 0
BITMAP
F00003C0
780007C0
7C000780
3C000F00
1E000F00
1E001E00
0F001E00
0F003C00
07803C00
07807800
03C07800
01E0F000
01E1E000
00F1E000
00F3C000
007BC000
007F8000
003F8000
1FFFFF00
1FFFFF00
1FFFFF00
001F0000
001F0000
001F0000
001F0000
1FFFFF00
1FFFFF00
1FFFFF00
001F0000
001F0000
001F0000
001F0000
001F0000
001F0000
001F0000
001F0000
ENDCHAR
STARTCHAR 00A6
ENCODING 166
SWIDTH 260 0
DWIDTH 13 0
BBX 3 47 5 -11
BITMAP
E0
E0
E0
E0
E0
E0
E0
E0
E0
E0
E0
E0
E0
E0
E0
E0
E0
E0
E0
E0
00
00
00
00
00
00
00
E0
E0
E0
E0
E0
E0
E0
E0
E0
E0
E0
E0
E0
E0
E0
E0
E0
E0
E0
E0
ENDCHAR
STARTCHAR 00A7
ENCODING 167
SWIDTH 560 0
DWIDTH 28 0
BBX 23 47 2 -11
BITMAP
007E00
01FF80
03FFC0
07FFE0
0FC3F0
1F81F0
1F00F0
1F00F8
1F00F8
1F00F8
0F8000
0FC000
07E000
07F800
1FFC00
3C7F00
783F80
780FE0
F007F0
F001F8
F000FC
F0007C
F8003E
7C001E
7E001E
3F001E
1FC01E
0FE03C
07F03C
03F878
00FFF0
007FE0
003F80
000FC0
0007E0
0003E0
3E01E0
3E01F0
3E01F0
3E01F0
3E01E0
1F03E0
1F87E0
0FFFC0
0FFF80
03FF00
00FC00
ENDCHAR
STARTCHAR 00A8
ENCODING 168
SWIDTH 340 0
DWIDTH 17 0
BBX 13 5 2 31
BITMAP
F8F8
F8F8
F8F8
F8F8
F8F8
ENDCHAR
STARTCHAR 00A9
ENCODING 169
SWIDTH 800 0
DWIDTH 40 0
BBX 36 35 2 1
BITMAP
000FFF0000
003FFFC000
00FF07F000
01F000F800
03E0003C00
0780001E00
0F01FE0F00
1E07FF8780
3C0FFFC3C0
381F87C1C0
783E01E1E0
703C01E0E0
707800F0E0
F0780000F0
E070000070
E070000070
E070000070
E070000070
E070000070
E070000070
E070000070
F07800F0F0
703800F0E0
703C01E0E0
781E03E1E0
3C1FFFC1C0
3C0FFF83C0
1E07FF0780
0F00F80F00
0780001E00
03E0003C00
01F800F800
00FFFFF000
003FFFC000
000FFF0000
ENDCHAR
STARTCHAR 00AA
ENCODING 170
SWIDTH 380 0
DWIDTH 19 0
BBX 15 23 2 15
BITMAP
0300
1FE0
3FF0
7878
7038
0038
0038
00F8
1FF8
7FF8
7838
E038
E038
E038
E078
7FFE
7FBE
1F1E
0000
0000
FFFC
FFFC
FFFC
ENDCHAR
STARTCHAR 00AB
ENCODING 171
SWIDTH 500 0
DWIDTH 25 0
BBX 17 16 4 6
BITMAP
020080
060180
1E0380
3E0F80
7C1F00
F83E00
E03C00
C03000
E03800
F03C00
F83F00
7E0F80
1E0780
0E0380
060080
020080
ENDCHAR
STARTCHAR 00AC
ENCODING 172
SWIDTH 580 0
DWIDTH 29 0
BBX 25 14 3 5
BITMAP
FFFFFF80
FFFFFF80
FFFFFF80
FFFFFF80
00000780
00000780
00000780
00000780
00000780
00000780
00000780
00000780
00000780
00000780
ENDCHAR
STARTCHAR 00AD
ENCODING 173
SWIDTH 340 0
DWIDTH 17 0
BBX 12 4 2 12
BITMAP
FFF0
FFF0
FFF0
FFF0
ENDCHAR
STARTCHAR 00AE
ENCODING 174
SWIDTH 800 0
DWIDTH 40 0
BBX 36 35 2 1
BITMAP
000FFF0000
003FFFC000
00FF07F000
01F000F800
03E0003C00
0780001E00
0F00000F00
1E3FFF0780
3C3FFFC3C0
383FFFC1C0
783C01E1E0
703C00E0E0
703C00E0E0
F03C00E0F0
E03C00E070
E03C01E070
E03C0FC070
E03FFF8070
E03FFF8070
E03C07C070
E03C01C070
F03C01E0F0
703C00E0E0
703C00E0E0
783C00E1E0
3C3C00E1C0
3C3C00E3C0
1E3C00F780
0F00000F00
0780001E00
03E0003C00
01F800F800
00FFFFF000
003FFFC000
000FFF0000
ENDCHAR
STARTCHAR 00AF
ENCODING 175
SWIDTH 340 0
DWIDTH 17 0
BBX 14 3 1 32
BITMAP
FFFC
FFFC
FFFC
ENDCHAR
STARTCHAR 00B0
ENCODING 176
SWIDTH 600 0
DWIDTH 30 0
BBX 15 15 8 19
BITMAP
07C0
1FF0
3FF8
787C
701C
E01E
E00E
E00E
E00E
E00E
701C
783C
3FF8
1FF0
07C0
ENDCHAR
STARTCHAR 00B1
ENCODING 177
SWIDTH 580 0
DWIDTH 29 0
BBX 24 31 3 0
BITMAP
003C00
003C00
003C00
003C00
003C00
003C00
003C00
003C00
003C00
003C00
003FFF
FFFFFF
FFFFFF
FFFFFF
003C00
003C00
003C00
003C00
003C00
003C00
003C00
003C00
003C00
003C00
003C00
000000
000000
FFFFFF
FFFFFF
FFFFFF
FFFFFF
ENDCHAR
STARTCHAR 00B2
ENCODING 178
SWIDTH 360 0
DWIDTH 18 0
BBX 15 21 1 20
BITMAP
0380
1FF0
3FFC
783C
F01E
E00E
E00E
000E
001E
003C
007C
01F0
07E0
1F80
3E00
7800
7000
F000
FFFE
FFFE
FFFE
ENDCHAR
STARTCHAR 00B3
ENCODING 179
SWIDTH 360 0
DWIDTH 18 0
BBX 15 22 1 19
BITMAP
0300
1FF0
7FF8
7878
F03C
E01C
E01C
001C
003C
07F8
07F0
07F8
003C
001E
000E
E00E
E00E
F01E
703C
7FFC
3FF8
0FE0
ENDCHAR
STARTCHAR 00B4
ENCODING 180
SWIDTH 340 0
DWIDTH 17 0
BBX 10 8 5 29
BITMAP
07C0
0F80
1F00
1E00
3C00
3800
7000
E000
ENDCHAR
STARTCHAR 00B5
ENCODING 181
SWIDTH 560 0
DWIDTH 28 0
BBX 24 36 3 -10
BITMAP
F00078
F00078
F00078
F00078
F00078
F00078
F00078
F00078
F00078
F00078
F00078
F00078
F00078
F00078
F00078
F00078
F00078
F00078
F000F8
F000F8
F801F8
F803F8
FC07F8
FFFFFF
FFFF7F
FFFC3F
F3F01F
F00000
F00000
F00000
F00000
F00000
F00000
F00000
F00000
F00000
ENDCHAR
STARTCHAR 00B6
ENCODING 182
SWIDTH 540 0
DWIDTH 27 0
BBX 22 45 3 -9
BITMAP
01FFFC
07FFFC
0FFFFC
1FF870
3FF870
3FF870
7FF870
7FF870
FFF870
FFF870
FFF870
FFF870
FFF870
FFF870
FFF870
FFF870
7FF870
7FF870
3FF870
3FF870
1FF870
0FF870
03F870
003870
003870
003870
003870
003870
003870
003870
003870
003870
003870
003870
003870
003870
003870
003870
003870
003870
003870
003870
003870
003870
003870
ENDCHAR
STARTCHAR 00B7
ENCODING 183
SWIDTH 260 0
DWIDTH 13 0
BBX 5 5 5 12
BITMAP
F8
F8
F8
F8
F8
ENDCHAR
STARTCHAR 00B8
ENCODING 184
SWIDTH 340 0
DWIDTH 17 0
BBX 12 11 3 -11
BITMAP
0600
0600
0600
0FC0
0FE0
01F0
00F0
80F0
E1E0
FFC0
1F80
ENDCHAR
STARTCHAR 00B9
ENCODING 185
SWIDTH 360 0
DWIDTH 18 0
BBX 7 21 4 19
BITMAP
06
06
0E
1E
FE
FE
0E
0E
0E
0E
0E
0E
0E
0E
0E
0E
0E
0E
0E
0E
0E
ENDCHAR
STARTCHAR 00BA
ENCODING 186
SWIDTH 360 0
DWIDTH 18 0
BBX 14 23 2 15
BITMAP
0300
1FE0
3FF0
7878
7038
F038
E01C
E01C
E01C
E01C
E01C
E01C
E03C
7038
7878
3FF0
1FE0
0FC0
0000
0000
7FF8
7FF8
7FF8
ENDCHAR
STARTCHAR 00BB
ENCODING 187
SWIDTH 500 0
DWIDTH 25 0
BBX 17 16 4 5
BITMAP
804000
803000
E03800
F03C00
F83F00
7E0F80
1E0780
0E0380
060180
1E0380
3E0F80
7C1F00
F83E00
E03C00
C03000
802000
ENDCHAR
STARTCHAR 00BC
ENCODING 188
SWIDTH 860 0
DWIDTH 43 0
BBX 38 37 4 -1
BITMAP
0600000E00
0600000C00
0E00001C00
1E00003800
FE00003800
FE00007000
0E0000E000
0E0000E000
0E0001C000
0E00018000
0E00038000
0E00070000
0E00070000
0E000E0000
0E001C0000
0E001C00E0
0E003800E0
0E003801E0
0E007003E0
0E00E007E0
0E00E006E0
0001C00EE0
0001801CE0
00038038E0
00070070E0
00070070E0
000E00E0E0
001C01C0E0
001C01FFFC
003801FFFC
003001FFFC
00700000E0
00E00000E0
00E00000E0
01C00000E0
03800000E0
0380000000
ENDCHAR
STARTCHAR 00BD
ENCODING 189
SWIDTH 860 0
DWIDTH 43 0
BBX 38 37 4 -1
BITMAP
0600001C00
0600003800
0E00007000
1E00007000
FE0000E000
FE0000E000
0E0001C000
0E00038000
0E00038000
0E00070000
0E000E0000
0E000E0000
0E001C0000
0E001C0000
0E00380700
0E00703FE0
0E00707FF0
0E00E0F078
0E00E1E03C
0E01C1C01C
000381C01C
000380001C
000700001C
000700003C
000E000078
001C0001F0
001C0007E0
0038001F80
0030003E00
0070007800
00E000F000
00E001E000
01C001C000
038001FFFC
038001FFFC
070001FFFC
0700000000
ENDCHAR
STARTCHAR 00BE
ENCODING 190
SWIDTH 880 0
DWIDTH 44 0
BBX 39 37 2 0
BITMAP
1FE0000380
7FF0000700
78F0000E00
F078000E00
E038001C00
E038001800
0038003800
0078007000
07F0007000
07E000E000
07F001C000
007801C000
003C038000
001C030000
001C070000
E01C0E0070
E01C0E0070
F03C1C00F0
78781801F0
7FF03803F0
3FE07003F0
0300600770
0000E00E70
0001C01C70
0001803870
0003803870
0003007070
000700E070
000E00FFFE
000C00FFFE
001C00FFFE
0038000070
0030000070
0070000070
0060000070
00E0000070
01C0000000
ENDCHAR
STARTCHAR 00BF
ENCODING 191
SWIDTH 560 0
DWIDTH 28 0
BBX 22 36 4 -10
BITMAP
007C00
007C00
007C00
007C00
007C00
000000
000000
000000
000000
000000
007C00
007C00
007C00
007C00
007C00
00F800
01F800
03F000
07E000
0FC000
1F8000
3F0000
7E0000
7C0000
780000
F8007C
F8007C
F8007C
F8007C
7C007C
7C00F8
7F01F8
3FFFF0
1FFFE0
0FFFC0
03FF80
ENDCHAR
STARTCHAR 00C0
ENCODING 192
SWIDTH 660 0
DWIDTH 33 0
BBX 31 45 1 0
BITMAP
003F0000
001F8000
0007C000
0003C000
0001E000
00007000
00000000
00000000
00000000
0007E000
000FE000
000FF000
001FF000
001FF000
001EF800
003EF800
003E7800
003C7C00
007C7C00
007C3C00
00783E00
00F83E00
00F81F00
00F01F00
01F01F00
01E00F80
03E00F80
03E00F80
03C007C0
07C007C0
07FFFFC0
07FFFFE0
0FFFFFE0
0FFFFFE0
0F0001F0
1F0001F0
1F0001F8
3E0000F8
3E0000F8
3E0000FC
7C00007C
7C00007C
7C00007E
F800003E
F800003E
ENDCHAR
STARTCHAR 00C1
ENCODING 193
SWIDTH 660 0
DWIDTH 33 0
BBX 31 45 1 0
BITMAP
00007E00
0000F800
0001F000
0003E000
00078000
000F0000
00000000
00000000
00000000
0007E000
000FE000
000FF000
001FF000
001FF000
001EF800
003EF800
003E7800
003C7C00
007C7C00
007C3C00
00783E00
00F83E00
00F81F00
00F01F00
01F01F00
01E00F80
03E00F80
03E00F80
03C007C0
07C007C0
07FFFFC0
07FFFFE0
0FFFFFE0
0FFFFFE0
0F0001F0
1F0001F0
1F0001F8
3E0000F8
3E0000F8
3E0000FC
7C00007C
7C00007C
7C00007E
F800003E
F800003E
ENDCHAR
STARTCHAR 00C2
ENCODING 194
SWIDTH 660 0
DWIDTH 33 0
BBX 31 45 1 0
BITMAP
0007E000
000FF000
000FF800
001E7800
003C3C00
00780E00
00000000
00000000
00000000
0007E000
000FE000
000FF000
001FF000
001FF000
001EF800
003EF800
003E7800
003C7C00
007C7C00
007C3C00
00783E00
00F83E00
00F81F00
00F01F00
01F01F00
01E00F80
03E00F80
03E00F80
03C007C0
07C007C0
07FFFFC0
07FFFFE0
0FFFFFE0
0FFFFFE0
0F0001F0
1F0001F0
1F0001F8
3E0000F8
3E0000F8
3E0000FC
7C00007C
7C00007C
7C00007E
F800003E
F800003E
ENDCHAR
STARTCHAR 00C3
ENCODING 195
SWIDTH 660 0
DWIDTH 33 0
BBX 31 45 1 0
BITMAP
001C0E00
007F0E00
007FFE00
00FFFC00
00E1FC00
00000000
00000000
00000000
00000000
0007E000
000FE000
000FF000
001FF000
001FF000
001EF800
003EF800
003E7800
003C7C00
007C7C00
007C3C00
00783E00
00F83E00
00F81F00
00F01F00
01F01F00
01E00F80
03E00F80
03E00F80
03C007C0
07C007C0
07FFFFC0
07FFFFE0
0FFFFFE0
0FFFFFE0
0F0001F0
1F0001F0
1F0001F8
3E0000F8
3E0000F8
3E0000FC
7C00007C
7C00007C
7C00007E
F800003E
F800003E
ENDCHAR
STARTCHAR 00C4
ENCODING 196
SWIDTH 660 0
DWIDTH 33 0
BBX 31 44 1 0
BITMAP
003E3E00
003E3E00
003E3E00
003E3E00
003E3E00
00000000
00000000
00000000
0007E000
000FE000
000FF000
001FF000
001FF000
001EF800
003EF800
003E7800
003C7C00
007C7C00
007C3C00
00783E00
00F83E00
00F01F00
01F01F00
01F01F00
01E00F80
03E00F80
03E00F80
03C007C0
07C007C0
07FFFFC0
07FFFFE0
0FFFFFE0
0FFFFFE0
0F0001F0
1F0001F0
1F0001F8
3E0000F8
3E0000F8
3E0000FC
7C00007C
7C00007C
7C00007E
F800003E
F800003E
ENDCHAR
STARTCHAR 00C5
ENCODING 197
SWIDTH 660 0
DWIDTH 33 0
BBX 31 49 1 0
BITMAP
00038000
000FE000
001FF000
001E7800
001C3800
003C3800
003C3800
001C3800
001FF800
000FF000
0007E000
00000000
00000000
0007E000
000FE000
000FF000
001FF000
001FF000
001EF800
003EF800
003E7800
003C7C00
007C7C00
007C3C00
00783E00
00F83E00
00F81F00
00F01F00
01F01F00
01E00F80
03E00F80
03E00F80
03C007C0
07C007C0
07FFFFC0
07FFFFE0
0FFFFFE0
0FFFFFE0
0F0001F0
1F0001F0
1F0001F8
3E0000F8
3E0000F8
3E0000FC
7C00007C
7C00007C
7C00007E
F800003E
F800003E
ENDCHAR
STARTCHAR 00C6
ENCODING 198
SWIDTH 980 0
DWIDTH 49 0
BBX 47 36 1 0
BITMAP
0001FFFFFFFC
0003FFFFFFFC
0003FFFFFFFC
0003FFFFFFFC
0007C1F00000
000781F00000
000F81F00000
000F81F00000
000F01F00000
001F01F00000
001E01F00000
003E01F00000
003E01F00000
007C01F00000
007C01F00000
007801F00000
00F801FFFFF8
00F801FFFFF8
01F001FFFFF8
01F001FFFFF8
01E001F00000
03FFFFF00000
03FFFFF00000
07FFFFF00000
07FFFFF00000
0F8001F00000
0F8001F00000
0F8001F00000
1F0001F00000
1F0001F00000
3E0001F00000
3E0001F00000
3E0001FFFFFE
7C0001FFFFFE
7C0001FFFFFE
FC0001FFFFFE
ENDCHAR
STARTCHAR 00C7
ENCODING 199
SWIDTH 700 0
DWIDTH 35 0
BBX 32 47 2 -10
BITMAP
003FFE00
00FFFF80
01FFFFC0
07FFFFE0
0FE007F0
0FC001F8
1F8000F8
3F00007C
3E00007C
3C00003C
7C00003E
7C000000
78000000
F8000000
F8000000
F8000000
F8000000
F8000000
F8000000
F8000000
F8000000
F8000000
F8000000
F800001F
7800001E
7C00003E
7C00003E
3E00003E
3E00007C
1F0000FC
1F8001F8
0FE003F8
07F81FF0
03FFFFE0
01FFFFC0
007FFF00
001FF800
00030000
00030000
0007E000
0007F000
0000F800
00007800
00007800
0070F000
007FE000
000FC000
ENDCHAR
STARTCHAR 00C8
ENCODING 200
SWIDTH 640 0
DWIDTH 32 0
BBX 26 45 4 0
BITMAP
00FC0000
007E0000
001F0000
000F0000
00078000
0001C000
00000000
00000000
00000000
FFFFFF80
FFFFFF80
FFFFFF80
FFFFFF80
F8000000
F8000000
F8000000
F8000000
F8000000
F8000000
F8000000
F8000000
F8000000
F8000000
F8000000
F8000000
FFFFFF00
FFFFFF00
FFFFFF00
FFFFFF00
F8000000
F8000000
F8000000
F8000000
F8000000
F8000000
F8000000
F8000000
F8000000
F8000000
F8000000
F8000000
FFFFFFC0
FFFFFFC0
FFFFFFC0
FFFFFFC0
ENDCHAR
STARTCHAR 00C9
ENCODING 201
SWIDTH 640 0
DWIDTH 32 0
BBX 26 45 4 0
BITMAP
0007E000
000F8000
001F0000
003E0000
00780000
00F00000
00000000
00000000
00000000
FFFFFF80
FFFFFF80
FFFFFF80
FFFFFF80
F8000000
F8000000
F8000000
F8000000
F8000000
F8000000
F8000000
F8000000
F8000000
F8000000
F8000000
F8000000
FFFFFF00
FFFFFF00
FFFFFF00
FFFFFF00
F8000000
F8000000
F8000000
F8000000
F8000000
F8000000
F8000000
F8000000
F8000000
F8000000
F8000000
F8000000
FFFFFFC0
FFFFFFC0
FFFFFFC0
FFFFFFC0
ENDCHAR
STARTCHAR 00CA
ENCODING 202
SWIDTH 640 0
DWIDTH 32 0
BBX 26 45 4 0
BITMAP
003F0000
007F8000
007FC000
00F3C000
01E1E000
03C07000
00000000
00000000
00000000
FFFFFF80
FFFFFF80
FFFFFF80
FFFFFF80
F8000000
F8000000
F8000000
F8000000
F8000000
F8000000
F8000000
F8000000
F8000000
F8000000
F8000000
F8000000
FFFFFF00
FFFFFF00
FFFFFF00
FFFFFF00
F8000000
F8000000
F8000000
F8000000
F8000000
F8000000
F8000000
F8000000
F8000000
F8000000
F8000000
F8000000
FFFFFFC0
FFFFFFC0
FFFFFFC0
FFFFFFC0
ENDCHAR
STARTCHAR 00CB
ENCODING 203
SWIDTH 640 0
DWIDTH 32 0
BBX 26 45 4 0
BITMAP
03F3F000
03F3F000
03F3F000
03F3F000
03F3F000
03F3F000
00000000
00000000
00000000
FFFFFF80
FFFFFF80
FFFFFF80
FFFFFF80
F8000000
F8000000
F8000000
F8000000
F8000000
F8000000
F8000000
F8000000
F8000000
F8000000
F8000000
F8000000
FFFFFF00
FFFFFF00
FFFFFF00
FFFFFF00
F8000000
F8000000
F8000000
F8000000
F8000000
F8000000
F8000000
F8000000
F8000000
F8000000
F8000000
F8000000
FFFFFFC0
FFFFFFC0
FFFFFFC0
FFFFFFC0
ENDCHAR
STARTCHAR 00CC
ENCODING 204
SWIDTH 280 0
DWIDTH 14 0
BBX 10 45 1 0
BITMAP
FC00
7E00
1F00
0F00
0780
01C0
0000
0000
0000
0F80
0F80
0F80
0F80
0F80
0F80
0F80
0F80
0F80
0F80
0F80
0F80
0F80
0F80
0F80
0F80
0F80
0F80
0F80
0F80
0F80
0F80
0F80
0F80
0F80
0F80
0F80
0F80
0F80
0F80
0F80
0F80
0F80
0F80
0F80
0F80
ENDCHAR
STARTCHAR 00CD
ENCODING 205
SWIDTH 280 0
DWIDTH 14 0
BBX 11 45 2 0
BITMAP
07E0
0F80
1F00
3E00
7800
F000
0000
0000
0000
1F00
1F00
1F00
1F00
1F00
1F00
1F00
1F00
1F00
1F00
1F00
1F00
1F00
1F00
1F00
1F00
1F00
1F00
1F00
1F00
1F00
1F00
1F00
1F00
1F00
1F00
1F00
1F00
1F00
1F00
1F00
1F00
1F00
1F00
1F00
1F00
ENDCHAR
STARTCHAR 00CE
ENCODING 206
SWIDTH 300 0
DWIDTH 15 0
BBX 14 45 1 0
BITMAP
0FC0
1FE0
1FF0
3CF0
7878
F01C
0000
0000
0000
0F80
0F80
0F80
0F80
0F80
0F80
0F80
0F80
0F80
0F80
0F80
0F80
0F80
0F80
0F80
0F80
0F80
0F80
0F80
0F80
0F80
0F80
0F80
0F80
0F80
0F80
0F80
0F80
0F80
0F80
0F80
0F80
0F80
0F80
0F80
0F80
ENDCHAR
STARTCHAR 00CF
ENCODING 207
SWIDTH 300 0
DWIDTH 15 0
BBX 13 45 1 0
BITMAP
F8F8
F8F8
F8F8
F8F8
F8F8
F8F8
0000
0000
0000
0F80
0F80
0F80
0F80
0F80
0F80
0F80
0F80
0F80
0F80
0F80
0F80
0F80
0F80
0F80
0F80
0F80
0F80
0F80
0F80
0F80
0F80
0F80
0F80
0F80
0F80
0F80
0F80
0F80
0F80
0F80
0F80
0F80
0F80
0F80
0F80
ENDCHAR
STARTCHAR 00D0
ENCODING 208
SWIDTH 700 0
DWIDTH 35 0
BBX 33 36 1 0
BITMAP
1FFFFC0000
1FFFFF0000
1FFFFFC000
1FFFFFE000
1F000FF000
1F0001F800
1F0000FC00
1F00007C00
1F00003E00
1F00003E00
1F00001F00
1F00001F00
1F00001F00
1F00000F00
1F00000F00
1F00000F80
FFFF000F80
FFFF000F80
FFFF000F80
1F00000F80
1F00000F80
1F00000F00
1F00000F00
1F00001F00
1F00001F00
1F00001F00
1F00003E00
1F00003E00
1F00007C00
1F0000FC00
1F0001F800
1F000FF000
1FFFFFE000
1FFFFFC000
1FFFFF0000
1FFFFC0000
ENDCHAR
STARTCHAR 00D1
ENCODING 209
SWIDTH 740 0
DWIDTH 37 0
BBX 29 44 4 0
BITMAP
00701C00
01FE3800
01FFF800
03DFF800
0383F000
00000000
00000000
00000000
FC0000F8
FC0000F8
FE0000F8
FF0000F8
FF0000F8
FF8000F8
FF8000F8
FFC000F8
FBE000F8
FBE000F8
F9F000F8
F8F800F8
F8F800F8
F87C00F8
F83E00F8
F83E00F8
F81F00F8
F81F00F8
F80F80F8
F807C0F8
F807C0F8
F803E0F8
F801F0F8
F801F0F8
F800F8F8
F80078F8
F8007CF8
F8003EF8
F8003EF8
F8001FF8
F8000FF8
F8000FF8
F80007F8
F80003F8
F80003F8
F80001F8
ENDCHAR
STARTCHAR 00D2
ENCODING 210
SWIDTH 780 0
DWIDTH 39 0
BBX 36 46 2 -1
BITMAP
000FC00000
0007E00000
0001F00000
0000F00000
0000780000
00001C0000
0000000000
0000000000
0000000000
001FFF0000
007FFFE000
01FFFFF000
03FFFFF800
07F801FE00
0FE0007E00
1F80003F00
1F00001F80
3F00000F80
3E000007C0
7C000007C0
7C000003E0
78000003E0
F8000003E0
F8000001E0
F8000001E0
F8000001F0
F8000001F0
F8000001F0
F8000001F0
F8000001F0
F8000001E0
F8000001E0
78000003E0
7C000003E0
7C000003E0
7E000007C0
3E00000FC0
3F00000F80
1F80001F80
0FC0003F00
07F000FE00
03FC07FC00
01FFFFF800
00FFFFE000
003FFFC000
0007FC0000
ENDCHAR
STARTCHAR 00D3
ENCODING 211
SWIDTH 780 0
DWIDTH 39 0
BBX 36 46 2 -1
BITMAP
00001F8000
00003E0000
00007C0000
0000F80000
0001E00000
0003C00000
0000000000
0000000000
0000000000
001FFF0000
007FFFE000
01FFFFF000
03FFFFF800
07F801FE00
0FE0007E00
1F80003F00
1F00001F80
3F00000F80
3E000007C0
7C000007C0
7C000003E0
78000003E0
F8000003E0
F8000001E0
F8000001E0
F8000001F0
F8000001F0
F8000001F0
F8000001F0
F8000001F0
F8000001E0
F8000001E0
78000003E0
7C000003E0
7C000003E0
7E000007C0
3E00000FC0
3F00000F80
1F80001F80
0FC0003F00
07F000FE00
03FC07FC00
01FFFFF800
00FFFFE000
003FFFC000
0007FC0000
ENDCHAR
STARTCHAR 00D4
ENCODING 212
SWIDTH 780 0
DWIDTH 39 0
BBX 36 46 2 -1
BITMAP
0001F80000
0003FC0000
0003FE0000
00079E0000
000F0F0000
001E038000
0000000000
0000000000
0000000000
001FFF0000
007FFFE000
01FFFFF000
03FFFFF800
07F801FE00
0FE0007E00
1F80003F00
1F00001F80
3F00000F80
3E000007C0
7C000007C0
7C000003E0
78000003E0
F8000003E0
F8000001E0
F8000001E0
F8000001F0
F8000001F0
F8000001F0
F8000001F0
F8000001F0
F8000001E0
F8000001E0
78000003E0
7C000003E0
7C000003E0
7E000007C0
3E00000FC0
3F00000F80
1F80001F80
0FC0003F00
07F000FE00
03FC07FC00
01FFFFF800
00FFFFE000
003FFFC000
0007FC0000
ENDCHAR
STARTCHAR 00D5
ENCODING 213
SWIDTH 780 0
DWIDTH 39 0
BBX 36 46 2 -1
BITMAP
0004038000
001F838000
003FFF8000
003FFF0000
0038FF0000
00701C0000
0000000000
0000000000
0000000000
001FFF0000
007FFFE000
01FFFFF000
03FFFFF800
07F801FE00
0FE0007E00
1F80003F00
1F00001F80
3F00000F80
3E000007C0
7C000007C0
7C000003E0
78000003E0
F8000003E0
F8000001E0
F8000001E0
F8000001F0
F8000001F0
F8000001F0
F8000001F0
F8000001F0
F8000001E0
F8000001E0
78000003E0
7C000003E0
7C000003E0
7E000007C0
3E00000FC0
3F00000F80
1F80001F80
0FC0003F00
07F000FE00
03FC07FC00
01FFFFF800
00FFFFE000
003FFFC000
0007FC0000
ENDCHAR
STARTCHAR 00D6
ENCODING 214
SWIDTH 780 0
DWIDTH 39 0
BBX 36 46 2 -1
BITMAP
001F9F8000
001F9F8000
001F9F8000
001F9F8000
001F9F8000
001F9F8000
0000000000
0000000000
0000000000
001FFF0000
007FFFE000
01FFFFF000
03FFFFF800
07F801FE00
0FE0007E00
1F80003F00
1F00001F80
3F00000F80
3E000007C0
7C000007C0
7C000003E0
78000003E0
F8000003E0
F8000001E0
F8000001E0
F8000001F0
F8000001F0
F8000001F0
F8000001F0
F8000001F0
F8000001E0
F8000001E0
78000003E0
7C000003E0
7C000003E0
7E000007C0
3E00000FC0
3F00000F80
1F80001F80
0FC0003F00
07F000FE00
03FC07FC00
01FFFFF800
00FFFFE000
003FFFC000
0007FC0000
ENDCHAR
STARTCHAR 00D7
ENCODING 215
SWIDTH 580 0
DWIDTH 29 0
BBX 19 19 5 2
BITMAP
6000C0
F001E0
F803E0
7C07C0
3E0F80
1F1F00
0FBE00
07FC00
03F800
01F000
03F800
07FC00
0FBE00
1F1F00
3E0F80
7C07C0
F803E0
F001E0
6000C0
ENDCHAR
STARTCHAR 00D8
ENCODING 216
SWIDTH 780 0
DWIDTH 39 0
BBX 36 38 2 -1
BITMAP
0000000060
001FFF00F0
007FFFC1E0
01FFFFF3C0
03FFFFFB80
07F801FF00
0FE0007F00
1F80003F00
1F00003F80
3F00007F80
3E0000F7C0
7C0001E7C0
7C0003C3E0
7C000783E0
F8000F03E0
F8001E01E0
F8003C01E0
F8007801F0
F800F001F0
F801E001F0
F803C001F0
F8078001F0
F80F0001E0
F81E0001E0
781C0003E0
7C380003E0
7C700003E0
3EE00007C0
3FC0000FC0
3F80000F80
1F80001F80
0FC0003F00
1FF000FE00
3FFC07FC00
79FFFFF800
F0FFFFE000
E03FFFC000
4007FC0000
ENDCHAR
STARTCHAR 00D9
ENCODING 217
SWIDTH 720 0
DWIDTH 36 0
BBX 28 46 4 -1
BITMAP
007E0000
003F0000
000F8000
00078000
0003C000
0000E000
00000000
00000000
00000000
F80001F0
F80001F0
F80001F0
F80001F0
F80001F0
F80001F0
F80001F0
F80001F0
F80001F0
F80001F0
F80001F0
F80001F0
F80001F0
F80001F0
F80001F0
F80001F0
F80001F0
F80001F0
F80001F0
F80001F0
F80001F0
F80001F0
F80001F0
F80001F0
F80001F0
F80001F0
F80001F0
F80001E0
F80003E0
7C0003E0
7E0007E0
3F000FC0
3FE07F80
1FFFFF00
0FFFFE00
03FFF800
007FC000
ENDCHAR
STARTCHAR 00DA
ENCODING 218
SWIDTH 720 0
DWIDTH 36 0
BBX 28 46 4 -1
BITMAP
0001F800
0003E000
0007C000
000F8000
001E0000
003C0000
00000000
00000000
00000000
F80001F0
F80001F0
F80001F0
F80001F0
F80001F0
F80001F0
F80001F0
F80001F0
F80001F0
F80001F0
F80001F0
F80001F0
F80001F0
F80001F0
F80001F0
F80001F0
F80001F0
F80001F0
F80001F0
F80001F0
F80001F0
F80001F0
F80001F0
F80001F0
F80001F0
F80001F0
F80001F0
F80001E0
F80003E0
7C0003E0
7E0007E0
3F000FC0
3FE07F80
1FFFFF00
0FFFFE00
03FFF800
007FC000
ENDCHAR
STARTCHAR 00DB
ENCODING 219
SWIDTH 720 0
DWIDTH 36 0
BBX 28 46 4 -1
BITMAP
001F8000
003FC000
003FE000
0079E000
00F0F000
01E03800
00000000
00000000
00000000
F80001F0
F80001F0
F80001F0
F80001F0
F80001F0
F80001F0
F80001F0
F80001F0
F80001F0
F80001F0
F80001F0
F80001F0
F80001F0
F80001F0
F80001F0
F80001F0
F80001F0
F80001F0
F80001F0
F80001F0
F80001F0
F80001F0
F80001F0
F80001F0
F80001F0
F80001F0
F80001F0
F80001E0
F80003E0
7C0003E0
7E0007E0
3F000FC0
3FE07F80
1FFFFF00
0FFFFE00
03FFF800
007FC000
ENDCHAR
STARTCHAR 00DC
ENCODING 220
SWIDTH 720 0
DWIDTH 36 0
BBX 28 45 4 -1
BITMAP
00F8F800
00F8F800
00F8F800
00F8F800
00F8F800
00000000
00000000
00000000
F80001F0
F80001F0
F80001F0
F80001F0
F80001F0
F80001F0
F80001F0
F80001F0
F80001F0
F80001F0
F80001F0
F80001F0
F80001F0
F80001F0
F80001F0
F80001F0
F80001F0
F80001F0
F80001F0
F80001F0
F80001F0
F80001F0
F80001F0
F80001F0
F80001F0
F80001F0
F80001F0
F80001E0
F80003E0
7C0003E0
7E0007E0
3F000FC0
3FE07F80
1FFFFF00
0FFFFE00
03FFF800
007FC000
ENDCHAR
STARTCHAR 00DD
ENCODING 221
SWIDTH 680 0
DWIDTH 34 0
BBX 32 45 1 0
BITMAP
00007E00
0000F800
0001F000
0003E000
00078000
000F0000
00000000
00000000
00000000
FC00003F
7E00003E
3E00007E
3F00007C
1F0000FC
1F8000F8
0FC001F0
07C003F0
07E003E0
03F007C0
01F007C0
01F80F80
00F81F80
007C1F00
007E3E00
003E3E00
001F7C00
001FF800
000FF800
000FF000
0007F000
0003E000
0003E000
0003E000
0003E000
0003E000
0003E000
0003E000
0003E000
0003E000
0003E000
0003E000
0003E000
0003E000
0003E000
0003E000
ENDCHAR
STARTCHAR 00DE
ENCODING 222
SWIDTH 640 0
DWIDTH 32 0
BBX 26 36 4 0
BITMAP
F8000000
F8000000
F8000000
F8000000
F8000000
F8000000
FFFFE000
FFFFF800
FFFFFC00
FFFFFE00
F8007F00
F8001F80
F8000F80
F8000F80
F8000780
F80007C0
F80007C0
F80007C0
F80007C0
F8000F80
F8000F80
F8001F80
F8007F00
FFFFFE00
FFFFFE00
FFFFF800
FFFFE000
F8000000
F8000000
F8000000
F8000000
F8000000
F8000000
F8000000
F8000000
F8000000
ENDCHAR
STARTCHAR 00DF
ENCODING 223
SWIDTH 600 0
DWIDTH 30 0
BBX 24 38 4 -1
BITMAP
01FE00
0FFF80
1FFFE0
3FFFF0
7F03F0
7C01F8
FC00F8
F8007C
F8007C
F8007C
F8007C
F80078
F800F8
F800F8
F803F0
F83FE0
F83FC0
F83FE0
F83FF8
F803FC
F8007C
F8003E
F8003E
F8001E
F8001F
F8001F
F8001F
F8001F
F8001E
F8003E
F8003E
F8007C
F800FC
F883F8
F8FFF8
F8FFE0
F8FFC0
007F00
ENDCHAR
STARTCHAR 00E0
ENCODING 224
SWIDTH 540 0
DWIDTH 27 0
BBX 24 38 2 -1
BITMAP
0FC000
07E000
03E000
01F000
00F800
007800
003C00
001E00
000000
000000
01FF00
07FFC0
1FFFE0
3FFFF0
3F83F8
7E00F8
7C0078
7C0078
000078
000078
0000F8
0003F8
00FFF8
0FFFF8
3FFF78
7FE078
7E0078
FC0078
F80078
F80078
F80078
F800F8
F801F8
7C03F8
7FFFFF
3FFF7F
1FFC3F
07F01F
ENDCHAR
STARTCHAR 00E1
ENCODING 225
SWIDTH 540 0
DWIDTH 27 0
BBX 24 38 2 -1
BITMAP
000FC0
000F80
001F00
003E00
003C00
007800
00F000
00E000
000000
000000
01FF00
07FFC0
1FFFE0
3FFFF0
3F83F8
7E00F8
7C0078
7C0078
000078
000078
0000F8
0003F8
00FFF8
0FFFF8
3FFF78
7FE078
7E0078
FC0078
F80078
F80078
F80078
F800F8
F801F8
7C03F8
7FFFFF
3FFF7F
1FFC3F
07F01F
ENDCHAR
STARTCHAR 00E2
ENCODING 226
SWIDTH 540 0
DWIDTH 27 0
BBX 24 37 2 -1
BITMAP
007C00
007E00
00FF00
01EF00
01C780
03C3C0
0781C0
0700E0
000000
01FF00
07FFC0
1FFFE0
3FFFF0
3F83F8
7E00F8
7C0078
7C0078
000078
000078
0000F8
0003F8
00FFF8
0FFFF8
3FFF78
7FE078
7E0078
FC0078
F80078
F80078
F80078
F800F8
F801F8
7C03F8
7FFFFF
3FFF7F
1FFC3F
07F01F
ENDCHAR
STARTCHAR 00E3
ENCODING 227
SWIDTH 540 0
DWIDTH 27 0
BBX 24 37 2 -1
BITMAP
03C0E0
07F0E0
07FFE0
0F7FC0
0E0F80
000000
000000
000000
000000
01FF00
07FFC0
1FFFE0
3FFFF0
3F83F8
7E00F8
7C0078
7C0078
000078
000078
0000F8
0003F8
00FFF8
0FFFF8
3FFF78
7FE078
7E0078
FC0078
F80078
F80078
F80078
F800F8
F801F8
7C03F8
7FFFFF
3FFF7F
1FFC3F
07F01F
ENDCHAR
STARTCHAR 00E4
ENCODING 228
SWIDTH 540 0
DWIDTH 27 0
BBX 24 38 2 -1
BITMAP
03E3E0
03E3E0
03E3E0
03E3E0
03E3E0
000000
000000
000000
000000
000000
01FF00
07FFC0
1FFFE0
3FFFF0
3F83F8
7E00F8
7C0078
7C0078
000078
000078
0000F8
0003F8
00FFF8
0FFFF8
3FFF78
7FE078
7E0078
FC0078
F80078
F80078
F80078
F800F8
F801F8
7C03F8
7FFFFF
3FFF7F
1FFC3F
07F01F
ENDCHAR
STARTCHAR 00E5
ENCODING 229
SWIDTH 540 0
DWIDTH 27 0
BBX 24 40 2 -1
BITMAP
007C00
00FF00
01FF80
01E780
03C380
03C3C0
03C380
01E780
01FF80
00FF00
003C00
000000
01FF00
07FFC0
1FFFE0
3FFFF0
3F83F8
7E00F8
7C0078
7C0078
000078
000078
0000F8
0003F8
00FFF8
0FFFF8
3FFF78
7FE078
7E0078
FC0078
F80078
F80078
F80078
F800F8
F801F8
7C03F8
7FFFFF
3FFF7F
1FFC3F
07F01F
ENDCHAR
STARTCHAR 00E6
ENCODING 230
SWIDTH 880 0
DWIDTH 44 0
BBX 41 28 2 -1
BITMAP
01FE007F0000
07FF81FFE000
1FFFE3FFF000
3FFFE7FFF800
3F83FFC1FC00
7E00FF007E00
7C007E003E00
7C007C001F00
00007C001F00
000078000F00
0000F8000F00
0007F8000F00
01FFFFFFFF80
0FFFFFFFFF80
3FFE7FFFFF80
7F8078000000
7E0078000000
F80078000000
F80078000000
F8007C000F00
F800FC001F00
F800FE001E00
F801FF003E00
7C07DFC0FC00
7FFF8FFFFC00
3FFF07FFF800
1FFC01FFE000
07F0007F8000
ENDCHAR
STARTCHAR 00E7
ENCODING 231
SWIDTH 500 0
DWIDTH 25 0
BBX 23 38 2 -11
BITMAP
00FE00
03FFC0
0FFFE0
1FFFF0
1F83F8
3E00F8
7E007C
7C007C
7C003C
F80000
F80000
F80000
F80000
F80000
F80000
F80000
F80000
F80000
F8003E
78003C
7C007C
7C007C
3E00F8
3F83F8
1FFFF0
0FFFE0
03FFC0
00FE00
006000
006000
007C00
00FE00
000F00
000F00
040F00
071E00
0FFE00
01F800
ENDCHAR
STARTCHAR 00E8
ENCODING 232
SWIDTH 540 0
DWIDTH 27 0
BBX 24 38 2 -1
BITMAP
07C000
03E000
01E000
00F000
007800
003800
001C00
000E00
000000
000000
00FF00
03FFC0
07FFF0
0FFFF8
1FC3F8
3F00FC
3E007C
7C003E
78003E
F8001E
F8001E
F8001E
FFFFFF
FFFFFF
FFFFFF
F80000
F80000
F80000
F80000
7C003E
7C003E
7E007C
3F00FC
1FC1F8
1FFFF8
0FFFE0
03FFC0
00FF00
ENDCHAR
STARTCHAR 00E9
ENCODING 233
SWIDTH 540 0
DWIDTH 27 0
BBX 24 38 2 -1
BITMAP
0007E0
000FC0
000F80
001F00
003E00
003C00
007800
007000
000000
000000
00FF00
03FFC0
07FFF0
0FFFF8
1FC3F8
3F00FC
3E007C
7C003E
78003E
F8001E
F8001E
F8001E
FFFFFF
FFFFFF
FFFFFF
F80000
F80000
F80000
F80000
7C003E
7C003E
7E007C
3F00FC
1FC1F8
1FFFF8
0FFFE0
03FFC0
00FF00
ENDCHAR
STARTCHAR 00EA
ENCODING 234
SWIDTH 540 0
DWIDTH 27 0
BBX 24 37 2 -1
BITMAP
007C00
007E00
00FF00
01EF00
01E780
03C3C0
0781C0
0700E0
000000
00FF00
03FFC0
07FFF0
0FFFF8
1FC3F8
3F00FC
3E007C
7C003E
78003E
F8001E
F8001E
F8001E
FFFFFF
FFFFFF
FFFFFF
F80000
F80000
F80000
F80000
7C003E
7C003E
7E007C
3F00FC
1FC1F8
1FFFF8
0FFFE0
03FFC0
00FF00
ENDCHAR
STARTCHAR 00EB
ENCODING 235
SWIDTH 540 0
DWIDTH 27 0
BBX 24 38 2 -1
BITMAP
07E7E0
07E7E0
07E7E0
07E7E0
07E7E0
000000
000000
000000
000000
000000
00FF00
03FFC0
07FFF0
0FFFF8
1FC3F8
3F00FC
3E007C
7C003E
78003E
F8001E
F8001E
F8001E
FFFFFF
FFFFFF
FFFFFF
F80000
F80000
F80000
F80000
7C003E
7C003E
7E007C
3F00FC
1FC1F8
1FFFF8
0FFFE0
03FFC0
00FF00
ENDCHAR
STARTCHAR 00EC
ENCODING 236
SWIDTH 220 0
DWIDTH 11 0
BBX 10 37 0 0
BITMAP
FC00
7C00
3E00
1F00
0F00
0780
0380
01C0
0000
0000
0000
0F00
0F00
0F00
0F00
0F00
0F00
0F00
0F00
0F00
0F00
0F00
0F00
0F00
0F00
0F00
0F00
0F00
0F00
0F00
0F00
0F00
0F00
0F00
0F00
0F00
0F00
ENDCHAR
STARTCHAR 00ED
ENCODING 237
SWIDTH 220 0
DWIDTH 11 0
BBX 11 37 1 0
BITMAP
07E0
0FC0
0F80
1E00
3C00
3800
7000
E000
0000
0000
0000
1E00
1E00
1E00
1E00
1E00
1E00
1E00
1E00
1E00
1E00
1E00
1E00
1E00
1E00
1E00
1E00
1E00
1E00
1E00
1E00
1E00
1E00
1E00
1E00
1E00
1E00
ENDCHAR
STARTCHAR 00EE
ENCODING 238
SWIDTH 260 0
DWIDTH 13 0
BBX 14 36 0 0
BITMAP
0F80
1FC0
1FC0
3DE0
78F0
7070
F038
E03C
0000
0000
0780
0780
0780
0780
0780
0780
0780
0780
0780
0780
0780
0780
0780
0780
0780
0780
0780
0780
0780
0780
0780
0780
0780
0780
0780
0780
ENDCHAR
STARTCHAR 00EF
ENCODING 239
SWIDTH 260 0
DWIDTH 13 0
BBX 13 37 0 0
BITMAP
F8F8
F8F8
F8F8
F8F8
F8F8
0000
0000
0000
0000
0000
0000
0780
0780
0780
0780
0780
0780
0780
0780
0780
0780
0780
0780
0780
0780
0780
0780
0780
0780
0780
0780
0780
0780
0780
0780
0780
0780
ENDCHAR
STARTCHAR 00F0
ENCODING 240
SWIDTH 540 0
DWIDTH 27 0
BBX 24 38 2 -1
BITMAP
040000
0F0300
1F8F80
07FF00
03FC00
03F800
0FFE00
1F3F00
0C1F80
000FC0
0007E0
03FFE0
07FFF0
0FFFF8
1FFFF8
3F01FC
7E00FC
7C007E
7C003E
F8003E
F8001E
F8001E
F8001F
F8001F
F8001F
F8001F
F8001F
F8001E
F8003E
7C003E
7C003E
7E007C
3F00FC
3FC3F8
1FFFF0
0FFFE0
03FFC0
00FF00
ENDCHAR
STARTCHAR 00F1
ENCODING 241
SWIDTH 540 0
DWIDTH 27 0
BBX 21 36 3 0
BITMAP
0381C0
0FE1C0
0FFFC0
1FFFC0
1C3F80
1C0000
000000
000000
000000
007F00
F1FFC0
F3FFE0
F7FFF0
FF01F8
FE00F8
FC0078
FC0078
F80078
F80078
F80078
F80078
F80078
F80078
F80078
F80078
F80078
F80078
F80078
F80078
F80078
F80078
F80078
F80078
F80078
F80078
F80078
ENDCHAR
STARTCHAR 00F2
ENCODING 242
SWIDTH 540 0
DWIDTH 27 0
BBX 24 38 2 -1
BITMAP
07C000
03E000
01F000
00F000
007800
003800
001C00
000E00
000000
000000
00FF00
03FFC0
0FFFE0
1FFFF0
1F83F8
3F00FC
7E007C
7C003E
7C003E
F8003E
F8001E
F8001E
F8001F
F8001F
F8001F
F8001F
F8001F
F8001E
F8003E
7C003E
7C003E
7E007C
3F00FC
1F83F8
1FFFF0
0FFFE0
03FFC0
00FF00
ENDCHAR
STARTCHAR 00F3
ENCODING 243
SWIDTH 540 0
DWIDTH 27 0
BBX 24 38 2 -1
BITMAP
0007C0
000F80
001F00
001E00
003C00
007800
007000
00E000
000000
000000
00FF00
03FFC0
0FFFE0
1FFFF0
1F83F8
3F00FC
7E007C
7C003E
7C003E
F8003E
F8001E
F8001E
F8001F
F8001F
F8001F
F8001F
F8001F
F8001E
F8003E
7C003E
7C003E
7E007C
3F00FC
1F83F8
1FFFF0
0FFFE0
03FFC0
00FF00
ENDCHAR
STARTCHAR 00F4
ENCODING 244
SWIDTH 540 0
DWIDTH 27 0
BBX 24 37 2 -1
BITMAP
00FC00
00FC00
01FE00
01EF00
03C700
078780
0703C0
0E01C0
000000
00FF00
03FFC0
0FFFE0
1FFFF0
1F83F8
3F00FC
7E007C
7C003E
7C003E
F8003E
F8001E
F8001E
F8001F
F8001F
F8001F
F8001F
F8001F
F8001E
F8003E
7C003E
7C003E
7E007C
3F00FC
1F83F8
1FFFF0
0FFFE0
03FFC0
00FF00
ENDCHAR
STARTCHAR 00F5
ENCODING 245
SWIDTH 540 0
DWIDTH 27 0
BBX 24 37 2 -1
BITMAP
03C0E0
07F0E0
0FFFE0
0FFFC0
0E1F80
000000
000000
000000
000000
00FF00
03FFC0
0FFFE0
1FFFF0
1F83F8
3F00FC
7E007C
7C003E
7C003E
F8003E
F8001E
F8001E
F8001F
F8001F
F8001F
F8001F
F8001F
F8001E
F8003E
7C003E
7C003E
7E007C
3F00FC
1F83F8
1FFFF0
0FFFE0
03FFC0
00FF00
ENDCHAR
STARTCHAR 00F6
ENCODING 246
SWIDTH 540 0
DWIDTH 27 0
BBX 24 38 2 -1
BITMAP
07C7C0
07C7C0
07C7C0
07C7C0
07C7C0
000000
000000
000000
000000
000000
00FF00
03FFC0
0FFFE0
1FFFF0
1F83F8
3F00FC
7E007C
7C003E
7C003E
F8003E
F8001E
F8001E
F8001F
F8001F
F8001F
F8001F
F8001F
F8001E
F8003E
7C003E
7C003E
7E007C
3F00FC
1F83F8
1FFFF0
0FFFE0
03FFC0
00FF00
ENDCHAR
STARTCHAR 00F7
ENCODING 247
SWIDTH 580 0
DWIDTH 29 0
BBX 24 23 3 0
BITMAP
007C00
007C00
007C00
007C00
007C00
000000
000000
000000
000000
FFFFFF
FFFFFF
FFFFFF
FFFFFF
000000
000000
000000
000000
000000
007C00
007C00
007C00
007C00
007C00
ENDCHAR
STARTCHAR 00F8
ENCODING 248
SWIDTH 540 0
DWIDTH 27 0
BBX 26 28 1 -1
BITMAP
00FF0100
03FFC1C0
07FFF380
1FFFFF00
1FC1FE00
3F007C00
7E003E00
7C007E00
7C00FF00
F801DF00
F8038F00
F8070F80
F80E0F80
F80C0F80
F81C0F80
F8380F80
F8700F80
F8E00F00
F9C01F00
7F801F00
7F003F00
3E003E00
3F007E00
3FC1FC00
7FFFF800
E7FFF000
C3FFE000
C07F0000
ENDCHAR
STARTCHAR 00F9
ENCODING 249
SWIDTH 540 0
DWIDTH 27 0
BBX 21 38 3 -1
BITMAP
1F8000
0F8000
07C000
03E000
01E000
00F000
007800
003800
000000
000000
000000
F00078
F00078
F00078
F00078
F00078
F00078
F00078
F00078
F00078
F00078
F00078
F00078
F00078
F00078
F00078
F00078
F00078
F00078
F000F8
F000F8
F801F8
F803F8
FC07F8
7FFF78
3FFE78
1FFC78
07F000
ENDCHAR
STARTCHAR 00FA
ENCODING 250
SWIDTH 540 0
DWIDTH 27 0
BBX 21 38 3 -1
BITMAP
0007C0
000F80
001F00
001E00
003C00
007800
007000
00E000
000000
000000
000000
F00078
F00078
F00078
F00078
F00078
F00078
F00078
F00078
F00078
F00078
F00078
F00078
F00078
F00078
F00078
F00078
F00078
F00078
F000F8
F000F8
F801F8
F803F8
FC07F8
7FFF78
3FFE78
1FFC78
07F000
ENDCHAR
STARTCHAR 00FB
ENCODING 251
SWIDTH 540 0
DWIDTH 27 0
BBX 21 37 3 -1
BITMAP
00F800
01FC00
03FC00
03DE00
078F00
070700
0E0380
1E03C0
000000
000000
F00078
F00078
F00078
F00078
F00078
F00078
F00078
F00078
F00078
F00078
F00078
F00078
F00078
F00078
F00078
F00078
F00078
F00078
F000F8
F000F8
F801F8
F803F8
FC07F8
7FFF78
3FFE78
1FFC78
07F000
ENDCHAR
STARTCHAR 00FC
ENCODING 252
SWIDTH 540 0
DWIDTH 27 0
BBX 21 38 3 -1
BITMAP
0F8F80
0F8F80
0F8F80
0F8F80
0F8F80
000000
000000
000000
000000
000000
000000
F00078
F00078
F00078
F00078
F00078
F00078
F00078
F00078
F00078
F00078
F00078
F00078
F00078
F00078
F00078
F00078
F00078
F00078
F000F8
F000F8
F801F8
F803F8
FC07F8
7FFF78
3FFE78
1FFC78
07F000
ENDCHAR
STARTCHAR 00FD
ENCODING 253
SWIDTH 480 0
DWIDTH 24 0
BBX 22 48 1 -11
BITMAP
0007E0
0007C0
000F80
001F00
001E00
003C00
007800
007000
000000
000000
000000
F0003C
F0007C
F80078
780078
7800F8
7C00F0
3C01F0
3C01F0
3E01E0
1E03E0
1E03C0
1F03C0
0F07C0
0F0780
0F8780
078F80
078F00
07CF00
03DF00
03DE00
03FE00
01FC00
01FC00
01FC00
00F800
00F800
00F800
00F000
01F000
01E000
01E000
03E000
07C000
7FC000
7F8000
7F0000
3C0000
ENDCHAR
STARTCHAR 00FE
ENCODING 254
SWIDTH 560 0
DWIDTH 28 0
BBX 24 45 3 -10
BITMAP
F00000
F00000
F00000
F00000
F00000
F00000
F00000
F00000
F07F00
F1FFC0
F3FFE0
F7FFF0
FF83F8
FE00FC
FC007C
FC007E
F8003E
F8003E
F8001E
F0001E
F0001F
F0001F
F0001F
F0001F
F0001F
F0001E
F8003E
F8003E
FC007E
FC007C
FE00FC
FF83F8
F7FFF0
F3FFE0
F1FFC0
F07F00
F00000
F00000
F00000
F00000
F00000
F00000
F00000
F00000
F00000
ENDCHAR
STARTCHAR 00FF
ENCODING 255
SWIDTH 480 0
DWIDTH 24 0
BBX 22 48 1 -11
BITMAP
07E7E0
07E7E0
07E7E0
07E7E0
07E7E0
000000
000000
000000
000000
000000
000000
F0003C
F0007C
F80078
780078
7800F8
7C00F0
3C01F0
3C01F0
3E01E0
1E03E0
1E03C0
1F03C0
0F07C0
0F0780
0F8780
078F80
078F00
07CF00
03DF00
03DE00
03FE00
01FC00
01FC00
01FC00
00F800
00F800
00F800
00F000
01F000
01E000
01E000
03E000
07C000
7FC000
7F8000
7F0000
3C0000
ENDCHAR
STARTCHAR 0100
ENCODING 256
SWIDTH 660 0
DWIDTH 33 0
BBX 31 43 1 0
BITMAP
007FFC00
007FFC00
007FFC00
00000000
00000000
00000000
00000000
0007E000
000FE000
000FF000
001FF000
001FF000
001EF800
003EF800
003E7800
003C7C00
007C7C00
007C3C00
00783E00
00F83E00
00F81F00
00F01F00
01F01F00
01E00F80
03E00F80
03E00F80
03C007C0
07C007C0
07FFFFC0
07FFFFE0
0FFFFFE0
0FFFFFE0
0F0001F0
1F0001F0
1F0001F8
3E0000F8
3E0000F8
3E0000FC
7C00007C
7C00007C
7C00007E
F800003E
F800003E
ENDCHAR
STARTCHAR 0101
ENCODING 257
SWIDTH 540 0
DWIDTH 27 0
BBX 24 35 2 -1
BITMAP
0FFFC0
0FFFC0
0FFFC0
0FFFC0
000000
000000
000000
01FF00
07FFC0
1FFFE0
3FFFF0
3F83F8
7E00F8
7C0078
7C0078
000078
000078
0000F8
0003F8
00FFF8
0FFFF8
3FFF78
7FE078
7E0078
FC0078
F80078
F80078
F80078
F800F8
F801F8
7C03F8
7FFFFF
3FFF7F
1FFC3F
07F01F
ENDCHAR
STARTCHAR 0102
ENCODING 258
SWIDTH 660 0
DWIDTH 33 0
BBX 31 44 1 0
BITMAP
00700E00
00781E00
007FFE00
003FFC00
001FF800
00018000
00000000
00000000
0007E000
000FE000
000FF000
001FF000
001FF000
001EF800
003EF800
003E7800
003C7C00
007C7C00
007C3C00
00783E00
00F83E00
00F81F00
00F01F00
01F01F00
01E00F80
03E00F80
03E00F80
03C007C0
07C007C0
07FFFFC0
07FFFFE0
0FFFFFE0
0FFFFFE0
0F0001F0
1F0001F0
1F0001F8
3E0000F8
3E0000F8
3E0000FC
7C00007C
7C00007C
7C00007E
F800003E
F800003E
ENDCHAR
STARTCHAR 0103
ENCODING 259
SWIDTH 540 0
DWIDTH 27 0
BBX 24 37 2 -1
BITMAP
0E00E0
0700E0
07C3E0
07FFC0
03FFC0
00FF00
000000
000000
000000
01FF00
07FFC0
1FFFE0
3FFFF0
3F83F8
7E00F8
7C0078
7C0078
000078
000078
0000F8
0003F8
00FFF8
0FFFF8
3FFF78
7FE078
7E0078
FC0078
F80078
F80078
F80078
F800F8
F801F8
7C03F8
7FFFFF
3FFF7F
1FFC3F
07F01F
ENDCHAR
STARTCHAR 0104
ENCODING 260
SWIDTH 660 0
DWIDTH 33 0
BBX 33 46 1 -10
BITMAP
000FE00000
000FE00000
000FF00000
001FF00000
001FF00000
001FF80000
003EF80000
003E780000
003C7C0000
007C7C0000
007C3C0000
00F83E0000
00F83E0000
00F81E0000
01F01F0000
01F01F0000
01E00F8000
03E00F8000
03E0078000
03C007C000
07C007C000
07FFFFC000
07FFFFE000
0FFFFFE000
0FFFFFE000
1F0001F000
1F0001F000
1F0001F000
3E0000F800
3E0000F800
3E0000FC00
7C00007C00
7C00007C00
7800007E00
F800003E00
F800003E00
0000001C00
0000007800
000000F000
000001E000
000001E000
000001E000
000001E000
000000F080
0000007F80
0000001F80
ENDCHAR
STARTCHAR 0105
ENCODING 261
SWIDTH 540 0
DWIDTH 27 0
BBX 27 37 2 -10
BITMAP
01FF0000
07FFE000
1FFFF000
3FFFF800
3F83F800
7E00F800
7C007C00
7C007C00
00007C00
00007C00
00007C00
0003FC00
00FFFC00
0FFFFC00
3FFF7C00
7FE07C00
7E007C00
FC007C00
F8007C00
F8007C00
F8007C00
F800FC00
F801FC00
7C07FC00
7FFFFF80
3FFF7F80
1FFC3F80
07F01F80
00001E00
00003C00
00007800
00007800
00007800
00007800
00003C20
00001FE0
000007E0
ENDCHAR
STARTCHAR 0106
ENCODING 262
SWIDTH 700 0
DWIDTH 35 0
BBX 32 46 2 -1
BITMAP
00007E00
0000F800
0001F000
0003E000
00078000
000F0000
00000000
00000000
00000000
001FFE00
00FFFF80
01FFFFC0
07FFFFE0
07F007F0
0FC001F8
1F8000F8
1F00007C
3E00007C
3E00003C
7C00003E
7C000000
78000000
F8000000
F8000000
F8000000
F8000000
F8000000
F8000000
F8000000
F8000000
F8000000
F8000000
F800001F
7800001E
7C00003E
7C00003E
3E00003E
3E00007C
1F0000FC
1F8000F8
0FE003F8
07F80FF0
03FFFFE0
01FFFFC0
007FFF00
000FF800
ENDCHAR
STARTCHAR 0107
ENCODING 263
SWIDTH 500 0
DWIDTH 25 0
BBX 23 38 2 -1
BITMAP
0007C0
000F80
001F00
001E00
003C00
007800
007000
00E000
000000
000000
00FE00
03FFC0
07FFE0
0FFFF0
1F83F8
3F00F8
3E007C
7C007C
7C003C
F80000
F80000
F80000
F80000
F80000
F80000
F80000
F80000
F80000
F8003E
7C003C
7C007C
7E007C
3F00F8
3F83F8
1FFFF0
0FFFE0
03FFC0
00FE00
ENDCHAR
STARTCHAR 0108
ENCODING 264
SWIDTH 700 0
DWIDTH 35 0
BBX 32 46 2 -1
BITMAP
0003F000
0007F800
0007FC00
000F3C00
001E1E00
003C0700
00000000
00000000
00000000
001FFE00
00FFFF80
01FFFFC0
07FFFFE0
07F007F0
0FC001F8
1F8000F8
1F00007C
3E00007C
3E00003C
7C00003E
7C000000
78000000
F8000000
F8000000
F8000000
F8000000
F8000000
F8000000
F8000000
F8000000
F8000000
F8000000
F800001F
7800001E
7C00003E
7C00003E
3E00003E
3E00007C
1F0000FC
1F8000F8
0FE003F8
07F80FF0
03FFFFE0
01FFFFC0
007FFF00
000FF800
ENDCHAR
STARTCHAR 0109
ENCODING 265
SWIDTH 500 0
DWIDTH 25 0
BBX 23 36 2 -1
BITMAP
007C00
00FC00
01FE00
01EF00
03CF00
078780
0703C0
0E01C0
00FE00
03FFC0
07FFE0
0FFFF0
1F83F8
3F00F8
3E007C
7C007C
7C003C
F80000
F80000
F80000
F80000
F80000
F80000
F80000
F80000
F80000
F8003E
7C003C
7C007C
7E007C
3F00F8
3F83F8
1FFFF0
0FFFE0
03FFC0
00FE00
ENDCHAR
STARTCHAR 010A
ENCODING 266
SWIDTH 700 0
DWIDTH 35 0
BBX 32 46 2 -1
BITMAP
0001F000
0001F000
0001F000
0001F000
0001F000
00000000
00000000
00000000
00000000
001FFE00
00FFFF80
01FFFFC0
07FFFFE0
07F007F0
0FC001F8
1F8000F8
1F00007C
3E00007C
3E00003C
7C00003E
7C000000
78000000
F8000000
F8000000
F8000000
F8000000
F8000000
F8000000
F8000000
F8000000
F8000000
F8000000
F800001F
7800001E
7C00003E
7C00003E
3E00003E
3E00007C
1F0000FC
1F8000F8
0FE003F8
07F80FF0
03FFFFE0
01FFFFC0
007FFF00
000FF800
ENDCHAR
STARTCHAR 010B
ENCODING 267
SWIDTH 500 0
DWIDTH 25 0
BBX 23 38 2 -1
BITMAP
007C00
007C00
007C00
007C00
007C00
000000
000000
000000
000000
000000
00FE00
03FFC0
07FFE0
0FFFF0
1F83F8
3F00F8
3E007C
7C007C
7C003C
F80000
F80000
F80000
F80000
F80000
F80000
F80000
F80000
F80000
F8003E
7C003C
7C007C
7E007C
3F00F8
3F83F8
1FFFF0
0FFFE0
03FFC0
00FE00
ENDCHAR
STARTCHAR 010C
ENCODING 268
SWIDTH 700 0
DWIDTH 35 0
BBX 32 46 2 -1
BITMAP
00380F00
001E1E00
000F3C00
000FF800
0007F800
0003F000
00000000
00000000
00000000
001FFE00
00FFFF80
01FFFFC0
07FFFFE0
07F007F0
0FC001F8
1F8000F8
1F00007C
3E00007C
3E00003C
7C00003E
7C000000
78000000
F8000000
F8000000
F8000000
F8000000
F8000000
F8000000
F8000000
F8000000
F8000000
F8000000
F800001F
7800001E
7C00003E
7C00003E
3E00003E
3E00007C
1F0000FC
1F8000F8
0FE003F8
07F80FF0
03FFFFE0
01FFFFC0
007FFF00
000FF800
ENDCHAR
STARTCHAR 010D
ENCODING 269
SWIDTH 500 0
DWIDTH 25 0
BBX 23 37 2 -1
BITMAP
0F01C0
0783C0
038780
03CF00
01EF00
00FE00
00FC00
000000
000000
00FE00
03FFC0
07FFE0
0FFFF0
1F83F8
3F00F8
3E007C
7C007C
7C003C
F80000
F80000
F80000
F80000
F80000
F80000
F80000
F80000
F80000
F8003E
7C003C
7C007C
7E007C
3F00F8
3F83F8
1FFFF0
0FFFE0
03FFC0
00FE00
ENDCHAR
STARTCHAR 010E
ENCODING 270
SWIDTH 700 0
DWIDTH 35 0
BBX 29 45 4 0
BITMAP
0380F000
01E1E000
00F3C000
00FF8000
007F8000
003F0000
00000000
00000000
00000000
FFFFC000
FFFFF800
FFFFFC00
FFFFFE00
F800FF00
F8001F80
F8000FC0
F80007C0
F80003E0
F80003E0
F80001F0
F80001F0
F80001F0
F80000F0
F80000F0
F80000F8
F80000F8
F80000F8
F80000F8
F80000F8
F80000F8
F80000F0
F80000F0
F80001F0
F80001F0
F80001F0
F80003E0
F80003E0
F80007C0
F8000FC0
F8001F80
F800FF00
FFFFFE00
FFFFFC00
FFFFF800
FFFFC000
ENDCHAR
STARTCHAR 010F
ENCODING 271
SWIDTH 740 0
DWIDTH 37 0
BBX 34 38 2 -1
BITMAP
00000007C0
00001E07C0
00001E0F80
00001E0F00
00001E0E00
00001E1C00
00001E1C00
00001E3800
00001E0000
00001E0000
00FC1E0000
03FF1E0000
0FFFDE0000
1FFFDE0000
3FC3FE0000
3F00FE0000
7E007E0000
7C007E0000
7C003E0000
F8003E0000
F8001E0000
F8001E0000
F8001E0000
F8001E0000
F8001E0000
F8001E0000
F8001E0000
F8001E0000
F8003E0000
7C003E0000
7C003E0000
7E007E0000
3F00FE0000
3FC3FE0000
1FFFDE0000
0FFF9E0000
03FF1E0000
00FC000000
ENDCHAR
STARTCHAR 0110
ENCODING 272
SWIDTH 700 0
DWIDTH 35 0
BBX 33 36 1 0
BITMAP
1FFFFC0000
1FFFFF0000
1FFFFFC000
1FFFFFE000
1F000FF000
1F0001F800
1F0000FC00
1F00007C00
1F00003E00
1F00003E00
1F00001F00
1F00001F00
1F00001F00
1F00000F00
1F00000F00
1F00000F80
FFFF000F80
FFFF000F80
FFFF000F80
1F00000F80
1F00000F80
1F00000F00
1F00000F00
1F00001F00
1F00001F00
1F00001F00
1F00003E00
1F00003E00
1F00007C00
1F0000FC00
1F0001F800
1F000FF000
1FFFFFE000
1FFFFFC000
1FFFFF0000
1FFFFC0000
ENDCHAR
STARTCHAR 0111
ENCODING 273
SWIDTH 580 0
DWIDTH 29 0
BBX 26 37 2 -1
BITMAP
00001E00
00001E00
00001E00
000FFFC0
000FFFC0
000FFFC0
00001E00
00001E00
00001E00
00FC1E00
03FF1E00
0FFFDE00
1FFFFE00
3FC3FE00
3F00FE00
7E007E00
7C003E00
7C003E00
F8003E00
F8001E00
F8001E00
F8001E00
F8001E00
F8001E00
F8001E00
F8001E00
F8001E00
F8003E00
7C003E00
7C003E00
7E007E00
3F00FE00
1FC3FE00
1FFFFE00
0FFFDE00
03FF1E00
00FC0000
ENDCHAR
STARTCHAR 0112
ENCODING 274
SWIDTH 640 0
DWIDTH 32 0
BBX 26 43 4 0
BITMAP
03FFF000
03FFF000
03FFF000
00000000
00000000
00000000
00000000
FFFFFF80
FFFFFF80
FFFFFF80
FFFFFF80
F8000000
F8000000
F8000000
F8000000
F8000000
F8000000
F8000000
F8000000
F8000000
F8000000
F8000000
F8000000
FFFFFF00
FFFFFF00
FFFFFF00
FFFFFF00
F8000000
F8000000
F8000000
F8000000
F8000000
F8000000
F8000000
F8000000
F8000000
F8000000
F8000000
F8000000
FFFFFFC0
FFFFFFC0
FFFFFFC0
FFFFFFC0
ENDCHAR
STARTCHAR 0113
ENCODING 275
SWIDTH 540 0
DWIDTH 27 0
BBX 24 35 2 -1
BITMAP
07FFC0
07FFC0
07FFC0
07FFC0
000000
000000
000000
00FF00
03FFC0
07FFF0
0FFFF8
1FC3F8
3F00FC
3E007C
7C003E
78003E
F8001E
F8001E
F8001E
FFFFFF
FFFFFF
FFFFFF
F80000
F80000
F80000
F80000
7C003E
7C003E
7E007C
3F00FC
1FC1F8
1FFFF8
0FFFE0
03FFC0
00FF00
ENDCHAR
STARTCHAR 0114
ENCODING 276
SWIDTH 640 0
DWIDTH 32 0
BBX 26 44 4 0
BITMAP
03803800
03C0F000
01FFF000
01FFE000
00FFC000
00040000
00000000
00000000
FFFFFF80
FFFFFF80
FFFFFF80
FFFFFF80
F8000000
F8000000
F8000000
F8000000
F8000000
F8000000
F8000000
F8000000
F8000000
F8000000
F8000000
F8000000
FFFFFF00
FFFFFF00
FFFFFF00
FFFFFF00
F8000000
F8000000
F8000000
F8000000
F8000000
F8000000
F8000000
F8000000
F8000000
F8000000
F8000000
F8000000
FFFFFFC0
FFFFFFC0
FFFFFFC0
FFFFFFC0
ENDCHAR
STARTCHAR 0115
ENCODING 277
SWIDTH 540 0
DWIDTH 27 0
BBX 24 37 2 -1
BITMAP
070070
0700E0
07C3E0
03FFE0
01FFC0
00FF00
000000
000000
000000
00FF00
03FFC0
07FFF0
0FFFF8
1FC3F8
3F00FC
3E007C
7C003E
78003E
F8001E
F8001E
F8001E
FFFFFF
FFFFFF
FFFFFF
F80000
F80000
F80000
F80000
7C003E
7C003E
7E007C
3F00FC
1FC1F8
1FFFF8
0FFFE0
03FFC0
00FF00
ENDCHAR
STARTCHAR 0116
ENCODING 278
SWIDTH 640 0
DWIDTH 32 0
BBX 26 45 4 0
BITMAP
001F0000
001F0000
001F0000
001F0000
001F0000
00000000
00000000
00000000
00000000
FFFFFF80
FFFFFF80
FFFFFF80
FFFFFF80
F8000000
F8000000
F8000000
F8000000
F8000000
F8000000
F8000000
F8000000
F8000000
F8000000
F8000000
F8000000
FFFFFF00
FFFFFF00
FFFFFF00
FFFFFF00
F8000000
F8000000
F8000000
F8000000
F8000000
F8000000
F8000000
F8000000
F8000000
F8000000
F8000000
F8000000
FFFFFFC0
FFFFFFC0
FFFFFFC0
FFFFFFC0
ENDCHAR
STARTCHAR 0117
ENCODING 279
SWIDTH 540 0
DWIDTH 27 0
BBX 24 38 2 -1
BITMAP
003E00
003E00
003E00
003E00
003E00
000000
000000
000000
000000
000000
00FF00
03FFC0
07FFF0
0FFFF8
1FC3F8
3F00FC
3E007C
7C003E
78003E
F8001E
F8001E
F8001E
FFFFFF
FFFFFF
FFFFFF
F80000
F80000
F80000
F80000
7C003E
7C003E
7E007C
3F00FC
1FC1F8
1FFFF8
0FFFE0
03FFC0
00FF00
ENDCHAR
STARTCHAR 0118
ENCODING 280
SWIDTH 640 0
DWIDTH 32 0
BBX 28 46 4 -10
BITMAP
FFFFFF80
FFFFFF80
FFFFFF80
FFFFFF80
F8000000
F8000000
F8000000
F8000000
F8000000
F8000000
F8000000
F8000000
F8000000
F8000000
F8000000
F8000000
FFFFFF80
FFFFFF80
FFFFFF80
FFFFFF80
F8000000
F8000000
F8000000
F8000000
F8000000
F8000000
F8000000
F8000000
F8000000
F8000000
F8000000
F8000000
FFFFFFC0
FFFFFFC0
FFFFFFC0
FFFFFFC0
00000380
00000F00
00001E00
00003C00
00003C00
00003C00
00003C00
00001E10
00000FF0
000003F0
ENDCHAR
STARTCHAR 0119
ENCODING 281
SWIDTH 540 0
DWIDTH 27 0
BBX 24 37 2 -10
BITMAP
00FE00
03FFC0
0FFFE0
1FFFF0
1F83F8
3E00FC
7C007C
7C003E
78003E
F8001E
F8001E
F8001E
FFFFFF
FFFFFF
FFFFFF
F80000
F80000
F80000
F80000
78003E
7C003E
7C007C
3E00FC
3F83F8
1FFFF0
0FFFE0
07FFC0
01FF80
000700
000E00
001E00
001E00
001E00
001E00
000F84
0007FC
0001FC
ENDCHAR
STARTCHAR 011A
ENCODING 282
SWIDTH 640 0
DWIDTH 32 0
BBX 26 45 4 0
BITMAP
0380F000
01E1E000
00F3C000
00FF8000
007F8000
003F0000
00000000
00000000
00000000
FFFFFF80
FFFFFF80
FFFFFF80
FFFFFF80
F8000000
F8000000
F8000000
F8000000
F8000000
F8000000
F8000000
F8000000
F8000000
F8000000
F8000000
F8000000
FFFFFF00
FFFFFF00
FFFFFF00
FFFFFF00
F8000000
F8000000
F8000000
F8000000
F8000000
F8000000
F8000000
F8000000
F8000000
F8000000
F8000000
F8000000
FFFFFFC0
FFFFFFC0
FFFFFFC0
FFFFFFC0
ENDCHAR
STARTCHAR 011B
ENCODING 283
SWIDTH 540 0
DWIDTH 27 0
BBX 24 37 2 -1
BITMAP
0780E0
03C1E0
01C3C0
01E780
00F780
007F00
007E00
003E00
000000
00FF00
03FFC0
07FFF0
0FFFF8
1FC3F8
3F00FC
3E007C
7C003E
78003E
F8001E
F8001E
F8001E
FFFFFF
FFFFFF
FFFFFF
F80000
F80000
F80000
F80000
7C003E
7C003E
7E007C
3F00FC
1FC1F8
1FFFF8
0FFFE0
03FFC0
00FF00
ENDCHAR
STARTCHAR 011C
ENCODING 284
SWIDTH 760 0
DWIDTH 38 0
BBX 33 46 2 -1
BITMAP
0001F80000
0003FC0000
0003FE0000
00079E0000
000F0F0000
001E038000
0000000000
0000000000
0000000000
001FFE0000
007FFF8000
01FFFFE000
03FFFFF000
07F003F800
0FC000FC00
1F80007C00
1F00003E00
3E00003E00
3E00001E00
7C00001F00
7C00000000
7800000000
F800000000
F800000000
F800000000
F800000000
F8003FFF80
F8003FFF80
F8003FFF80
F8003FFF80
F800000780
F800000780
F800000780
7C00000780
7C00000F80
7C00000F80
3E00000F80
3F00001F80
1F80003F80
1FC0007F80
0FE001FF80
07FC07F780
03FFFFE780
01FFFF8380
007FFE0380
000FF00000
ENDCHAR
STARTCHAR 011D
ENCODING 285
SWIDTH 560 0
DWIDTH 28 0
BBX 23 46 2 -11
BITMAP
007E00
00FF00
00FF00
01E780
03C3C0
0381C0
0780E0
000000
00FC00
03FF3E
0FFFBE
1FFFFE
1F83FE
3F01FE
7E00FE
7C007E
7C007E
F8007E
F8003E
F8003E
F8003E
F8003E
F8003E
F8003E
F8003E
F8003E
F8007E
7C007E
7C007E
7E00FE
3F01FE
3F83FE
1FFFBE
0FFF3E
03FE3E
00FC3C
00003C
00007C
7C007C
7C007C
7C00F8
3E01F8
3FFFF0
1FFFE0
07FFC0
01FF00
ENDCHAR
STARTCHAR 011E
ENCODING 286
SWIDTH 760 0
DWIDTH 38 0
BBX 33 45 2 -1
BITMAP
0038038000
003C078000
001FFF0000
000FFF0000
0007FC0000
0000400000
0000000000
0000000000
001FFE0000
007FFF8000
01FFFFE000
03FFFFF000
07F003F800
0FC000FC00
1F80007C00
1F00003E00
3E00003E00
3E00001E00
7C00001F00
7C00000000
7800000000
F800000000
F800000000
F800000000
F800000000
F8003FFF80
F8003FFF80
F8003FFF80
F8003FFF80
F800000780
F800000780
F800000780
7C00000780
7C00000F80
7C00000F80
3E00000F80
3F00001F80
1F80003F80
1FC0007F80
0FE001FF80
07FC07F780
03FFFFE780
01FFFF8380
007FFE0380
000FF00000
ENDCHAR
STARTCHAR 011F
ENCODING 287
SWIDTH 560 0
DWIDTH 28 0
BBX 23 47 2 -11
BITMAP
0E00E0
0E01E0
0FC7C0
07FFC0
03FF80
01FE00
000000
000000
000000
00FC00
03FF3E
0FFFBE
1FFFFE
1F83FE
3F01FE
7E00FE
7C007E
7C007E
F8007E
F8003E
F8003E
F8003E
F8003E
F8003E
F8003E
F8003E
F8003E
F8007E
7C007E
7C007E
7E00FE
3F01FE
3F83FE
1FFFBE
0FFF3E
03FE3E
00FC3C
00003C
00007C
7C007C
7C007C
7C00F8
3E01F8
3FFFF0
1FFFE0
07FFC0
01FF00
ENDCHAR
STARTCHAR 0120
ENCODING 288
SWIDTH 760 0
DWIDTH 38 0
BBX 33 46 2 -1
BITMAP
0001F00000
0001F00000
0001F00000
0001F00000
0001F00000
0000000000
0000000000
0000000000
0000000000
001FFE0000
007FFF8000
01FFFFE000
03FFFFF000
07F003F800
0FC000FC00
1F80007C00
1F00003E00
3E00003E00
3E00001E00
7C00001F00
7C00000000
7800000000
F800000000
F800000000
F800000000
F800000000
F8003FFF80
F8003FFF80
F8003FFF80
F8003FFF80
F800000780
F800000780
F800000780
7C00000780
7C00000F80
7C00000F80
3E00000F80
3F00001F80
1F80003F80
1FC0007F80
0FE001FF80
07FC07F780
03FFFFE780
01FFFF8380
007FFE0380
000FF00000
ENDCHAR
STARTCHAR 0121
ENCODING 289
SWIDTH 560 0
DWIDTH 28 0
BBX 23 48 2 -11
BITMAP
00FC00
00FC00
00FC00
00FC00
00FC00
000000
000000
000000
000000
000000
00FC00
03FF3E
0FFFBE
1FFFFE
1F83FE
3F01FE
7E00FE
7C007E
7C007E
F8007E
F8003E
F8003E
F8003E
F8003E
F8003E
F8003E
F8003E
F8003E
F8007E
7C007E
7C007E
7E00FE
3F01FE
3F83FE
1FFFBE
0FFF3E
03FE3E
00FC3C
00003C
00007C
7C007C
7C007C
7C00F8
3E01F8
3FFFF0
1FFFE0
07FFC0
01FF00
ENDCHAR
STARTCHAR 0122
ENCODING 290
SWIDTH 760 0
DWIDTH 38 0
BBX 33 51 2 -14
BITMAP
001FFE0000
007FFF8000
01FFFFE000
03FFFFF000
07F003F800
0FC000FC00
1F80007C00
1F00003E00
3E00003E00
3E00001E00
7C00001F00
7C00000000
7800000000
F800000000
F800000000
F800000000
F800000000
F8003FFF80
F8003FFF80
F8003FFF80
F8003FFF80
F800000780
F800000780
F800000780
7C00000780
7C00000F80
7C00000F80
3E00000F80
3F00001F80
1F80003F80
1FC0007F80
0FE001FF80
07FC07F780
03FFFFE780
01FFFF8380
007FFE0380
000FF00000
0000000000
0000000000
0000000000
0001F00000
0001F00000
0001F00000
0001F00000
0001F00000
0000700000
0000700000
0000600000
0000E00000
0001C00000
0001800000
ENDCHAR
STARTCHAR 0123
ENCODING 291
SWIDTH 560 0
DWIDTH 28 0
BBX 23 48 2 -11
BITMAP
003000
00F000
00E000
00F000
00F000
00F000
00F000
000000
000000
000000
00FC00
03FF3E
0FFFBE
1FFFFE
1F83FE
3F01FE
7E00FE
7C007E
7C007E
F8007E
F8003E
F8003E
F8003E
F8003E
F8003E
F8003E
F8003E
F8003E
F8007E
7C007E
7C007E
7E00FE
3F01FE
3F83FE
1FFFBE
0FFF3E
03FE3E
00FC3C
00003C
00007C
7C007C
7C007C
7C00F8
3E01F8
3FFFF0
1FFFE0
07FFC0
01FF00
ENDCHAR
STARTCHAR 0124
ENCODING 292
SWIDTH 720 0
DWIDTH 36 0
BBX 28 45 4 0
BITMAP
001F8000
003FC000
003FE000
0079E000
00F0F000
01E03800
00000000
00000000
00000000
F80001F0
F80001F0
F80001F0
F80001F0
F80001F0
F80001F0
F80001F0
F80001F0
F80001F0
F80001F0
F80001F0
F80001F0
F80001F0
F80001F0
F80001F0
F80001F0
FFFFFFF0
FFFFFFF0
FFFFFFF0
FFFFFFF0
F80001F0
F80001F0
F80001F0
F80001F0
F80001F0
F80001F0
F80001F0
F80001F0
F80001F0
F80001F0
F80001F0
F80001F0
F80001F0
F80001F0
F80001F0
F80001F0
ENDCHAR
STARTCHAR 0125
ENCODING 293
SWIDTH 540 0
DWIDTH 27 0
BBX 21 44 3 0
BITMAP
007E00
00FE00
01EF00
01E780
03C380
0783C0
0701E0
000000
F00000
F00000
F00000
F00000
F00000
F00000
F00000
F00000
F00000
F07F00
F1FFC0
F3FFE0
F7FFF0
FF01F8
FE00F8
FC0078
F80078
F80078
F80078
F00078
F00078
F00078
F00078
F00078
F00078
F00078
F00078
F00078
F00078
F00078
F00078
F00078
F00078
F00078
F00078
F00078
ENDCHAR
STARTCHAR 0126
ENCODING 294
SWIDTH 720 0
DWIDTH 36 0
BBX 32 36 2 0
BITMAP
3E00007C
3E00007C
3E00007C
3E00007C
3E00007C
3E00007C
3E00007C
FFFFFFFF
FFFFFFFF
FFFFFFFF
FFFFFFFF
3E00007C
3E00007C
3E00007C
3E00007C
3E00007C
3FFFFFFC
3FFFFFFC
3FFFFFFC
3FFFFFFC
3E00007C
3E00007C
3E00007C
3E00007C
3E00007C
3E00007C
3E00007C
3E00007C
3E00007C
3E00007C
3E00007C
3E00007C
3E00007C
3E00007C
3E00007C
3E00007C
ENDCHAR
STARTCHAR 0127
ENCODING 295
SWIDTH 560 0
DWIDTH 28 0
BBX 24 36 1 0
BITMAP
1E0000
1E0000
1E0000
FFFC00
FFFC00
FFFC00
1E0000
1E0000
1E0000
1E0FE0
1E3FF8
1E7FFC
1EFFFE
1FE03F
1FC01F
1F800F
1F000F
1F000F
1F000F
1E000F
1E000F
1E000F
1E000F
1E000F
1E000F
1E000F
1E000F
1E000F
1E000F
1E000F
1E000F
1E000F
1E000F
1E000F
1E000F
1E000F
ENDCHAR
STARTCHAR 0128
ENCODING 296
SWIDTH 300 0
DWIDTH 15 0
BBX 16 44 -1 0
BITMAP
1E07
3FCF
7FFE
73FE
F07C
0000
0000
0000
03E0
03E0
03E0
03E0
03E0
03E0
03E0
03E0
03E0
03E0
03E0
03E0
03E0
03E0
03E0
03E0
03E0
03E0
03E0
03E0
03E0
03E0
03E0
03E0
03E0
03E0
03E0
03E0
03E0
03E0
03E0
03E0
03E0
03E0
03E0
03E0
ENDCHAR
STARTCHAR 0129
ENCODING 297
SWIDTH 260 0
DWIDTH 13 0
BBX 15 35 -1 0
BITMAP
7E0E
7FDE
FFFC
E3FC
C078
0000
0000
0000
0000
03C0
03C0
03C0
03C0
03C0
03C0
03C0
03C0
03C0
03C0
03C0
03C0
03C0
03C0
03C0
03C0
03C0
03C0
03C0
03C0
03C0
03C0
03C0
03C0
03C0
03C0
ENDCHAR
STARTCHAR 012A
ENCODING 298
SWIDTH 280 0
DWIDTH 14 0
BBX 13 43 0 0
BITMAP
FFF8
FFF8
FFF8
0000
0000
0000
0000
07C0
07C0
07C0
07C0
07C0
07C0
07C0
07C0
07C0
07C0
07C0
07C0
07C0
07C0
07C0
07C0
07C0
07C0
07C0
07C0
07C0
07C0
07C0
07C0
07C0
07C0
07C0
07C0
07C0
07C0
07C0
07C0
07C0
07C0
07C0
07C0
ENDCHAR
STARTCHAR 012B
ENCODING 299
SWIDTH 260 0
DWIDTH 13 0
BBX 14 34 -1 0
BITMAP
FFFC
FFFC
FFFC
FFFC
0000
0000
0000
0000
03C0
03C0
03C0
03C0
03C0
03C0
03C0
03C0
03C0
03C0
03C0
03C0
03C0
03C0
03C0
03C0
03C0
03C0
03C0
03C0
03C0
03C0
03C0
03C0
03C0
03C0
ENDCHAR
STARTCHAR 012C
ENCODING 300
SWIDTH 300 0
DWIDTH 15 0
BBX 15 44 0 0
BITMAP
E00E
F01E
7FFC
3FFC
1FF0
0100
0000
0000
07C0
07C0
07C0
07C0
07C0
07C0
07C0
07C0
07C0
07C0
07C0
07C0
07C0
07C0
07C0
07C0
07C0
07C0
07C0
07C0
07C0
07C0
07C0
07C0
07C0
07C0
07C0
07C0
07C0
07C0
07C0
07C0
07C0
07C0
07C0
07C0
ENDCHAR
STARTCHAR 012D
ENCODING 301
SWIDTH 260 0
DWIDTH 13 0
BBX 14 36 0 0
BITMAP
E01C
E01C
F87C
7FF8
7FF0
1FE0
0000
0000
0000
0000
0780
0780
0780
0780
0780
0780
0780
0780
0780
0780
0780
0780
0780
0780
0780
0780
0780
0780
0780
0780
0780
0780
0780
0780
0780
0780
ENDCHAR
STARTCHAR 012E
ENCODING 302
SWIDTH 280 0
DWIDTH 14 0
BBX 11 46 1 -10
BITMAP
0F80
0F80
0F80
0F80
0F80
0F80
0F80
0F80
0F80
0F80
0F80
0F80
0F80
0F80
0F80
0F80
0F80
0F80
0F80
0F80
0F80
0F80
0F80
0F80
0F80
0F80
0F80
0F80
0F80
0F80
0F80
0F80
0F80
0F80
0F80
0F80
1F00
3C00
7800
F000
F000
F000
F000
7860
3FE0
0FE0
ENDCHAR
STARTCHAR 012F
ENCODING 303
SWIDTH 260 0
DWIDTH 13 0
BBX 10 46 0 -10
BITMAP
0F00
0F00
0F00
0F00
0F00
0000
0000
0000
0000
0000
0F00
0F00
0F00
0F00
0F00
0F00
0F00
0F00
0F00
0F00
0F00
0F00
0F00
0F00
0F00
0F00
0F00
0F00
0F00
0F00
0F00
0F00
0F00
0F00
0F00
0F00
1E00
3C00
7800
F000
F000
F000
F000
7840
3FC0
1FC0
ENDCHAR
STARTCHAR 0130
ENCODING 304
SWIDTH 280 0
DWIDTH 14 0
BBX 5 45 5 0
BITMAP
F8
F8
F8
F8
F8
F8
00
00
00
F8
F8
F8
F8
F8
F8
F8
F8
F8
F8
F8
F8
F8
F8
F8
F8
F8
F8
F8
F8
F8
F8
F8
F8
F8
F8
F8
F8
F8
F8
F8
F8
F8
F8
F8
F8
ENDCHAR
STARTCHAR 0131
ENCODING 305
SWIDTH 220 0
DWIDTH 11 0
BBX 4 26 4 0
BITMAP
F0
F0
F0
F0
F0
F0
F0
F0
F0
F0
F0
F0
F0
F0
F0
F0
F0
F0
F0
F0
F0
F0
F0
F0
F0
F0
ENDCHAR
STARTCHAR 0132
ENCODING 306
SWIDTH 760 0
DWIDTH 38 0
BBX 29 37 5 -1
BITMAP
F80000F8
F80000F8
F80000F8
F80000F8
F80000F8
F80000F8
F80000F8
F80000F8
F80000F8
F80000F8
F80000F8
F80000F8
F80000F8
F80000F8
F80000F8
F80000F8
F80000F8
F80000F8
F80000F8
F80000F8
F80000F8
F80000F8
F80000F8
F80000F8
F80000F8
F8F800F8
F8F800F8
F8F800F8
F8F800F8
F87C00F8
F87C01F8
F87E01F0
F83F07F0
F83FFFE0
F81FFFC0
F80FFF80
0001FC00
ENDCHAR
STARTCHAR 0133
ENCODING 307
SWIDTH 380 0
DWIDTH 19 0
BBX 13 47 3 -11
BITMAP
F078
F078
F078
F078
F078
0000
0000
0000
0000
0000
F078
F078
F078
F078
F078
F078
F078
F078
F078
F078
F078
F078
F078
F078
F078
F078
F078
F078
F078
F078
F078
F078
F078
F078
F078
F078
0078
0078
0078
0078
0078
0078
00F8
07F8
07F8
07F0
07C0
ENDCHAR
STARTCHAR 0134
ENCODING 308
SWIDTH 520 0
DWIDTH 26 0
BBX 24 46 2 -1
BITMAP
0003F0
0007F8
0007FC
000F3C
001E1E
003C07
000000
000000
000000
0000F8
0000F8
0000F8
0000F8
0000F8
0000F8
0000F8
0000F8
0000F8
0000F8
0000F8
0000F8
0000F8
0000F8
0000F8
0000F8
0000F8
0000F8
0000F8
0000F8
0000F8
0000F8
0000F8
0000F8
0000F8
F800F8
F800F8
F800F8
F800F8
F801F0
F801F0
7C03F0
7F07E0
3FFFE0
1FFFC0
0FFF00
03FC00
ENDCHAR
STARTCHAR 0135
ENCODING 309
SWIDTH 260 0
DWIDTH 13 0
BBX 13 46 0 -11
BITMAP
0F80
1FC0
3DE0
3CE0
78F0
F078
E038
0000
0000
0780
0780
0780
0780
0780
0780
0780
0780
0780
0780
0780
0780
0780
0780
0780
0780
0780
0780
0780
0780
0780
0780
0780
0780
0780
0780
0780
0780
0780
0780
0780
0780
0F80
7F80
7F00
7F00
7C00
ENDCHAR
STARTCHAR 0136
ENCODING 310
SWIDTH 680 0
DWIDTH 34 0
BBX 29 51 4 -15
BITMAP
F80003F0
F80007E0
F8000FC0
F8001F80
F8003F00
F8007E00
F800FC00
F801F800
F803F000
F807E000
F80FC000
F81F8000
F83F0000
F87E0000
F8FC0000
F9FE0000
FBFE0000
FFFF0000
FFDF8000
FF8F8000
FF07C000
FE07E000
FC03E000
F801F000
F801F800
F800FC00
F8007C00
F8003E00
F8003F00
F8001F00
F8000F80
F8000FC0
F80007C0
F80003E0
F80003F0
F80001F8
00000000
00000000
00000000
00000000
001F0000
001F0000
001F0000
001F0000
001F0000
00070000
00070000
00060000
000E0000
001C0000
00180000
ENDCHAR
STARTCHAR 0137
ENCODING 311
SWIDTH 520 0
DWIDTH 26 0
BBX 22 51 3 -15
BITMAP
F00000
F00000
F00000
F00000
F00000
F00000
F00000
F00000
F00000
F00000
F001F0
F003E0
F007C0
F00F80
F01F00
F03E00
F07C00
F0F800
F1F000
F3F000
F7F000
FFF800
FF7C00
FE7C00
FC3E00
F83F00
F01F00
F00F80
F00F80
F007C0
F003E0
F003E0
F001F0
F001F8
F000F8
F0007C
000000
000000
000000
000000
007C00
007C00
007C00
007C00
007C00
001C00
001C00
001800
003800
007000
006000
ENDCHAR
STARTCHAR 0138
ENCODING 312
SWIDTH 520 0
DWIDTH 26 0
BBX 22 26 3 0
BITMAP
F001F0
F003E0
F007C0
F00F80
F01F00
F03E00
F07C00
F0F800
F1F000
F3E000
F7C000
FF0000
FE0000
FF0000
FF8000
FFC000
F3E000
F1F000
F0F800
F07E00
F03F00
F00F80
F007C0
F003E0
F001F0
F000FC
ENDCHAR
STARTCHAR 0139
ENCODING 313
SWIDTH 560 0
DWIDTH 28 0
BBX 23 45 4 0
BITMAP
01F800
03E000
07C000
0F8000
1E0000
3C0000
000000
000000
000000
F80000
F80000
F80000
F80000
F80000
F80000
F80000
F80000
F80000
F80000
F80000
F80000
F80000
F80000
F80000
F80000
F80000
F80000
F80000
F80000
F80000
F80000
F80000
F80000
F80000
F80000
F80000
F80000
F80000
F80000
F80000
F80000
FFFFFE
FFFFFE
FFFFFE
FFFFFE
ENDCHAR
STARTCHAR 013A
ENCODING 314
SWIDTH 240 0
DWIDTH 12 0
BBX 11 45 0 0
BITMAP
07E0
0F80
1F00
3E00
7800
F000
0000
0000
0000
1F00
1F00
1F00
1F00
1F00
1F00
1F00
1F00
1F00
1F00
1F00
1F00
1F00
1F00
1F00
1F00
1F00
1F00
1F00
1F00
1F00
1F00
1F00
1F00
1F00
1F00
1F00
1F00
1F00
1F00
1F00
1F00
1F00
1F00
1F00
1F00
ENDCHAR
STARTCHAR 013B
ENCODING 315
SWIDTH 560 0
DWIDTH 28 0
BBX 23 51 4 -15
BITMAP
F80000
F80000
F80000
F80000
F80000
F80000
F80000
F80000
F80000
F80000
F80000
F80000
F80000
F80000
F80000
F80000
F80000
F80000
F80000
F80000
F80000
F80000
F80000
F80000
F80000
F80000
F80000
F80000
F80000
F80000
F80000
F80000
FFFFFE
FFFFFE
FFFFFE
FFFFFE
000000
000000
000000
000000
007C00
007C00
007C00
007C00
007C00
001C00
001C00
001800
003800
007000
006000
ENDCHAR
STARTCHAR 013C
ENCODING 316
SWIDTH 220 0
DWIDTH 11 0
BBX 6 51 3 -15
BITMAP
F8
F8
F8
F8
F8
F8
F8
F8
F8
F8
F8
F8
F8
F8
F8
F8
F8
F8
F8
F8
F8
F8
F8
F8
F8
F8
F8
F8
F8
F8
F8
F8
F8
F8
F8
F8
00
00
00
00
7C
7C
7C
7C
7C
1C
1C
18
38
70
60
ENDCHAR
STARTCHAR 013D
ENCODING 317
SWIDTH 560 0
DWIDTH 28 0
BBX 23 37 4 0
BITMAP
0003E0
F803E0
F807C0
F80780
F80700
F80E00
F80E00
F81C00
F80000
F80000
F80000
F80000
F80000
F80000
F80000
F80000
F80000
F80000
F80000
F80000
F80000
F80000
F80000
F80000
F80000
F80000
F80000
F80000
F80000
F80000
F80000
F80000
F80000
FFFFFE
FFFFFE
FFFFFE
FFFFFE
ENDCHAR
STARTCHAR 013E
ENCODING 318
SWIDTH 380 0
DWIDTH 19 0
BBX 15 37 3 0
BITMAP
003E
F83E
F87C
F878
F870
F8E0
F8E0
F9C0
F800
F800
F800
F800
F800
F800
F800
F800
F800
F800
F800
F800
F800
F800
F800
F800
F800
F800
F800
F800
F800
F800
F800
F800
F800
F800
F800
F800
F800
ENDCHAR
STARTCHAR 013F
ENCODING 319
SWIDTH 560 0
DWIDTH 28 0
BBX 23 36 4 0
BITMAP
F80000
F80000
F80000
F80000
F80000
F80000
F80000
F80000
F80000
F80000
F80000
F80000
F80000
F80000
F80000
F80000
F80000
F80000
F80000
F8007E
F8007E
F8007E
F8007E
F8007E
F80000
F80000
F80000
F80000
F80000
F80000
F80000
F80000
FFFFFE
FFFFFE
FFFFFE
FFFFFE
ENDCHAR
STARTCHAR 0140
ENCODING 320
SWIDTH 360 0
DWIDTH 18 0
BBX 14 36 3 0
BITMAP
F800
F800
F800
F800
F800
F800
F800
F800
F800
F800
F800
F800
F800
F800
F800
F800
F800
F800
F800
F87C
F87C
F87C
F87C
F87C
F800
F800
F800
F800
F800
F800
F800
F800
F800
F800
F800
F800
ENDCHAR
STARTCHAR 0141
ENCODING 321
SWIDTH 620 0
DWIDTH 31 0
BBX 27 36 2 0
BITMAP
0F800000
0F800000
0F800000
0F800000
0F800000
0F800000
0F800000
0F800000
0F800000
0F800000
0F808000
0F818000
0F838000
0F8F8000
0F9F0000
0FFE0000
0FF80000
0FF00000
0FC00000
3F800000
7F800000
FF800000
FF800000
CF800000
8F800000
0F800000
0F800000
0F800000
0F800000
0F800000
0F800000
0F800000
0FFFFFE0
0FFFFFE0
0FFFFFE0
0FFFFFE0
ENDCHAR
STARTCHAR 0142
ENCODING 322
SWIDTH 260 0
DWIDTH 13 0
BBX 10 36 1 0
BITMAP
1E00
1E00
1E00
1E00
1E00
1E00
1E00
1E00
1E00
1E00
1E00
1E00
1E00
1E40
1EC0
1FC0
1F80
1F00
3E00
FE00
FE00
DE00
9E00
1E00
1E00
1E00
1E00
1E00
1E00
1E00
1E00
1E00
1E00
1E00
1E00
1E00
ENDCHAR
STARTCHAR 0143
ENCODING 323
SWIDTH 740 0
DWIDTH 37 0
BBX 29 45 4 0
BITMAP
0001F800
0003E000
0007C000
000F8000
001E0000
003C0000
00000000
00000000
00000000
FC0000F8
FC0000F8
FE0000F8
FF0000F8
FF0000F8
FF8000F8
FF8000F8
FFC000F8
FBE000F8
FBE000F8
F9F000F8
F8F800F8
F8F800F8
F87C00F8
F83E00F8
F83E00F8
F81F00F8
F81F00F8
F80F80F8
F807C0F8
F807C0F8
F803E0F8
F801F0F8
F801F0F8
F800F8F8
F80078F8
F8007CF8
F8003EF8
F8003EF8
F8001FF8
F8000FF8
F8000FF8
F80007F8
F80003F8
F80003F8
F80001F8
ENDCHAR
STARTCHAR 0144
ENCODING 324
SWIDTH 540 0
DWIDTH 27 0
BBX 21 37 3 0
BITMAP
0007E0
000FC0
000F80
001F00
003E00
003C00
007800
007000
000000
000000
007F00
F1FFC0
F3FFE0
F7FFF0
FF01F8
FE00F8
FC0078
FC0078
F80078
F80078
F80078
F80078
F80078
F80078
F80078
F80078
F80078
F80078
F80078
F80078
F80078
F80078
F80078
F80078
F80078
F80078
F80078
ENDCHAR
STARTCHAR 0145
ENCODING 325
SWIDTH 740 0
DWIDTH 37 0
BBX 29 51 4 -15
BITMAP
FC0000F8
FC0000F8
FE0000F8
FF0000F8
FF0000F8
FF8000F8
FF8000F8
FFC000F8
FBE000F8
FBE000F8
F9F000F8
F8F800F8
F8F800F8
F87C00F8
F83E00F8
F83E00F8
F81F00F8
F81F00F8
F80F80F8
F807C0F8
F807C0F8
F803E0F8
F801F0F8
F801F0F8
F800F8F8
F80078F8
F8007CF8
F8003EF8
F8003EF8
F8001FF8
F8000FF8
F8000FF8
F80007F8
F80003F8
F80003F8
F80001F8
00000000
00000000
00000000
00000000
000F8000
000F8000
000F8000
000F8000
000F8000
00038000
00038000
00030000
00070000
000E0000
000C0000
ENDCHAR
STARTCHAR 0146
ENCODING 326
SWIDTH 540 0
DWIDTH 27 0
BBX 21 42 3 -15
BITMAP
007F00
F1FFC0
F3FFE0
F7FFF0
FF01F8
FE00F8
FC0078
FC0078
F80078
F80078
F80078
F80078
F80078
F80078
F80078
F80078
F80078
F80078
F80078
F80078
F80078
F80078
F80078
F80078
F80078
F80078
F80078
000000
000000
000000
000000
007C00
007C00
007C00
007C00
007C00
001C00
001C00
001800
003800
007000
006000
ENDCHAR
STARTCHAR 0147
ENCODING 327
SWIDTH 740 0
DWIDTH 37 0
BBX 29 45 4 0
BITMAP
01C07800
00F0F000
0079E000
007FC000
003FC000
001F8000
00000000
00000000
00000000
FC0000F8
FC0000F8
FE0000F8
FF0000F8
FF0000F8
FF8000F8
FF8000F8
FFC000F8
FBE000F8
FBE000F8
F9F000F8
F8F800F8
F8F800F8
F87C00F8
F83E00F8
F83E00F8
F81F00F8
F81F00F8
F80F80F8
F807C0F8
F807C0F8
F803E0F8
F801F0F8
F801F0F8
F800F8F8
F80078F8
F8007CF8
F8003EF8
F8003EF8
F8001FF8
F8000FF8
F8000FF8
F80007F8
F80003F8
F80003F8
F80001F8
ENDCHAR
STARTCHAR 0148
ENCODING 328
SWIDTH 540 0
DWIDTH 27 0
BBX 21 36 3 0
BITMAP
0E01C0
070380
078780
03CF00
01FE00
01FE00
00FC00
007800
000000
007F00
F1FFC0
F3FFE0
F7FFF0
FF01F8
FE00F8
FC0078
FC0078
F80078
F80078
F80078
F80078
F80078
F80078
F80078
F80078
F80078
F80078
F80078
F80078
F80078
F80078
F80078
F80078
F80078
F80078
F80078
ENDCHAR
STARTCHAR 0149
ENCODING 329
SWIDTH 640 0
DWIDTH 32 0
BBX 28 37 2 0
BITMAP
F8000000
F8000000
F8000000
F8000000
F8000000
F8000000
18000000
18000000
18000000
18000000
3000FE00
F3C3FF80
E3C7FFC0
03CFFFE0
03DE07E0
03FC03E0
03F801F0
03F001F0
03F001F0
03E001F0
03E001F0
03E001F0
03E001F0
03E001F0
03E001F0
03E001F0
03E001F0
03E001F0
03E001F0
03E001F0
03E001F0
03E001F0
03E001F0
03E001F0
03E001F0
03E001F0
03E001F0
ENDCHAR
STARTCHAR 014A
ENCODING 330
SWIDTH 680 0
DWIDTH 34 0
BBX 28 38 4 -1
BITMAP
003FC000
F8FFF000
FBFFF800
FFFFFE00
FFC07F00
FF003F80
FE001F80
FC000FC0
FC0007C0
F80007E0
F80003E0
F80003E0
F80003E0
F80001F0
F80001F0
F80001F0
F80001F0
F80001F0
F80001F0
F80001F0
F80001E0
F80001E0
F80001E0
F80003E0
F80003E0
F80003E0
F80003C0
F80007C0
F80007C0
F8000F80
F8000F80
F8001F80
F8003F00
F8007E00
F83FFC00
F83FF800
F83FF000
001FC000
ENDCHAR
STARTCHAR 014B
ENCODING 331
SWIDTH 540 0
DWIDTH 27 0
BBX 21 38 3 -11
BITMAP
007F00
F1FFC0
F3FFE0
F7FFF0
FF01F8
FE00F8
FC0078
FC0078
F80078
F80078
F80078
F80078
F80078
F80078
F80078
F80078
F80078
F80078
F80078
F80078
F80078
F80078
F80078
F80078
F80078
F80078
F80078
000078
000078
000078
000078
000078
000078
0000F8
0007F8
0007F0
0007F0
0007C0
ENDCHAR
STARTCHAR 014C
ENCODING 332
SWIDTH 780 0
DWIDTH 39 0
BBX 36 44 2 -1
BITMAP
003FFF0000
003FFF0000
003FFF0000
0000000000
0000000000
0000000000
0000000000
001FFF0000
007FFFE000
01FFFFF000
03FFFFF800
07F801FE00
0FE0007E00
1F80003F00
1F00001F80
3F00000F80
3E000007C0
7C000007C0
7C000003E0
78000003E0
F8000003E0
F8000001E0
F8000001E0
F8000001F0
F8000001F0
F8000001F0
F8000001F0
F8000001F0
F8000001E0
F8000001E0
78000003E0
7C000003E0
7C000003E0
7E000007C0
3E00000FC0
3F00000F80
1F80001F80
0FC0003F00
07F000FE00
03FC07FC00
01FFFFF800
00FFFFE000
003FFFC000
0007FC0000
ENDCHAR
STARTCHAR 014D
ENCODING 333
SWIDTH 540 0
DWIDTH 27 0
BBX 24 35 2 -1
BITMAP
0FFFC0
0FFFC0
0FFFC0
0FFFC0
000000
000000
000000
00FF00
03FFC0
0FFFE0
1FFFF0
1F83F8
3F00FC
7E007C
7C003E
7C003E
F8003E
F8001E
F8001E
F8001F
F8001F
F8001F
F8001F
F8001F
F8001E
F8003E
7C003E
7C003E
7E007C
3F00FC
1F83F8
1FFFF0
0FFFE0
03FFC0
00FF00
ENDCHAR
STARTCHAR 014E
ENCODING 334
SWIDTH 780 0
DWIDTH 39 0
BBX 36 45 2 -1
BITMAP
0038038000
003C078000
001FFF0000
000FFF0000
0007FC0000
0000400000
0000000000
0000000000
001FFF0000
007FFFE000
01FFFFF000
03FFFFF800
07F801FE00
0FE0007E00
1F80003F00
1F00001F80
3F00000F80
3E000007C0
7C000007C0
7C000003E0
78000003E0
F8000003E0
F8000001E0
F8000001E0
F8000001F0
F8000001F0
F8000001F0
F8000001F0
F8000001F0
F8000001E0
F8000001E0
78000003E0
7C000003E0
7C000003E0
7E000007C0
3E00000FC0
3F00000F80
1F80001F80
0FC0003F00
07F000FE00
03FC07FC00
01FFFFF800
00FFFFE000
003FFFC000
0007FC0000
ENDCHAR
STARTCHAR 014F
ENCODING 335
SWIDTH 540 0
DWIDTH 27 0
BBX 24 37 2 -1
BITMAP
0E00E0
0700E0
07C3E0
07FFC0
03FF80
00FF00
000000
000000
000000
00FF00
03FFC0
0FFFE0
1FFFF0
1F83F8
3F00FC
7E007C
7C003E
7C003E
F8003E
F8001E
F8001E
F8001F
F8001F
F8001F
F8001F
F8001F
F8001E
F8003E
7C003E
7C003E
7E007C
3F00FC
1F83F8
1FFFF0
0FFFE0
03FFC0
00FF00
ENDCHAR
STARTCHAR 0150
ENCODING 336
SWIDTH 780 0
DWIDTH 39 0
BBX 36 46 2 -1
BITMAP
0003F3F000
0003E3E000
0007C7C000
00078F8000
00078F0000
000F1E0000
0000000000
0000000000
0000000000
001FFF0000
007FFFE000
01FFFFF000
03FFFFF800
07F801FE00
0FE0007E00
1F80003F00
1F00001F80
3F00000F80
3E000007C0
7C000007C0
7C000003E0
78000003E0
F8000003E0
F8000001E0
F8000001E0
F8000001F0
F8000001F0
F8000001F0
F8000001F0
F8000001F0
F8000001E0
F8000001E0
78000003E0
7C000003E0
7C000003E0
7E000007C0
3E00000FC0
3F00000F80
1F80001F80
0FC0003F00
07F000FE00
03FC07FC00
01FFFFF800
00FFFFE000
003FFFC000
0007FC0000
ENDCHAR
STARTCHAR 0151
ENCODING 337
SWIDTH 540 0
DWIDTH 27 0
BBX 24 38 2 -1
BITMAP
00FC7C
00F8FC
00F8F8
01F1F0
01E1E0
01E3C0
03C380
038700
000000
000000
00FF00
03FFC0
0FFFE0
1FFFF0
1F83F8
3F00FC
7E007C
7C003E
7C003E
F8003E
F8001E
F8001E
F8001F
F8001F
F8001F
F8001F
F8001F
F8001E
F8003E
7C003E
7C003E
7E007C
3F00FC
1F83F8
1FFFF0
0FFFE0
03FFC0
00FF00
ENDCHAR
STARTCHAR 0152
ENCODING 338
SWIDTH 980 0
DWIDTH 49 0
BBX 46 37 2 0
BITMAP
003FF0FFFFF8
00FFFCFFFFF8
03FFFEFFFFF8
07FFFFFFFFF8
0FC01FF80000
1F8007F80000
1F0003F80000
3E0001F80000
3E0001F80000
7C0000F80000
7C0000F80000
780000F80000
780000F80000
F80000F80000
F80000F80000
F80000F80000
F80000FFFFF8
F80000FFFFF8
F80000FFFFF8
F80000FFFFF8
F80000F80000
F80000F80000
F80000F80000
F80000F80000
780000F80000
7C0000F80000
7C0000F80000
7C0000F80000
3E0001F80000
3E0003F80000
1F0007F80000
1FC00FF80000
0FF03FFFFFFC
07FFFEFFFFFC
01FFFCFFFFFC
00FFF8FFFFFC
001FC0000000
ENDCHAR
STARTCHAR 0153
ENCODING 339
SWIDTH 920 0
DWIDTH 46 0
BBX 43 28 2 -1
BITMAP
00FE000FE000
03FFC07FF800
0FFFE0FFFC00
1FFFF1FFFF00
3FC3FBF87F00
3F00FFE01F80
7E007FC00F80
7C003F8007C0
7C003F0007C0
F8003F0003C0
F8001F0003C0
F8001F0003E0
F8001FFFFFE0
F8001FFFFFE0
F8001FFFFFE0
F8001F000000
F8001F000000
F8001F000000
F8003F000000
7C003F0003C0
7C003F8007C0
7E007FC00F80
3F00FFE01F80
3F83FBF83F00
1FFFF1FFFF00
0FFFE0FFFE00
03FFC07FF800
00FE001FE000
ENDCHAR
STARTCHAR 0154
ENCODING 340
SWIDTH 700 0
DWIDTH 35 0
BBX 29 45 4 0
BITMAP
0003F000
0007C000
000F8000
001F0000
003C0000
00780000
00000000
00000000
00000000
FFFFF800
FFFFFE00
FFFFFF80
FFFFFFC0
F8001FC0
F80007E0
F80003E0
F80001E0
F80001F0
F80001F0
F80001F0
F80001E0
F80001E0
F80003E0
F80007C0
F8001FC0
FFFFFF80
FFFFFE00
FFFFFF00
FFFFFF80
F8000FC0
F80007E0
F80003E0
F80001E0
F80001F0
F80001F0
F80001F0
F80001F0
F80001F0
F80001F0
F80001F0
F80001F0
F80001F0
F80001F0
F80001F0
F80000F8
ENDCHAR
STARTCHAR 0155
ENCODING 341
SWIDTH 340 0
DWIDTH 17 0
BBX 14 37 3 0
BITMAP
00FC
00F8
01F0
03E0
03C0
0780
0F00
0E00
0000
0000
0078
F1F8
F3F8
F7F8
FFC0
FF00
FC00
FC00
F800
F800
F800
F800
F800
F800
F800
F800
F800
F800
F800
F800
F800
F800
F800
F800
F800
F800
F800
ENDCHAR
STARTCHAR 0156
ENCODING 342
SWIDTH 700 0
DWIDTH 35 0
BBX 29 51 4 -15
BITMAP
FFFFF800
FFFFFE00
FFFFFF80
FFFFFFC0
F8001FC0
F80007E0
F80003E0
F80001E0
F80001F0
F80001F0
F80001F0
F80001E0
F80001E0
F80003E0
F80007C0
F8001FC0
FFFFFF80
FFFFFE00
FFFFFF00
FFFFFF80
F8000FC0
F80007E0
F80003E0
F80001E0
F80001F0
F80001F0
F80001F0
F80001F0
F80001F0
F80001F0
F80001F0
F80001F0
F80001F0
F80001F0
F80001F0
F80000F8
00000000
00000000
00000000
00000000
000F8000
000F8000
000F8000
000F8000
000F8000
00038000
00038000
00030000
00070000
000E0000
000C0000
ENDCHAR
STARTCHAR 0157
ENCODING 343
SWIDTH 340 0
DWIDTH 17 0
BBX 13 42 3 -15
BITMAP
0078
F1F8
F3F8
F7F8
FFC0
FF00
FC00
FC00
F800
F800
F800
F800
F800
F800
F800
F800
F800
F800
F800
F800
F800
F800
F800
F800
F800
F800
F800
0000
0000
0000
0000
7C00
7C00
7C00
7C00
7C00
1C00
1C00
1800
3800
7000
6000
ENDCHAR
STARTCHAR 0158
ENCODING 344
SWIDTH 700 0
DWIDTH 35 0
BBX 29 45 4 0
BITMAP
01C07800
00F0F000
0079E000
007FC000
003FC000
001F8000
00000000
00000000
00000000
FFFFF800
FFFFFE00
FFFFFF80
FFFFFFC0
F8001FC0
F80007E0
F80003E0
F80001E0
F80001F0
F80001F0
F80001F0
F80001E0
F80001E0
F80003E0
F80007C0
F8001FC0
FFFFFF80
FFFFFE00
FFFFFF00
FFFFFF80
F8000FC0
F80007E0
F80003E0
F80001E0
F80001F0
F80001F0
F80001F0
F80001F0
F80001F0
F80001F0
F80001F0
F80001F0
F80001F0
F80001F0
F80001F0
F80000F8
ENDCHAR
STARTCHAR 0159
ENCODING 345
SWIDTH 340 0
DWIDTH 17 0
BBX 15 37 2 0
BITMAP
E01E
701C
3838
3C78
1EF0
0FE0
0FE0
07C0
0000
0000
003C
78FC
79FC
7BFC
7FE0
7F80
7E00
7E00
7C00
7C00
7C00
7C00
7C00
7C00
7C00
7C00
7C00
7C00
7C00
7C00
7C00
7C00
7C00
7C00
7C00
7C00
7C00
ENDCHAR
STARTCHAR 015A
ENCODING 346
SWIDTH 660 0
DWIDTH 33 0
BBX 28 46 3 -1
BITMAP
0001F800
0003E000
0007C000
000F8000
001E0000
003C0000
00000000
00000000
00000000
00FFF000
03FFFC00
0FFFFE00
1FFFFF00
3F803F80
3E000FC0
3E0007C0
7C0007C0
7C0003C0
7C0003E0
7C0003E0
7C000000
7E000000
3F000000
3FE00000
1FFE0000
0FFFE000
03FFFC00
007FFF00
0007FF80
0000FFC0
00001FE0
000007E0
000003E0
000001F0
F80001F0
F80001F0
F80001F0
F80001E0
7C0003E0
7E0007E0
3F000FC0
3FC03F80
1FFFFF80
0FFFFE00
03FFFC00
007FE000
ENDCHAR
STARTCHAR 015B
ENCODING 347
SWIDTH 500 0
DWIDTH 25 0
BBX 23 38 1 -1
BITMAP
0007E0
000FC0
000F80
001F00
003E00
003C00
007800
007000
000000
000000
00FF00
07FFC0
0FFFE0
1FFFF0
3F83F8
7E00F8
7C007C
7C007C
7C0000
7C0000
7E0000
3FC000
1FFC00
0FFFC0
03FFF0
007FF8
0007FC
0000FC
00003E
F8003E
F8003E
FC003C
7C007C
7F01FC
3FFFF8
1FFFF0
0FFFC0
01FF00
ENDCHAR
STARTCHAR 015C
ENCODING 348
SWIDTH 660 0
DWIDTH 33 0
BBX 28 46 3 -1
BITMAP
001F8000
003FC000
003FE000
0079E000
00F0F000
01E03800
00000000
00000000
00000000
00FFF000
03FFFC00
0FFFFE00
1FFFFF00
3F803F80
3E000FC0
3E0007C0
7C0007C0
7C0003C0
7C0003E0
7C0003E0
7C000000
7E000000
3F000000
3FE00000
1FFE0000
0FFFE000
03FFFC00
007FFF00
0007FF80
0000FFC0
00001FE0
000007E0
000003E0
000001F0
F80001F0
F80001F0
F80001F0
F80001E0
7C0003E0
7E0007E0
3F000FC0
3FC03F80
1FFFFF80
0FFFFE00
03FFFC00
007FE000
ENDCHAR
STARTCHAR 015D
ENCODING 349
SWIDTH 500 0
DWIDTH 25 0
BBX 23 36 1 -1
BITMAP
00FC00
00FE00
01EF00
01CF00
03C780
0783C0
0701C0
000000
00FF00
07FFC0
0FFFE0
1FFFF0
3F83F8
7E00F8
7C007C
7C007C
7C0000
7C0000
7E0000
3FC000
1FFC00
0FFFC0
03FFF0
007FF8
0007FC
0000FC
00003E
F8003E
F8003E
FC003C
7C007C
7F01FC
3FFFF8
1FFFF0
0FFFC0
01FF00
ENDCHAR
STARTCHAR 015E
ENCODING 350
SWIDTH 660 0
DWIDTH 33 0
BBX 28 47 3 -10
BITMAP
00FFF000
03FFFC00
0FFFFE00
1FFFFF00
1F803F80
3F000FC0
3E0007C0
7C0007C0
7C0003C0
7C0003E0
7C0003E0
7C000000
7E000000
3F000000
3FE00000
1FFE0000
0FFFE000
03FFFC00
007FFF00
0007FF80
0000FFC0
00001FE0
000007E0
000003E0
000001F0
F80001F0
F80001F0
F80001F0
F80001E0
7C0003E0
7E0003E0
3F000FC0
1FE03FC0
1FFFFF80
07FFFF00
03FFFC00
007FE000
000C0000
000C0000
001F8000
001FC000
0003E000
0001E000
0101E000
01C3C000
01FF8000
003F0000
ENDCHAR
STARTCHAR 015F
ENCODING 351
SWIDTH 500 0
DWIDTH 25 0
BBX 23 38 1 -11
BITMAP
01FE00
07FFC0
0FFFE0
1FFFF0
3F83F8
7E00F8
7C0078
7C007C
7C0000
7C0000
7E0000
3FC000
3FFC00
0FFFC0
03FFF0
007FF8
0007FC
0000FC
00007C
F8003E
F8003E
F8003E
FC007C
7E00FC
7FEFF8
3FFFF0
1FFFE0
07FF80
007000
006000
00FC00
00FE00
001F00
000F00
000F00
1E1E00
0FFC00
03F800
ENDCHAR
STARTCHAR 0160
ENCODING 352
SWIDTH 660 0
DWIDTH 33 0
BBX 28 46 3 -1
BITMAP
0380F000
01E1E000
00F3C000
00FF8000
007F8000
003F0000
00000000
00000000
00000000
00FFF000
03FFFC00
0FFFFE00
1FFFFF00
3F803F80
3E000FC0
3E0007C0
7C0007C0
7C0003C0
7C0003E0
7C0003E0
7C000000
7E000000
3F000000
3FE00000
1FFE0000
0FFFE000
03FFFC00
007FFF00
0007FF80
0000FFC0
00001FE0
000007E0
000003E0
000001F0
F80001F0
F80001F0
F80001F0
F80001E0
7C0003E0
7E0007E0
3F000FC0
3FC03F80
1FFFFF80
0FFFFE00
03FFFC00
007FE000
ENDCHAR
STARTCHAR 0161
ENCODING 353
SWIDTH 500 0
DWIDTH 25 0
BBX 23 37 1 -1
BITMAP
0701C0
0783C0
03C780
01CF00
01EF00
00FE00
00FC00
000000
000000
00FF00
07FFC0
0FFFE0
1FFFF0
3F83F8
7E00F8
7C007C
7C007C
7C0000
7C0000
7E0000
3FC000
1FFC00
0FFFC0
03FFF0
007FF8
0007FC
0000FC
00003E
F8003E
F8003E
FC003C
7C007C
7F01FC
3FFFF8
1FFFF0
0FFFC0
01FF00
ENDCHAR
STARTCHAR 0162
ENCODING 354
SWIDTH 640 0
DWIDTH 32 0
BBX 28 47 2 -11
BITMAP
FFFFFFF0
FFFFFFF0
FFFFFFF0
FFFFFFF0
000F8000
000F8000
000F8000
000F8000
000F8000
000F8000
000F8000
000F8000
000F8000
000F8000
000F8000
000F8000
000F8000
000F8000
000F8000
000F8000
000F8000
000F8000
000F8000
000F8000
000F8000
000F8000
000F8000
000F8000
000F8000
000F8000
000F8000
000F8000
000F8000
000F8000
000F8000
000F8000
000F0000
00060000
00060000
000FC000
000FE000
0001F000
0000F000
0080F000
00E1E000
00FFC000
001F8000
ENDCHAR
STARTCHAR 0163
ENCODING 355
SWIDTH 280 0
DWIDTH 14 0
BBX 13 44 2 -11
BITMAP
1E00
1E00
1E00
1E00
1E00
1E00
1E00
FFE0
FFE0
FFE0
1E00
1E00
1E00
1E00
1E00
1E00
1E00
1E00
1E00
1E00
1E00
1E00
1E00
1E00
1E00
1E00
1E00
1E00
1E00
1E00
1F00
1FE0
0FE0
07E0
0100
0300
03E0
07F0
0078
0078
0078
78F0
7FF0
0FC0
ENDCHAR
STARTCHAR 0164
ENCODING 356
SWIDTH 640 0
DWIDTH 32 0
BBX 28 45 2 0
BITMAP
0380F000
01E1E000
00F3C000
00FF8000
007F8000
003F0000
00000000
00000000
00000000
FFFFFFF0
FFFFFFF0
FFFFFFF0
FFFFFFF0
000F8000
000F8000
000F8000
000F8000
000F8000
000F8000
000F8000
000F8000
000F8000
000F8000
000F8000
000F8000
000F8000
000F8000
000F8000
000F8000
000F8000
000F8000
000F8000
000F8000
000F8000
000F8000
000F8000
000F8000
000F8000
000F8000
000F8000
000F8000
000F8000
000F8000
000F8000
000F8000
ENDCHAR
STARTCHAR 0165
ENCODING 357
SWIDTH 440 0
DWIDTH 22 0
BBX 19 38 2 -1
BITMAP
0003E0
0003E0
0007C0
000780
1E0700
1E0E00
1E0E00
1E1C00
1E0000
1E0000
1E0000
FFE000
FFE000
FFE000
1E0000
1E0000
1E0000
1E0000
1E0000
1E0000
1E0000
1E0000
1E0000
1E0000
1E0000
1E0000
1E0000
1E0000
1E0000
1E0000
1E0000
1E0000
1E0000
1E0000
1FE000
1FE000
0FE000
07E000
ENDCHAR
STARTCHAR 0166
ENCODING 358
SWIDTH 640 0
DWIDTH 32 0
BBX 28 36 2 0
BITMAP
FFFFFFF0
FFFFFFF0
FFFFFFF0
FFFFFFF0
000F8000
000F8000
000F8000
000F8000
000F8000
000F8000
000F8000
000F8000
000F8000
000F8000
07FFFF00
07FFFF00
07FFFF00
07FFFF00
000F8000
000F8000
000F8000
000F8000
000F8000
000F8000
000F8000
000F8000
000F8000
000F8000
000F8000
000F8000
000F8000
000F8000
000F8000
000F8000
000F8000
000F8000
ENDCHAR
STARTCHAR 0167
ENCODING 359
SWIDTH 280 0
DWIDTH 14 0
BBX 12 34 1 -1
BITMAP
0F00
0F00
0F00
0F00
0F00
0F00
0F00
7FF0
7FF0
7FF0
0F00
0F00
0F00
0F00
0F00
0F00
0F00
0F00
FFE0
FFE0
FFE0
FFE0
0F00
0F00
0F00
0F00
0F00
0F00
0F00
0F00
0FF0
0FF0
07F0
03F0
ENDCHAR
STARTCHAR 0168
ENCODING 360
SWIDTH 720 0
DWIDTH 36 0
BBX 28 45 4 -1
BITMAP
00781C00
00FE3C00
01FFF800
01CFF800
0381F000
00000000
00000000
00000000
F80001F0
F80001F0
F80001F0
F80001F0
F80001F0
F80001F0
F80001F0
F80001F0
F80001F0
F80001F0
F80001F0
F80001F0
F80001F0
F80001F0
F80001F0
F80001F0
F80001F0
F80001F0
F80001F0
F80001F0
F80001F0
F80001F0
F80001F0
F80001F0
F80001F0
F80001F0
F80001F0
F80001E0
F80003E0
7C0003E0
7E0007E0
3F000FC0
3FE07F80
1FFFFF00
0FFFFE00
03FFF800
007FC000
ENDCHAR
STARTCHAR 0169
ENCODING 361
SWIDTH 540 0
DWIDTH 27 0
BBX 21 37 3 -1
BITMAP
0201C0
0FE1C0
0FFFC0
1FFF80
1C3F80
1C0600
000000
000000
000000
000000
F00078
F00078
F00078
F00078
F00078
F00078
F00078
F00078
F00078
F00078
F00078
F00078
F00078
F00078
F00078
F00078
F00078
F00078
F000F8
F000F8
F801F8
F803F8
FC07F8
7FFF78
3FFE78
1FFC78
07F000
ENDCHAR
STARTCHAR 016A
ENCODING 362
SWIDTH 720 0
DWIDTH 36 0
BBX 28 44 4 -1
BITMAP
01FFF800
01FFF800
01FFF800
00000000
00000000
00000000
00000000
F80001F0
F80001F0
F80001F0
F80001F0
F80001F0
F80001F0
F80001F0
F80001F0
F80001F0
F80001F0
F80001F0
F80001F0
F80001F0
F80001F0
F80001F0
F80001F0
F80001F0
F80001F0
F80001F0
F80001F0
F80001F0
F80001F0
F80001F0
F80001F0
F80001F0
F80001F0
F80001F0
F80001E0
F80003E0
7C0003E0
7E0007E0
3F000FC0
3FE07F80
1FFFFF00
0FFFFE00
03FFF800
007FC000
ENDCHAR
STARTCHAR 016B
ENCODING 363
SWIDTH 540 0
DWIDTH 27 0
BBX 21 35 3 -1
BITMAP
1FFF80
1FFF80
1FFF80
1FFF80
000000
000000
000000
000000
F00078
F00078
F00078
F00078
F00078
F00078
F00078
F00078
F00078
F00078
F00078
F00078
F00078
F00078
F00078
F00078
F00078
F00078
F000F8
F000F8
F801F8
F803F8
FC07F8
7FFF78
3FFE78
1FFC78
07F000
ENDCHAR
STARTCHAR 016C
ENCODING 364
SWIDTH 720 0
DWIDTH 36 0
BBX 28 45 4 -1
BITMAP
01C01C00
01E03C00
00FFF800
00FFF000
003FE000
00020000
00000000
00000000
F80001F0
F80001F0
F80001F0
F80001F0
F80001F0
F80001F0
F80001F0
F80001F0
F80001F0
F80001F0
F80001F0
F80001F0
F80001F0
F80001F0
F80001F0
F80001F0
F80001F0
F80001F0
F80001F0
F80001F0
F80001F0
F80001F0
F80001F0
F80001F0
F80001F0
F80001F0
F80001F0
F80001E0
F80003E0
7C0003E0
7E0007E0
3F000FC0
3FE07F80
1FFFFF00
0FFFFE00
03FFF800
007FC000
ENDCHAR
STARTCHAR 016D
ENCODING 365
SWIDTH 540 0
DWIDTH 27 0
BBX 21 37 3 -1
BITMAP
1C01C0
0E01C0
0F87C0
0FFF80
07FF00
01FE00
000000
000000
000000
000000
F00078
F00078
F00078
F00078
F00078
F00078
F00078
F00078
F00078
F00078
F00078
F00078
F00078
F00078
F00078
F00078
F00078
F00078
F000F8
F000F8
F801F8
F803F8
FC07F8
7FFF78
3FFE78
1FFC78
07F000
ENDCHAR
STARTCHAR 016E
ENCODING 366
SWIDTH 720 0
DWIDTH 36 0
BBX 28 50 4 -1
BITMAP
00070000
001FC000
003FE000
007DE000
00707000
00707000
00707000
0078F000
003FE000
003FE000
001FC000
00000000
00000000
F80001F0
F80001F0
F80001F0
F80001F0
F80001F0
F80001F0
F80001F0
F80001F0
F80001F0
F80001F0
F80001F0
F80001F0
F80001F0
F80001F0
F80001F0
F80001F0
F80001F0
F80001F0
F80001F0
F80001F0
F80001F0
F80001F0
F80001F0
F80001F0
F80001F0
F80001F0
F80001F0
F80001E0
F80003E0
7C0003E0
7E0007E0
3F000FC0
3FE07F80
1FFFFF00
0FFFFE00
03FFF800
007FC000
ENDCHAR
STARTCHAR 016F
ENCODING 367
SWIDTH 540 0
DWIDTH 27 0
BBX 21 40 3 -1
BITMAP
00F800
01FE00
03FF00
038F00
078700
070700
078700
038F00
03FF00
01FE00
00F800
000000
000000
F00078
F00078
F00078
F00078
F00078
F00078
F00078
F00078
F00078
F00078
F00078
F00078
F00078
F00078
F00078
F00078
F00078
F00078
F000F8
F000F8
F801F8
F803F8
FC07F8
7FFF78
3FFE78
1FFC78
07F000
ENDCHAR
STARTCHAR 0170
ENCODING 368
SWIDTH 720 0
DWIDTH 36 0
BBX 28 46 4 -1
BITMAP
003F3F00
003E3E00
007C7C00
0078F800
0078F000
00F1E000
00000000
00000000
00000000
F80001F0
F80001F0
F80001F0
F80001F0
F80001F0
F80001F0
F80001F0
F80001F0
F80001F0
F80001F0
F80001F0
F80001F0
F80001F0
F80001F0
F80001F0
F80001F0
F80001F0
F80001F0
F80001F0
F80001F0
F80001F0
F80001F0
F80001F0
F80001F0
F80001F0
F80001F0
F80001F0
F80001E0
F80003E0
7C0003E0
7E0007E0
3F000FC0
3FE07F80
1FFFFF00
0FFFFE00
03FFF800
007FC000
ENDCHAR
STARTCHAR 0171
ENCODING 369
SWIDTH 540 0
DWIDTH 27 0
BBX 21 37 3 -1
BITMAP
03E3F0
03E3E0
07C7C0
078780
078F00
0F0E00
0E1E00
000000
000000
000000
F00078
F00078
F00078
F00078
F00078
F00078
F00078
F00078
F00078
F00078
F00078
F00078
F00078
F00078
F00078
F00078
F00078
F00078
F000F8
F000F8
F801F8
F803F8
FC07F8
7FFF78
3FFE78
1FFC78
07F000
ENDCHAR
STARTCHAR 0172
ENCODING 370
SWIDTH 720 0
DWIDTH 36 0
BBX 28 46 4 -10
BITMAP
F80001F0
F80001F0
F80001F0
F80001F0
F80001F0
F80001F0
F80001F0
F80001F0
F80001F0
F80001F0
F80001F0
F80001F0
F80001F0
F80001F0
F80001F0
F80001F0
F80001F0
F80001F0
F80001F0
F80001F0
F80001F0
F80001F0
F80001F0
F80001F0
F80001F0
F80001F0
F80001F0
F80001E0
F80003E0
7C0003E0
7E0007C0
3F000FC0
3FC07F80
1FFFFF00
0FFFFE00
03FFFC00
007FF800
00007000
0000F000
0001E000
0001E000
0001E000
0001E000
0000F040
00007FC0
00001FC0
ENDCHAR
STARTCHAR 0173
ENCODING 371
SWIDTH 540 0
DWIDTH 27 0
BBX 23 36 3 -10
BITMAP
F00078
F00078
F00078
F00078
F00078
F00078
F00078
F00078
F00078
F00078
F00078
F00078
F00078
F00078
F00078
F00078
F00078
F00078
F000F8
F000F8
F801F8
F803F8
FC07F8
7FFF78
3FFE78
1FFC78
07F070
0001E0
0003C0
000380
000780
000780
000780
0003C2
0001FE
00007E
ENDCHAR
STARTCHAR 0174
ENCODING 372
SWIDTH 940 0
DWIDTH 47 0
BBX 45 45 1 0
BITMAP
00000FC00000
00001FE00000
00001FF00000
00003CF00000
000078780000
0000F01C0000
000000000000
000000000000
000000000000
F8000F8000F8
F8001F8000F8
7C001FC001F0
7C001FC001F0
7C001FC001F0
7C003FE001F0
3E003FE003E0
3E003DE003E0
3E003DE003E0
3E007DF003E0
1F0078F007C0
1F0078F007C0
1F00F8F807C0
1F00F8F807C0
0F00F0780780
0F80F0780F80
0F81F07C0F80
0F81E03C0F80
0781E03C0F00
07C1E03C1F00
07C3E03E1F00
07C3C01E1F00
03C3C01E1E00
03E7C01F3E00
03E7C00F3E00
03E7800F3E00
01E7800F3C00
01FF800FBC00
01FF0007FC00
00FF0007FC00
00FF0007F800
00FF0007F800
00FE0003F800
007E0003F800
007E0003F000
007E0001F000
ENDCHAR
STARTCHAR 0175
ENCODING 373
SWIDTH 720 0
DWIDTH 36 0
BBX 35 36 1 0
BITMAP
0003E00000
0003F00000
0007F80000
0007F80000
000F3C0000
001E1C0000
001C0E0000
00380F0000
0000000000
0000000000
F003F003E0
F803F003C0
F803F007C0
7803F807C0
7807F80780
7C07F80780
7C07F80F80
3C077C0F00
3C0F3C0F00
3E0F3C0F00
1E0F3C1F00
1E0E3E1E00
1E1E1E1E00
1F1E1E3E00
0F1E1E3C00
0F1C1F3C00
0F3C0F3C00
07BC0F7C00
07BC0F7800
07B80FF800
03F807F800
03F807F000
03F807F000
03F803F000
01F003E000
01F003E000
ENDCHAR
STARTCHAR 0176
ENCODING 374
SWIDTH 680 0
DWIDTH 34 0
BBX 32 45 1 0
BITMAP
0007E000
000FF000
000FF800
001E7800
003C3C00
00780E00
00000000
00000000
00000000
FC00003F
7E00003E
3E00007E
3F00007C
1F0000FC
1F8000F8
0FC001F0
07C003F0
07E003E0
03F007C0
01F007C0
01F80F80
00F81F80
007C1F00
007E3E00
003E3E00
001F7C00
001FF800
000FF800
000FF000
0007F000
0003E000
0003E000
0003E000
0003E000
0003E000
0003E000
0003E000
0003E000
0003E000
0003E000
0003E000
0003E000
0003E000
0003E000
0003E000
ENDCHAR
STARTCHAR 0177
ENCODING 375
SWIDTH 480 0
DWIDTH 24 0
BBX 22 46 1 -11
BITMAP
00FC00
00FE00
01EF00
01CF00
03C780
0783C0
0701C0
000000
000000
F0003C
F0007C
F80078
780078
7800F8
7C00F0
3C01F0
3C01F0
3E01E0
1E03E0
1E03C0
1F03C0
0F07C0
0F0780
0F8780
078F80
078F00
07CF00
03DF00
03DE00
03FE00
01FC00
01FC00
01FC00
00F800
00F800
00F800
00F000
01F000
01E000
01E000
03E000
07C000
7FC000
7F8000
7F0000
3C0000
ENDCHAR
STARTCHAR 0178
ENCODING 376
SWIDTH 680 0
DWIDTH 34 0
BBX 32 44 1 0
BITMAP
003E3E00
003E3E00
003E3E00
003E3E00
003E3E00
00000000
00000000
00000000
FC00003F
7E00003E
3E00007E
3F00007C
1F0000FC
1F8000F8
0FC001F0
07C003F0
07E003E0
03F007C0
01F007C0
01F80F80
00F81F80
007C1F00
007E3E00
003E3E00
001F7C00
001FF800
000FF800
000FF000
0007F000
0003E000
0003E000
0003E000
0003E000
0003E000
0003E000
0003E000
0003E000
0003E000
0003E000
0003E000
0003E000
0003E000
0003E000
0003E000
ENDCHAR
STARTCHAR 0179
ENCODING 377
SWIDTH 620 0
DWIDTH 31 0
BBX 27 45 2 0
BITMAP
0001F800
0003E000
0007C000
000F8000
001E0000
003C0000
00000000
00000000
00000000
7FFFFFE0
7FFFFFE0
7FFFFFE0
7FFFFFE0
000007E0
00000FC0
00001F80
00001F80
00003F00
00007E00
0000FC00
0000F800
0001F800
0003F000
0007E000
000FC000
000F8000
001F8000
003F0000
007E0000
00FC0000
00FC0000
01F80000
03F00000
07E00000
07C00000
0FC00000
1F800000
3F000000
7E000000
7C000000
FC000000
FFFFFFE0
FFFFFFE0
FFFFFFE0
FFFFFFE0
ENDCHAR
STARTCHAR 017A
ENCODING 378
SWIDTH 480 0
DWIDTH 24 0
BBX 21 37 2 0
BITMAP
0007C0
000F80
001F00
001E00
003C00
007800
007000
00E000
000000
000000
000000
7FFFF0
7FFFF0
7FFFF0
7FFFF0
0003E0
0003E0
0007C0
000F80
001F00
003E00
007C00
007C00
00F800
01F000
03E000
07C000
0F8000
1F8000
1F0000
3E0000
7C0000
F80000
FFFFF8
FFFFF8
FFFFF8
FFFFF8
ENDCHAR
STARTCHAR 017B
ENCODING 379
SWIDTH 620 0
DWIDTH 31 0
BBX 27 44 2 0
BITMAP
000F8000
000F8000
000F8000
000F8000
000F8000
00000000
00000000
00000000
7FFFFFE0
7FFFFFE0
7FFFFFE0
7FFFFFE0
000007E0
00000FC0
00001F80
00001F80
00003F00
00007E00
0000FC00
0000F800
0001F800
0003F000
0007E000
000FC000
000F8000
001F8000
003F0000
007E0000
00FC0000
00FC0000
01F80000
03F00000
07E00000
07C00000
0FC00000
1F800000
3F000000
7E000000
7C000000
FC000000
FFFFFFE0
FFFFFFE0
FFFFFFE0
FFFFFFE0
ENDCHAR
STARTCHAR 017C
ENCODING 380
SWIDTH 480 0
DWIDTH 24 0
BBX 21 37 2 0
BITMAP
00F800
00F800
00F800
00F800
00F800
000000
000000
000000
000000
000000
000000
7FFFF0
7FFFF0
7FFFF0
7FFFF0
0003E0
0003E0
0007C0
000F80
001F00
003E00
007C00
007C00
00F800
01F000
03E000
07C000
0F8000
1F8000
1F0000
3E0000
7C0000
F80000
FFFFF8
FFFFF8
FFFFF8
FFFFF8
ENDCHAR
STARTCHAR 017D
ENCODING 381
SWIDTH 620 0
DWIDTH 31 0
BBX 27 45 2 0
BITMAP
01C07800
00F0F000
0079E000
007FC000
003FC000
001F8000
00000000
00000000
00000000
7FFFFFE0
7FFFFFE0
7FFFFFE0
7FFFFFE0
000007E0
00000FC0
00001F80
00001F80
00003F00
00007E00
0000FC00
0000F800
0001F800
0003F000
0007E000
000FC000
000F8000
001F8000
003F0000
007E0000
00FC0000
00FC0000
01F80000
03F00000
07E00000
07C00000
0FC00000
1F800000
3F000000
7E000000
7C000000
FC000000
FFFFFFE0
FFFFFFE0
FFFFFFE0
FFFFFFE0
ENDCHAR
STARTCHAR 017E
ENCODING 382
SWIDTH 480 0
DWIDTH 24 0
BBX 21 36 2 0
BITMAP
0E0380
0F0780
078F00
03CE00
03DE00
01FC00
00FC00
000000
000000
000000
7FFFF0
7FFFF0
7FFFF0
7FFFF0
0003E0
0003E0
0007C0
000F80
001F00
003E00
007C00
007C00
00F800
01F000
03E000
07C000
0F8000
1F8000
1F0000
3E0000
7C0000
F80000
FFFFF8
FFFFF8
FFFFF8
FFFFF8
ENDCHAR
STARTCHAR 017F
ENCODING 383
SWIDTH 280 0
DWIDTH 14 0
BBX 12 36 2 0
BITMAP
03F0
07F0
0FF0
1FF0
1F00
1E00
1E00
1E00
1E00
1E00
FE00
FE00
FE00
1E00
1E00
1E00
1E00
1E00
1E00
1E00
1E00
1E00
1E00
1E00
1E00
1E00
1E00
1E00
1E00
1E00
1E00
1E00
1E00
1E00
1E00
1E00
ENDCHAR
STARTCHAR 0180
ENCODING 384
SWIDTH 580 0
DWIDTH 29 0
BBX 27 37 1 -1
BITMAP
1E000000
1E000000
1E000000
FFFC0000
FFFC0000
FFFC0000
1E000000
1E000000
1E000000
1E0FE000
1E3FF800
1EFFFC00
1FFFFE00
1FF07F00
1FC01F80
1F800F80
1F800FC0
1F0007C0
1F0007C0
1F0003C0
1E0003E0
1E0003E0
1E0003E0
1E0003E0
1E0003E0
1E0003C0
1E0003C0
1F0007C0
1F0007C0
1F800FC0
1F800F80
1FC01F80
1FF07F00
1FFFFE00
1EFFFC00
1E3FF800
000FE000
ENDCHAR
STARTCHAR 0181
ENCODING 385
SWIDTH 840 0
DWIDTH 42 0
BBX 38 36 2 0
BITMAP
1FFFFFF800
3FFFFFFF00
7FFFFFFF80
7FFFFFFFC0
FC1F001FC0
F81F0007E0
F81F0003E0
F81F0001F0
F81F0001F0
FF9F0001F0
7F9F0001F0
7F9F0001E0
3F9F0003E0
021F0007C0
001F001F80
001FFFFF00
001FFFFE00
001FFFFF80
001FFFFFE0
001F0007F0
001F0001F0
001F0000F8
001F0000F8
001F000078
001F00007C
001F00007C
001F00007C
001F00007C
001F0000F8
001F0000F8
001F0001F8
001F0007F0
001FFFFFE0
001FFFFFC0
001FFFFF80
001FFFFE00
ENDCHAR
STARTCHAR 0182
ENCODING 386
SWIDTH 660 0
DWIDTH 33 0
BBX 28 36 4 0
BITMAP
FFFFFF00
FFFFFF00
FFFFFF00
FFFFFF00
F8000000
F8000000
F8000000
F8000000
F8000000
F8000000
F8000000
F8000000
F8000000
F8000000
F8000000
FFFFE000
FFFFFC00
FFFFFF00
FFFFFF80
F8001FC0
F80007E0
F80003E0
F80003E0
F80001F0
F80001F0
F80001F0
F80001F0
F80001E0
F80003E0
F80003E0
F80007E0
F8001FC0
FFFFFF80
FFFFFF00
FFFFFE00
FFFFF800
ENDCHAR
STARTCHAR 0183
ENCODING 387
SWIDTH 560 0
DWIDTH 28 0
BBX 24 37 3 -1
BITMAP
FFFFE0
FFFFE0
FFFFE0
FFFFE0
F00000
F00000
F00000
F00000
F00000
F07F00
F1FFC0
F3FFE0
F7FFF0
FF83F8
FE00FC
FC007C
FC007E
F8003E
F8003E
F8001E
F0001F
F0001F
F0001F
F0001F
F0001F
F0001E
F0001E
F8003E
F8003E
FC007E
FC007C
FE00FC
FF83F8
F7FFF0
F7FFE0
F1FFC0
007F00
ENDCHAR
STARTCHAR 0184
ENCODING 388
SWIDTH 720 0
DWIDTH 36 0
BBX 34 36 0 0
BITMAP
03E0000000
07E0000000
0FE0000000
1FE0000000
3FE0000000
7FE0000000
FFE0000000
FFE0000000
7FE0000000
3FE0000000
1FE0000000
0FE0000000
07E0000000
03E0000000
03FFFF8000
03FFFFF000
03FFFFFC00
03FFFFFE00
03E0007F00
03E0003F00
03E0001F80
03E0000F80
03E0000780
03E00007C0
03E00007C0
03E00007C0
03E00007C0
03E0000780
03E0000F80
03E0001F80
03E0003F00
03E000FF00
03FFFFFE00
03FFFFFC00
03FFFFF000
03FFFFC000
ENDCHAR
STARTCHAR 0185
ENCODING 389
SWIDTH 600 0
DWIDTH 30 0
BBX 29 37 0 -1
BITMAP
07800000
0F800000
1F800000
1F800000
3F800000
7F800000
FF800000
7F800000
3F800000
3F83F800
1F8FFE00
0F9FFF00
0FBFFF80
07FC1FC0
07F007E0
07E003E0
07E003F0
07C001F0
07C001F0
07C000F0
078000F8
078000F8
078000F8
078000F8
078000F8
078000F0
078000F0
07C001F0
07C001F0
07E003F0
07E003E0
07F007E0
07FC1FC0
07BFFF80
07BFFF00
078FFE00
0003F800
ENDCHAR
STARTCHAR 0186
ENCODING 390
SWIDTH 700 0
DWIDTH 35 0
BBX 31 38 2 -1
BITMAP
001FE000
00FFFC00
03FFFF00
07FFFF80
0FF03FC0
1F800FE0
3F0003F0
3E0001F8
7C0000F8
7C00007C
F800007C
F800003C
F800003E
F800003E
0000003E
0000001E
0000001E
0000001E
0000001E
0000001E
0000001E
0000001E
0000001E
0000003E
0000003E
0000003E
7800007C
7C00007C
7C0000F8
3E0000F8
3E0001F0
1F0003F0
1FC00FE0
0FFFFFC0
07FFFF80
03FFFE00
00FFF800
00070000
ENDCHAR
STARTCHAR 0187
ENCODING 391
SWIDTH 780 0
DWIDTH 39 0
BBX 35 37 2 0
BITMAP
001FFE0000
00FFFF87E0
01FFFFCFE0
07FFFFFFE0
07F007FFE0
0FC001FE00
1F8000FE00
1F00007E00
3E00007E00
3C00003E00
7C00003E00
7C00000000
7800000000
F800000000
F800000000
F800000000
F800000000
F800000000
F800000000
F800000000
F800000000
F800000000
F800000000
F800001F00
7800001E00
7C00003E00
7C00003E00
3E00003E00
3E00007C00
1F0000FC00
1F8000F800
0FE003F800
07F80FF000
03FFFFE000
01FFFFC000
007FFF0000
000FF80000
ENDCHAR
STARTCHAR 0188
ENCODING 392
SWIDTH 580 0
DWIDTH 29 0
BBX 26 29 2 -1
BITMAP
000007C0
00FE1FC0
03FFBFC0
0FFFFFC0
1FFFFC00
1F83FC00
3F01FC00
7E00FC00
7C007C00
7C007C00
F8000000
F8000000
F8000000
F8000000
F8000000
F8000000
F8000000
F8000000
F8000000
F8007C00
78007C00
7C007C00
7E00F800
3E01F800
3F83F000
1FFFF000
0FFFE000
07FF8000
00FE0000
ENDCHAR
STARTCHAR 0189
ENCODING 393
SWIDTH 700 0
DWIDTH 35 0
BBX 33 36 1 0
BITMAP
1FFFFC0000
1FFFFF0000
1FFFFFC000
1FFFFFE000
1F000FF000
1F0001F800
1F0000FC00
1F00007C00
1F00003E00
1F00003E00
1F00001F00
1F00001F00
1F00001F00
1F00000F00
1F00000F00
1F00000F80
FFFF000F80
FFFF000F80
FFFF000F80
1F00000F80
1F00000F80
1F00000F00
1F00000F00
1F00001F00
1F00001F00
1F00001F00
1F00003E00
1F00003E00
1F00007C00
1F0000FC00
1F0001F800
1F000FF000
1FFFFFE000
1FFFFFC000
1FFFFF0000
1FFFFC0000
ENDCHAR
STARTCHAR 018A
ENCODING 394
SWIDTH 880 0
DWIDTH 44 0
BBX 40 36 2 0
BITMAP
1FFFFFF800
3FFFFFFF00
7FFFFFFF80
7FFFFFFFE0
FC1F001FE0
F81F0003F0
F81F0001F8
F81F0000F8
F81F00007C
FF9F00007C
7F9F00003E
7F9F00003E
3F9F00003E
021F00001E
001F00001E
001F00001F
001F00001F
001F00001F
001F00001F
001F00001F
001F00001F
001F00001E
001F00001E
001F00003E
001F00003E
001F00003E
001F00007C
001F00007C
001F0000F8
001F0001F8
001F0003F0
001F001FE0
001FFFFFC0
001FFFFF80
001FFFFF00
001FFFF800
ENDCHAR
STARTCHAR 018B
ENCODING 395
SWIDTH 660 0
DWIDTH 33 0
BBX 28 36 2 0
BITMAP
0FFFFFF0
0FFFFFF0
0FFFFFF0
0FFFFFF0
000001F0
000001F0
000001F0
000001F0
000001F0
000001F0
000001F0
000001F0
000001F0
000001F0
000001F0
00FFFFF0
07FFFFF0
1FFFFFF0
3FFFFFF0
3F0001F0
7E0001F0
7C0001F0
F80001F0
F80001F0
F80001F0
F80001F0
F80001F0
F80001F0
F80001F0
7C0001F0
7E0001F0
3F8001F0
3FFFFFF0
1FFFFFF0
07FFFFF0
01FFFFF0
ENDCHAR
STARTCHAR 018C
ENCODING 396
SWIDTH 560 0
DWIDTH 28 0
BBX 23 37 2 -1
BITMAP
0FFFFE
0FFFFE
0FFFFE
0FFFFE
00001E
00001E
00001E
00001E
00001E
00FC1E
07FF1E
0FFF9E
1FFFDE
3FC3FE
3F00FE
7E007E
7C007E
7C003E
F8003E
F8001E
F8001E
F8001E
F8001E
F8001E
F8001E
F8001E
F8001E
F8003E
7C003E
7C003E
7E007E
3F00FE
1FC3FE
1FFFDE
0FFF9E
03FF1E
00FC00
ENDCHAR
STARTCHAR 018D
ENCODING 397
SWIDTH 560 0
DWIDTH 28 0
BBX 25 37 1 -9
BITMAP
001C0000
01FFC000
07FFF000
0FFFF800
1FFFFC00
3F00FE00
7E003E00
7C003F00
7C001F00
F8001F00
F8000F00
F8000F80
F8000F80
F8000F80
F8000F80
F8000F00
F8001F00
F8001F00
7C001F00
7C003E00
3E007E00
3F00FC00
1FFFF800
0FFFF000
07FFE000
03FF0000
01F80000
00FE0000
003F0000
001F8000
000FE000
0007F000
0001F800
0000FC00
1FFFFE00
1FFFFE00
1FFFFE00
ENDCHAR
STARTCHAR 018E
ENCODING 398
SWIDTH 640 0
DWIDTH 32 0
BBX 26 36 2 0
BITMAP
7FFFFFC0
7FFFFFC0
7FFFFFC0
7FFFFFC0
000007C0
000007C0
000007C0
000007C0
000007C0
000007C0
000007C0
000007C0
000007C0
000007C0
000007C0
000007C0
3FFFFFC0
3FFFFFC0
3FFFFFC0
3FFFFFC0
000007C0
000007C0
000007C0
000007C0
000007C0
000007C0
000007C0
000007C0
000007C0
000007C0
000007C0
000007C0
FFFFFFC0
FFFFFFC0
FFFFFFC0
FFFFFFC0
ENDCHAR
STARTCHAR 018F
ENCODING 399
SWIDTH 720 0
DWIDTH 36 0
BBX 32 37 2 0
BITMAP
007FF800
01FFFE00
07FFFF80
0FFFFFC0
1FC00FE0
1F8003F0
3F0001F8
3E0000F8
7C00007C
7C00007C
7C00003C
0000003E
0000003E
0000001E
0000001E
0000001F
0000001F
0000001F
0000001F
FFFFFFFF
FFFFFFFF
FFFFFFFE
FFFFFFFE
FC00003E
7C00003E
7C00003E
7C00007C
7C00007C
3E0000F8
3E0001F8
1F0003F0
1F8007F0
0FF03FE0
07FFFFC0
03FFFF00
00FFFC00
001FE000
ENDCHAR
STARTCHAR 0190
ENCODING 400
SWIDTH 660 0
DWIDTH 33 0
BBX 29 37 2 0
BITMAP
00FFF000
03FFFE00
0FFFFF00
1FFFFF80
3F801FC0
3F0007C0
3E0003E0
7C0003E0
7C0001E0
7C0001F0
7C0001F0
7C000000
7E000000
3F000000
3F800000
1FE00000
07FFC000
03FFC000
0FFFC000
1FFFC000
3FC00000
7F000000
7E000000
FC000000
F8000000
F80000F8
F80000F8
F80000F0
F80001F0
7C0001F0
7C0003E0
3E000FE0
3FC03FC0
1FFFFF80
0FFFFF00
03FFFC00
007FE000
ENDCHAR
STARTCHAR 0191
ENCODING 401
SWIDTH 600 0
DWIDTH 30 0
BBX 28 47 1 -11
BITMAP
0FFFFFF0
0FFFFFF0
0FFFFFF0
0FFFFFF0
0F800000
0F800000
0F800000
0F800000
0F800000
0F800000
0F800000
0F800000
0F800000
0F800000
0F800000
0FFFFFC0
0FFFFFC0
0FFFFFC0
0FFFFFC0
0F800000
0F800000
0F800000
0F800000
0F800000
0F800000
0F800000
0F800000
0F800000
0F800000
0F800000
0F800000
0F800000
0F800000
0F800000
0F800000
0F800000
0F800000
0F800000
0F800000
0F800000
0F800000
0F800000
1F800000
FF000000
FF000000
FE000000
F8000000
ENDCHAR
STARTCHAR 0192
ENCODING 402
SWIDTH 280 0
DWIDTH 14 0
BBX 12 47 0 -11
BITMAP
01F0
03F0
07F0
0FF0
0F80
0F00
0F00
0F00
0F00
0F00
7FF0
7FF0
7FF0
0F00
0F00
0F00
0F00
0F00
0F00
0F00
0F00
0F00
0F00
0F00
0F00
0F00
0F00
0F00
0F00
0F00
0F00
0F00
0F00
0F00
0F00
0F00
0F00
0F00
0F00
0F00
0F00
0F00
1F00
FF00
FE00
FE00
F800
ENDCHAR
STARTCHAR 0193
ENCODING 403
SWIDTH 820 0
DWIDTH 41 0
BBX 36 37 2 0
BITMAP
001FFF0000
007FFFC3F0
01FFFFE7F0
03FFFFFFF0
07F003FFF0
0FC000FF00
1F80007F00
1F00003F00
3E00003F00
3E00001F00
7C00001F00
7C00000000
7800000000
F800000000
F800000000
F800000000
F800000000
F8003FFF80
F8003FFF80
F8003FFF80
F8003FFF80
F800000780
F800000780
F800000780
7C00000780
7C00000F80
7C00000F80
3E00000F80
3F00001F80
1F80003F80
1FC0007F80
0FE001FF80
07FC07F780
03FFFFE780
01FFFF8380
007FFE0380
000FF00000
ENDCHAR
STARTCHAR 0194
ENCODING 404
SWIDTH 680 0
DWIDTH 34 0
BBX 32 37 1 -1
BITMAP
FC00001F
7C00003F
7E00007E
3F00007C
1F0000FC
1F8000F8
0FC001F0
07C003F0
07E003E0
03E007C0
01F007C0
01F80F80
00F81F80
007C1F00
007E3E00
003E7E00
003F7C00
001FF800
000FF800
000FF000
0007F000
0003E000
0007E000
0007F000
000FF800
000FF800
001F7C00
001F7C00
003E3C00
003E3E00
003E3E00
003E3E00
003FFC00
001FFC00
001FF800
000FF000
0003E000
ENDCHAR
STARTCHAR 0195
ENCODING 405
SWIDTH 860 0
DWIDTH 43 0
BBX 39 37 3 -1
BITMAP
F000000000
F000000000
F000000000
F000000000
F000000000
F000000000
F000000000
F000000000
F000000000
F07F000000
F1FFC00000
F3FFE00000
F7FFF00180
FF01F80FC0
FE00F803E0
FC007801F0
F8007800F0
F8007800F8
F80078007C
F00078007C
F00078003C
F00078003C
F00078003E
F00078003E
F00078003E
F00078003C
F00078007C
F00078007C
F000780078
F0007800F8
F0007801F0
F0007803F0
F0007C07E0
F0007FFFC0
F0007FFF80
F0003FFE00
00001FF800
ENDCHAR
STARTCHAR 0196
ENCODING 406
SWIDTH 260 0
DWIDTH 13 0
BBX 8 37 3 -1
BITMAP
F0
F0
F0
F0
F0
F0
F0
F0
F0
F0
F0
F0
F0
F0
F0
F0
F0
F0
F0
F0
F0
F0
F0
F0
F0
F0
F0
F0
F0
F0
F0
F0
F0
FF
FF
7F
3F
ENDCHAR
STARTCHAR 0197
ENCODING 407
SWIDTH 360 0
DWIDTH 18 0
BBX 16 36 2 0
BITMAP
07C0
07C0
07C0
07C0
07C0
07C0
07C0
07C0
07C0
07C0
07C0
07C0
07C0
07C0
07C0
07C0
FFFF
FFFF
FFFF
07C0
07C0
07C0
07C0
07C0
07C0
07C0
07C0
07C0
07C0
07C0
07C0
07C0
07C0
07C0
07C0
07C0
ENDCHAR
STARTCHAR 0198
ENCODING 408
SWIDTH 680 0
DWIDTH 34 0
BBX 30 36 4 0
BITMAP
F8000000
F80001F0
F80007FC
F8000FF8
F8001FF0
F8003F00
F8007E00
F800FC00
F801F000
F803E000
F807C000
F80F8000
F81F0000
F83E0000
F87C0000
F8FC0000
F9FE0000
FBFF0000
FFDF8000
FF8F8000
FF07C000
FE07E000
FC03E000
F801F000
F801F800
F800F800
F8007C00
F8007E00
F8003F00
F8001F00
F8000F80
F8000FC0
F80007C0
F80003E0
F80003F0
F80001F8
ENDCHAR
STARTCHAR 0199
ENCODING 409
SWIDTH 520 0
DWIDTH 26 0
BBX 22 36 3 0
BITMAP
1F8000
3F8000
7F8000
FF8000
F80000
F00000
F00000
F00000
F00000
F00000
F001F0
F003E0
F007C0
F00F80
F01F00
F03E00
F07C00
F0F800
F1F000
F3F000
F7F000
FFF800
FF7C00
FE7C00
FC3E00
F83F00
F01F00
F00F80
F00F80
F007C0
F003E0
F003E0
F001F0
F001F8
F000F8
F0007C
ENDCHAR
STARTCHAR 019A
ENCODING 410
SWIDTH 340 0
DWIDTH 17 0
BBX 17 36 1 0
BITMAP
03E000
03E000
03E000
03E000
03E000
03E000
03E000
03E000
03E000
03E000
03E000
03E000
03E000
03E000
03E000
03E000
FFFF80
FFFF80
FFFF80
03E000
03E000
03E000
03E000
03E000
03E000
03E000
03E000
03E000
03E000
03E000
03E000
03E000
03E000
03E000
03E000
03E000
ENDCHAR
STARTCHAR 019B
ENCODING 411
SWIDTH 540 0
DWIDTH 27 0
BBX 26 36 1 0
BITMAP
3E004000
3F81C000
3FC3C000
7FEFC000
03FF0000
01FE0000
00F80000
03F80000
07F80000
1FF80000
3E7C0000
7C7C0000
707C0000
60FE0000
40FE0000
01EF0000
01EF0000
01EF0000
03C78000
03C78000
07C78000
0783C000
0783C000
0F81E000
0F01E000
1F01E000
1F00F000
1E00F000
3E00F800
3E007800
3C007800
7C007C00
7C003F80
F8003F80
F8003FC0
F0001F80
ENDCHAR
STARTCHAR 019C
ENCODING 412
SWIDTH 860 0
DWIDTH 43 0
BBX 35 37 4 -1
BITMAP
F801F003E0
F801F003E0
F801F003E0
F801F003E0
F801F003E0
F801F003E0
F801F003E0
F801F003E0
F801F003E0
F801F003E0
F801F003E0
F801F003E0
F801F003E0
F801F003E0
F801F003E0
F801F003E0
F801F003E0
F801F003E0
F801F003E0
F801F003E0
F801F003E0
F801F003E0
F801F003E0
F801F003E0
F801F003E0
F801F003E0
F801F003E0
F801F003E0
F801F003E0
F803F007E0
F803F007E0
FC07F80FE0
FE1FFC3FE0
7FFEFFFDE0
7FFC7FF9E0
1FF83FF1E0
0FE00FC000
ENDCHAR
STARTCHAR 019D
ENCODING 413
SWIDTH 740 0
DWIDTH 37 0
BBX 33 47 0 -11
BITMAP
0FC0000F80
0FC0000F80
0FE0000F80
0FF0000F80
0FF0000F80
0FF8000F80
0FF8000F80
0FFC000F80
0FBE000F80
0FBE000F80
0F9F000F80
0F8F800F80
0F8F800F80
0F87C00F80
0F83E00F80
0F83E00F80
0F81F00F80
0F81F00F80
0F80F80F80
0F807C0F80
0F807C0F80
0F803E0F80
0F801F0F80
0F801F0F80
0F800F8F80
0F80078F80
0F8007CF80
0F8003EF80
0F8003EF80
0F8001FF80
0F8000FF80
0F8000FF80
0F80007F80
0F80003F80
0F80003F80
0F80001F80
0F80000000
0F80000000
0F80000000
0F80000000
0F80000000
0F80000000
1F80000000
FF00000000
FF00000000
FE00000000
F800000000
ENDCHAR
STARTCHAR 019E
ENCODING 414
SWIDTH 540 0
DWIDTH 27 0
BBX 21 37 3 -10
BITMAP
007F00
F1FFC0
F3FFE0
F7FFF0
FF01F8
FE00F8
FC0078
FC0078
F80078
F80078
F80078
F80078
F80078
F80078
F80078
F80078
F80078
F80078
F80078
F80078
F80078
F80078
F80078
F80078
F80078
F80078
F80078
000078
000078
000078
000078
000078
000078
000078
000078
000078
000078
ENDCHAR
STARTCHAR 019F
ENCODING 415
SWIDTH 780 0
DWIDTH 39 0
BBX 35 37 2 0
BITMAP
001FFF0000
007FFFC000
01FFFFE000
03FFFFF800
07F003FC00
0FE000FE00
1F80007E00
1F00003F00
3E00001F00
3E00000F80
7C00000F80
7C000007C0
78000007C0
F8000007C0
F8000003C0
F8000003C0
F8000003E0
FFFFFFFFE0
FFFFFFFFE0
FFFFFFFFE0
F8000003E0
F8000003C0
F8000003C0
78000007C0
78000007C0
7C000007C0
7C00000F80
3E00000F80
3F00001F00
1F80003F00
0FC0007E00
0FE001FC00
07FC07F800
01FFFFF000
00FFFFE000
003FFF8000
0007FC0000
ENDCHAR
STARTCHAR 01A0
ENCODING 416
SWIDTH 800 0
DWIDTH 40 0
BBX 39 40 2 -1
BITMAP
0000000018
000000003C
000000007C
001FFF003E
007FFFE03E
01FFFFF83E
03FFFFFFFC
07F801FFFC
0FE0007FF8
1F80003FE0
1F00001F80
3F00000FC0
3E000007C0
7C000007C0
7C000003E0
78000003E0
F8000003E0
F8000001E0
F8000001E0
F8000001F0
F8000001F0
F8000001F0
F8000001F0
F8000001F0
F8000001E0
F8000001E0
78000003E0
7C000003E0
7C000003E0
7E000007C0
3E00000FC0
3F00000F80
1F80001F80
0FC0003F00
07F000FE00
03FC07FC00
01FFFFF800
00FFFFE000
003FFFC000
0007FC0000
ENDCHAR
STARTCHAR 01A1
ENCODING 417
SWIDTH 560 0
DWIDTH 28 0
BBX 27 32 2 -1
BITMAP
00000080
000003C0
000007C0
000003E0
00FE03E0
03FFC7E0
0FFFFFC0
1FFFFFC0
1F83FF80
3F00FE00
7E007C00
7C003C00
7C003E00
F8003E00
F8001E00
F8001E00
F8001F00
F8001F00
F8001F00
F8001F00
F8001F00
F8001E00
F8003E00
7C003E00
7C003E00
7E007C00
3F00FC00
1F83F800
1FFFF000
0FFFE000
03FFC000
00FF0000
ENDCHAR
STARTCHAR 01A2
ENCODING 418
SWIDTH 1020 0
DWIDTH 51 0
BBX 45 38 2 -1
BITMAP
000000000800
001FFF01FF80
007FFFC7FFC0
01FFFFFFFFE0
03FFFFFFFFF0
07F801FF01F0
0FE0007E01F0
1F80003F00F8
1F00001F80F8
3F00000F80F8
3E000007C0F8
7C000007C0F8
7C000003E0F8
78000003E0F8
F8000003E0F8
F8000001E0F8
F8000001E0F8
F8000001F0F8
F8000001F0F8
F8000001F0F8
F8000001F0F8
F8000001F0F8
F8000001E0F8
F8000001E0F8
78000003E0F8
7C000003E0F8
7C000003E0F8
7E000007C0F8
3E00000FC0F8
3F00000F80F8
1F80001F80F8
0FC0003F00F8
07F000FE00F8
03FC07FC00F8
01FFFFF800F8
00FFFFE000F8
003FFFC000F8
0007FC000000
ENDCHAR
STARTCHAR 01A3
ENCODING 419
SWIDTH 720 0
DWIDTH 36 0
BBX 32 37 2 -10
BITMAP
00FE03F0
03FFDFFC
0FFFFFFC
1FFFFF7E
1F83F81E
3F00F81E
7E007C1F
7C003C1F
7C003E1F
F8003E1F
F8001E1F
F8001E1F
F8001F1F
F8001F1F
F8001F1F
F8001F1F
F8001F1F
F8001E1F
F8003E1F
7C003E1F
7C003E1F
7E007C1F
3F00FC1F
1F83F81F
1FFFF01F
0FFFE01F
03FFC01F
00FF001F
0000001F
0000001F
0000001F
0000001F
0000001F
0000001F
0000001F
0000001F
0000001F
ENDCHAR
STARTCHAR 01A4
ENCODING 420
SWIDTH 820 0
DWIDTH 41 0
BBX 37 36 2 0
BITMAP
1FFFFFFC00
3FFFFFFF00
7FFFFFFFC0
7FFFFFFFE0
FC1F000FE0
F81F0003F0
F81F0001F0
F81F0001F0
F81F0000F8
FF9F0000F8
7F9F0000F8
7F9F0000F8
3F9F0000F8
021F0001F0
001F0001F0
001F0003F0
001F000FE0
001FFFFFC0
001FFFFF80
001FFFFF00
001FFFFC00
001F000000
001F000000
001F000000
001F000000
001F000000
001F000000
001F000000
001F000000
001F000000
001F000000
001F000000
001F000000
001F000000
001F000000
001F000000
ENDCHAR
STARTCHAR 01A5
ENCODING 421
SWIDTH 560 0
DWIDTH 28 0
BBX 24 47 3 -11
BITMAP
1F8000
3F8000
7F8000
FF8000
F00000
F00000
F00000
F00000
F00000
F07F00
F1FFC0
F3FFE0
F7FFF0
FF83F8
FF00FC
FE007C
FC007E
FC003E
F8003E
F8001E
F8001E
F8001F
F8001F
F8001F
F8001F
F8001F
F8001E
F8003E
FC003E
FC007E
FE007C
FF00FC
FF83F8
FFFFF0
FBFFE0
F9FFC0
F87F00
F80000
F80000
F80000
F80000
F80000
F80000
F80000
F80000
F80000
F80000
ENDCHAR
STARTCHAR 01A6
ENCODING 422
SWIDTH 660 0
DWIDTH 33 0
BBX 27 42 4 -6
BITMAP
F8000000
F8000000
F8000000
F8000000
F8000000
F8000000
FFFFE000
FFFFF800
FFFFFC00
FFFFFE00
F8007F00
F8001F80
F8000F80
F8000780
F8000780
F80007C0
F80007C0
F80007C0
F80007C0
F8000780
F8000F80
F8001F80
F8007F00
FFFFFF00
FFFFFE00
FFFFFC00
FFFFFE00
F8003F00
F8001F80
F8000F80
F8000780
F8000780
F80007C0
F80007C0
F80007C0
F80007C0
000007C0
000007C0
000007C0
000007C0
000007C0
000003E0
ENDCHAR
STARTCHAR 01A7
ENCODING 423
SWIDTH 660 0
DWIDTH 33 0
BBX 29 37 2 0
BITMAP
00FFF800
03FFFE00
07FFFF00
1FFFFF80
1FC00FC0
3F0007E0
3E0003E0
7C0001E0
7C0001F0
7C0001F0
7C0001F0
000003F0
000003E0
00000FE0
00007FE0
0007FFC0
007FFF80
03FFFE00
0FFFE000
1FFE0000
3FF00000
7F800000
7E000000
FC000000
F8000000
F80000F8
F80000F8
F80000F0
F80001F0
7C0001F0
7C0003E0
3E000FE0
3FC03FC0
1FFFFF80
0FFFFF00
03FFFC00
007FE000
ENDCHAR
STARTCHAR 01A8
ENCODING 424
SWIDTH 500 0
DWIDTH 25 0
BBX 22 28 2 -1
BITMAP
01FC00
0FFF80
1FFFC0
3FFFE0
3F07F0
7E01F0
7C00F0
7C00F8
0000F8
0001F8
0003F0
001FF0
01FFE0
0FFFC0
3FFF00
7FF000
7F0000
FC0000
F80000
F8007C
F8007C
F800F8
FC01F8
7F03F8
3FFFF0
1FFFE0
0FFFC0
01FE00
ENDCHAR
STARTCHAR 01A9
ENCODING 425
SWIDTH 620 0
DWIDTH 31 0
BBX 27 36 2 0
BITMAP
FFFFFFC0
FFFFFFC0
FFFFFFC0
FFFFFFC0
FC000000
7C000000
7E000000
3F000000
1F800000
0FC00000
07C00000
07E00000
03F00000
01F80000
00FC0000
007C0000
007E0000
003F0000
003F0000
007E0000
00FC0000
00FC0000
01F80000
03F00000
07E00000
07C00000
0FC00000
1F800000
3F000000
7E000000
7C000000
FC000000
FFFFFFE0
FFFFFFE0
FFFFFFE0
FFFFFFE0
ENDCHAR
STARTCHAR 01AA
ENCODING 426
SWIDTH 360 0
DWIDTH 18 0
BBX 17 47 0 -11
BITMAP
0F8000
3FC000
7FE000
78F000
F07000
E07000
E07000
E07000
78F000
7FF000
3FF000
0FF000
00F000
00F000
00F000
00F000
00F000
00F000
00F000
00F000
00F000
00F000
00F000
00F000
00F000
00F000
00F000
00F000
00F000
00F000
00F000
00F000
00F000
00F000
00F000
00F000
00F000
00F000
00F000
00F000
00F000
00F000
00F800
00FF80
007F80
003F80
000F80
ENDCHAR
STARTCHAR 01AB
ENCODING 427
SWIDTH 280 0
DWIDTH 14 0
BBX 12 44 2 -11
BITMAP
1E00
1E00
1E00
1E00
1E00
1E00
1E00
FFF0
FFF0
FFF0
1E00
1E00
1E00
1E00
1E00
1E00
1E00
1E00
1E00
1E00
1E00
1E00
1E00
1E00
1E00
1E00
1E00
1E00
1E00
1E00
1F90
1FF0
0FF0
07F0
01F0
01F0
01F0
01F0
01F0
03F0
1FE0
1FE0
1FC0
1F00
ENDCHAR
STARTCHAR 01AC
ENCODING 428
SWIDTH 640 0
DWIDTH 32 0
BBX 29 36 1 0
BITMAP
0FFFFFF8
3FFFFFF8
7FFFFFF8
FFFFFFF8
FC07C000
F807C000
F807C000
F807C000
F807C000
FF87C000
7F87C000
7F87C000
3F87C000
0207C000
0007C000
0007C000
0007C000
0007C000
0007C000
0007C000
0007C000
0007C000
0007C000
0007C000
0007C000
0007C000
0007C000
0007C000
0007C000
0007C000
0007C000
0007C000
0007C000
0007C000
0007C000
0007C000
ENDCHAR
STARTCHAR 01AD
ENCODING 429
SWIDTH 280 0
DWIDTH 14 0
BBX 11 37 2 -1
BITMAP
03E0
07E0
0FE0
1FE0
1F00
1E00
1E00
1E00
1E00
1E00
FFE0
FFE0
FFE0
1E00
1E00
1E00
1E00
1E00
1E00
1E00
1E00
1E00
1E00
1E00
1E00
1E00
1E00
1E00
1E00
1E00
1E00
1E00
1E00
1FE0
1FE0
0FE0
07E0
ENDCHAR
STARTCHAR 01AE
ENCODING 430
SWIDTH 640 0
DWIDTH 32 0
BBX 28 47 2 -11
BITMAP
FFFFFFF0
FFFFFFF0
FFFFFFF0
FFFFFFF0
000F8000
000F8000
000F8000
000F8000
000F8000
000F8000
000F8000
000F8000
000F8000
000F8000
000F8000
000F8000
000F8000
000F8000
000F8000
000F8000
000F8000
000F8000
000F8000
000F8000
000F8000
000F8000
000F8000
000F8000
000F8000
000F8000
000F8000
000F8000
000F8000
000F8000
000F8000
000F8000
000F8000
000F8000
000F8000
000F8000
000F8000
000F8000
000FC000
000FF800
0007F800
0003F800
0000F800
ENDCHAR
STARTCHAR 01AF
ENCODING 431
SWIDTH 780 0
DWIDTH 39 0
BBX 35 43 4 -1
BITMAP
0000000080
00000003C0
00000007C0
00000003E0
00000003E0
00000003E0
F80001FFC0
F80001FFC0
F80001FF80
F80001FE00
F80001F000
F80001F000
F80001F000
F80001F000
F80001F000
F80001F000
F80001F000
F80001F000
F80001F000
F80001F000
F80001F000
F80001F000
F80001F000
F80001F000
F80001F000
F80001F000
F80001F000
F80001F000
F80001F000
F80001F000
F80001F000
F80001F000
F80001F000
F80001E000
F80003E000
7C0003E000
7E0007E000
3F000FC000
3FE07F8000
1FFFFF0000
0FFFFE0000
03FFF80000
007FC00000
ENDCHAR
STARTCHAR 01B0
ENCODING 432
SWIDTH 620 0
DWIDTH 31 0
BBX 29 33 3 -1
BITMAP
00000020
000000F0
000001F0
000000F8
000000F8
000000F8
F0007FF0
F0007FF0
F0007FE0
F0007F80
F0007800
F0007800
F0007800
F0007800
F0007800
F0007800
F0007800
F0007800
F0007800
F0007800
F0007800
F0007800
F0007800
F0007800
F000F800
F000F800
F801F800
F803F800
FC07F800
7FFF7800
3FFE7800
1FFC7800
07F00000
ENDCHAR
STARTCHAR 01B1
ENCODING 433
SWIDTH 760 0
DWIDTH 38 0
BBX 34 36 2 0
BITMAP
7FFC0FFFC0
7FFC0FFFC0
7FFC0FFFC0
007C07C000
01F003E000
03E001F000
07C000F800
0F80007C00
1F00003E00
1F00001E00
3E00001F00
3E00000F00
7C00000F80
7C00000F80
7800000780
F8000007C0
F8000007C0
F8000007C0
F8000007C0
F8000007C0
F8000007C0
F8000007C0
7800000780
7C00000F80
7C00000F80
7C00000F00
3E00001F00
3F00003E00
1F80007E00
0FC000FC00
07E001F800
03FC0FF000
01FFFFE000
007FFF8000
001FFE0000
0000400000
ENDCHAR
STARTCHAR 01B2
ENCODING 434
SWIDTH 700 0
DWIDTH 35 0
BBX 29 37 4 -1
BITMAP
F800FC00
F8007E00
F8003E00
F8003F00
F8001F80
F8000F80
F8000FC0
F80007C0
F80007C0
F80003E0
F80003E0
F80001F0
F80001F0
F80001F0
F80000F0
F80000F0
F80000F8
F80000F8
F80000F8
F80000F8
F80000F8
F80000F8
F80000F0
F80000F0
F80001F0
F80001F0
F80001F0
F80003E0
F80007E0
F8000FC0
78001FC0
7C003F80
7F01FF00
3FFFFE00
1FFFFC00
0FFFF000
01FF8000
ENDCHAR
STARTCHAR 01B3
ENCODING 435
SWIDTH 720 0
DWIDTH 36 0
BBX 35 36 1 0
BITMAP
FC00000F80
7E00001FE0
3E00003FC0
3F00007FC0
1F0000FC80
0F8000F800
0FC001F000
07C003E000
07E003E000
03F007C000
01F007C000
01F80F8000
00F81F0000
007C1F0000
007E3E0000
003E7E0000
001F7C0000
001FF80000
000FF80000
0007F00000
0007E00000
0003E00000
0003E00000
0003E00000
0003E00000
0003E00000
0003E00000
0003E00000
0003E00000
0003E00000
0003E00000
0003E00000
0003E00000
0003E00000
0003E00000
0003E00000
ENDCHAR
STARTCHAR 01B4
ENCODING 436
SWIDTH 620 0
DWIDTH 31 0
BBX 29 47 1 -11
BITMAP
000000F8
000001F8
000003F8
000007F8
00000F80
00000F00
00001F00
00001E00
00003E00
00003E00
F0003C00
F0007C00
F8007800
78007800
7800F800
7C00F000
3C00F000
3C01F000
3E01E000
1E03E000
1E03C000
1F03C000
0F07C000
0F078000
0F878000
078F8000
078F0000
07CF0000
03DF0000
03DE0000
03FE0000
01FC0000
01FC0000
01FC0000
00F80000
00F80000
00F80000
00F00000
01F00000
01E00000
01E00000
03E00000
07C00000
7FC00000
7F800000
7F000000
3E000000
ENDCHAR
STARTCHAR 01B5
ENCODING 437
SWIDTH 620 0
DWIDTH 31 0
BBX 27 36 2 0
BITMAP
7FFFFFE0
7FFFFFE0
7FFFFFE0
7FFFFFE0
000007E0
00000FC0
00001F80
00001F80
00003F00
00007E00
0000FC00
0001F800
0001F000
0003F000
0007E000
000FC000
07FFFC00
07FFFC00
07FFFC00
007E0000
00FC0000
00F80000
01F80000
03F00000
07E00000
0FC00000
0FC00000
1F800000
3F000000
7E000000
7C000000
FC000000
FFFFFFE0
FFFFFFE0
FFFFFFE0
FFFFFFE0
ENDCHAR
STARTCHAR 01B6
ENCODING 438
SWIDTH 480 0
DWIDTH 24 0
BBX 21 26 2 0
BITMAP
7FFFF0
7FFFF0
7FFFF0
7FFFF0
0003E0
0007E0
0007C0
000F80
001F00
003E00
007C00
7FFFC0
7FFFC0
7FFFC0
03E000
07C000
0F8000
1F0000
3F0000
3E0000
7C0000
F80000
FFFFF8
FFFFF8
FFFFF8
FFFFF8
ENDCHAR
STARTCHAR 01B7
ENCODING 439
SWIDTH 620 0
DWIDTH 31 0
BBX 28 37 2 -1
BITMAP
3FFFFFF0
3FFFFFF0
3FFFFFF0
3FFFFFF0
000003E0
000007E0
00000FC0
00001F80
00003F00
00007E00
0000FC00
0000FC00
0001F800
0007F000
001FE000
001FF800
001FFE00
001FFF80
0000FFC0
00001FC0
000007E0
000003E0
000003E0
000001F0
000001F0
000001F0
F80001F0
F80001F0
F80003E0
7C0003E0
7C0007E0
7F000FC0
3FC07F80
1FFFFF00
0FFFFE00
03FFF800
007FC000
ENDCHAR
STARTCHAR 01B8
ENCODING 440
SWIDTH 600 0
DWIDTH 30 0
BBX 28 37 2 -1
BITMAP
FFFFFFC0
FFFFFFC0
FFFFFFC0
FFFFFFC0
FC000000
7E000000
3F000000
1F000000
0F800000
0FC00000
07E00000
03F00000
01F00000
00FC0000
007F0000
01FF0000
0FFF0000
1FFF0000
3FE00000
7F000000
7E000000
7C000000
F8000000
F8000000
F8000000
F8000000
F80001F0
F80001E0
F80003E0
7C0003E0
7E0007E0
3F000FC0
3FE07FC0
1FFFFF80
07FFFF00
03FFFC00
003FE000
ENDCHAR
STARTCHAR 01B9
ENCODING 441
SWIDTH 520 0
DWIDTH 26 0
BBX 24 33 2 -7
BITMAP
3FFFFC
3FFFFC
3FFFFC
3FFFFC
1F0000
0F8000
078000
07C000
03E000
01F000
00F000
007800
00FC00
07FC00
1FFC00
3FFC00
7E0000
7C0000
F80000
F80000
F80000
F80000
F8001F
F8001E
F8001E
F8003E
7C003E
7E007C
3F81FC
1FFFF8
0FFFF0
07FFE0
00FF00
ENDCHAR
STARTCHAR 01BA
ENCODING 442
SWIDTH 500 0
DWIDTH 25 0
BBX 22 36 2 -10
BITMAP
7FFFF0
7FFFF0
7FFFF0
7FFFF0
0003E0
0003E0
0007C0
000F80
001F00
003E00
007E00
007C00
00F800
00FF80
00FFE0
00FFF0
0003F8
0000F8
00007C
00003C
00003C
00003C
00003C
00007C
0000F8
0E01F8
7FFFF0
FFFFE0
FFFF80
F0FE00
F00000
F800E0
7FFFE0
3FFFE0
1FFFC0
07FC00
ENDCHAR
STARTCHAR 01BB
ENCODING 443
SWIDTH 560 0
DWIDTH 28 0
BBX 24 35 2 1
BITMAP
01FFC0
07FFE0
0FFFF8
1FFFF8
1F80FC
3F007E
3E003E
7C003E
7C001F
7C001F
7C001F
7C001F
00001E
00003E
00003E
04007C
0700FC
07E3F8
07FFF0
03FFC0
007FC0
00FFF0
03FFF8
07F0F8
0FC038
1F8008
3E0000
3E0000
7C0000
7C0000
780000
7FFFFE
FFFFFE
FFFFFE
FFFFFE
ENDCHAR
STARTCHAR 01BE
ENCODING 446
SWIDTH 500 0
DWIDTH 25 0
BBX 21 34 2 -1
BITMAP
00F000
00F000
00F000
00F000
00F000
00F000
00F000
07FF00
07FF00
07FF00
00F000
00F000
00F000
00F800
00F800
007C00
003F00
001F80
000FE0
0003F0
0001F0
0000F8
F00078
F00078
F00078
F00078
F80078
7800F8
7C00F0
3E01F0
3FFFE0
1FFFC0
07FF80
01FC00
ENDCHAR
STARTCHAR 01BF
ENCODING 447
SWIDTH 560 0
DWIDTH 28 0
BBX 24 38 3 -11
BITMAP
001FE0
F0FFF0
F1FFF8
F7FFFC
FFF07E
FF803E
FF001E
FC001F
F8001F
F8001F
F8001F
F8003E
F8003E
F8003E
F8007C
F8007C
F800F8
F801F8
F803F0
F807E0
F80FC0
F81F80
F83F00
F87E00
F8FC00
F9F000
FFE000
FF8000
FF0000
FC0000
F80000
F80000
F80000
F80000
F80000
F80000
F80000
F80000
ENDCHAR
STARTCHAR 01C0
ENCODING 448
SWIDTH 260 0
DWIDTH 13 0
BBX 3 47 5 -11
BITMAP
E0
E0
E0
E0
E0
E0
E0
E0
E0
E0
E0
E0
E0
E0
E0
E0
E0
E0
E0
E0
E0
E0
E0
E0
E0
E0
E0
E0
E0
E0
E0
E0
E0
E0
E0
E0
E0
E0
E0
E0
E0
E0
E0
E0
E0
E0
E0
ENDCHAR
STARTCHAR 01C1
ENCODING 449
SWIDTH 380 0
DWIDTH 19 0
BBX 9 47 5 -11
BITMAP
E780
E780
E780
E780
E780
E780
E780
E780
E780
E780
E780
E780
E780
E780
E780
E780
E780
E780
E780
E780
E780
E780
E780
E780
E780
E780
E780
E780
E780
E780
E780
E780
E780
E780
E780
E780
E780
E780
E780
E780
E780
E780
E780
E780
E780
E780
E780
ENDCHAR
STARTCHAR 01C2
ENCODING 450
SWIDTH 580 0
DWIDTH 29 0
BBX 23 46 3 -10
BITMAP
003800
003800
003800
003800
003800
003800
003800
003800
003800
003800
003800
003800
003800
003800
003800
003800
003800
003800
003FFE
FFFFFE
FFFFFE
FFFFFE
003800
003800
003800
003800
003FFE
FFFFFE
FFFFFE
FFFFFE
003800
003800
003800
003800
003800
003800
003800
003800
003800
003800
003800
003800
003800
003800
003800
003800
ENDCHAR
STARTCHAR 01C3
ENCODING 451
SWIDTH 280 0
DWIDTH 14 0
BBX 4 36 6 0
BITMAP
F0
F0
F0
F0
F0
F0
F0
F0
F0
F0
F0
F0
F0
F0
F0
F0
F0
F0
F0
F0
F0
F0
70
60
60
60
60
60
00
00
00
F0
F0
F0
F0
F0
ENDCHAR
STARTCHAR 01C4
ENCODING 452
SWIDTH 1280 0
DWIDTH 64 0
BBX 58 45 4 0
BITMAP
000000000380F000
0000000001E1E000
0000000000F3C000
0000000000FF8000
00000000007F8000
00000000003F0000
0000000000000000
0000000000000000
0000000000000000
FFFFC000FFFFFFC0
FFFFF800FFFFFFC0
FFFFFC00FFFFFFC0
FFFFFE00FFFFFFC0
F800FF0000000FC0
F8001F8000001F80
F8000FC000003F00
F80007C000003F00
F80003E000007E00
F80003E00000FC00
F80001F00001F800
F80001F00001F000
F80001F00003F000
F80000F00007E000
F80000F0000FC000
F80000F8001F8000
F80000F8001F0000
F80000F8003F0000
F80000F8007E0000
F80000F800FC0000
F80000F801F80000
F80000F001F80000
F80000F003F00000
F80001F007E00000
F80001F00FC00000
F80001F00F800000
F80003E01F800000
F80003E03F000000
F80007C07E000000
F8000FC0FC000000
F8001F80F8000000
F800FF01F8000000
FFFFFE03FFFFFFC0
FFFFFC03FFFFFFC0
FFFFF803FFFFFFC0
FFFFC003FFFFFFC0
ENDCHAR
STARTCHAR 01C5
ENCODING 453
SWIDTH 1180 0
DWIDTH 59 0
BBX 53 36 4 0
BITMAP
FFFFC0000E03C0
FFFFF800070380
FFFFFC00078780
FFFFFE0003CF00
F800FF0001FE00
F8001F8001FE00
F8000FC000FC00
F80007C0000000
F80003E0000000
F80003E0000000
F80001F07FFFF8
F80001F07FFFF8
F80001F07FFFF8
F80000F07FFFF8
F80000F00001F0
F80000F80003E0
F80000F80007C0
F80000F8000F80
F80000F8001F80
F80000F8001F00
F80000F8003E00
F80000F0007C00
F80000F000F800
F80001F001F000
F80001F003F000
F80001F003E000
F80003E007C000
F80003E00F8000
F80007C01F0000
F8000FC03E0000
F8001F807C0000
F800FF007C0000
FFFFFE00FFFFF8
FFFFFC00FFFFF8
FFFFF800FFFFF8
FFFFC000FFFFF8
ENDCHAR
STARTCHAR 01C6
ENCODING 454
SWIDTH 1040 0
DWIDTH 52 0
BBX 48 37 2 -1
BITMAP
00001E01C078
00001E00E070
00001E00F0E0
00001E0079E0
00001E003FC0
00001E003F80
00001E001F80
00001E000000
00001E000000
00FC1E000000
03FF1E0FFFFE
0FFFDE0FFFFE
1FFFDE0FFFFE
3FC3FE0FFFFE
3F00FE00003E
7E007E00007C
7C007E0000F8
7C003E0001F0
F8003E0003E0
F8001E0003E0
F8001E0007C0
F8001E000F80
F8001E001F00
F8001E003E00
F8001E007C00
F8001E00FC00
F8001E00F800
F8003E01F000
7C003E03E000
7C003E07C000
7E007E0F8000
3F00FE1F8000
3FC3FE1FFFFF
1FFFDE1FFFFF
0FFF9E1FFFFF
03FF1E1FFFFF
00FC00000000
ENDCHAR
STARTCHAR 01C7
ENCODING 455
SWIDTH 1060 0
DWIDTH 53 0
BBX 45 37 4 -1
BITMAP
F800000000F8
F800000000F8
F800000000F8
F800000000F8
F800000000F8
F800000000F8
F800000000F8
F800000000F8
F800000000F8
F800000000F8
F800000000F8
F800000000F8
F800000000F8
F800000000F8
F800000000F8
F800000000F8
F800000000F8
F800000000F8
F800000000F8
F800000000F8
F800000000F8
F800000000F8
F800000000F8
F800000000F8
F800000000F8
F80000F800F8
F80000F800F8
F80000F800F8
F80000F800F8
F80000F800F8
F800007C01F0
F800007E01F0
FFFFFE7F07F0
FFFFFE3FFFE0
FFFFFE1FFFC0
FFFFFE0FFF80
00000001FC00
ENDCHAR
STARTCHAR 01C8
ENCODING 456
SWIDTH 780 0
DWIDTH 39 0
BBX 32 47 4 -11
BITMAP
F800000F
F800000F
F800000F
F800000F
F800000F
F8000000
F8000000
F8000000
F8000000
F8000000
F800000F
F800000F
F800000F
F800000F
F800000F
F800000F
F800000F
F800000F
F800000F
F800000F
F800000F
F800000F
F800000F
F800000F
F800000F
F800000F
F800000F
F800000F
F800000F
F800000F
F800000F
F800000F
FFFFFE0F
FFFFFE0F
FFFFFE0F
FFFFFE0F
0000000F
0000000F
0000000F
0000000F
0000000F
0000000F
0000001F
000001FF
000001FE
000001FC
000001F0
ENDCHAR
STARTCHAR 01C9
ENCODING 457
SWIDTH 420 0
DWIDTH 21 0
BBX 15 47 3 -11
BITMAP
F81E
F81E
F81E
F81E
F81E
F800
F800
F800
F800
F800
F81E
F81E
F81E
F81E
F81E
F81E
F81E
F81E
F81E
F81E
F81E
F81E
F81E
F81E
F81E
F81E
F81E
F81E
F81E
F81E
F81E
F81E
F81E
F81E
F81E
F81E
001E
001E
001E
001E
001E
001E
003E
01FE
01FE
01FC
01F0
ENDCHAR
STARTCHAR 01CA
ENCODING 458
SWIDTH 1220 0
DWIDTH 61 0
BBX 53 37 4 -1
BITMAP
FC0000F80000F8
FC0000F80000F8
FE0000F80000F8
FF0000F80000F8
FF0000F80000F8
FF8000F80000F8
FF8000F80000F8
FFC000F80000F8
FBE000F80000F8
FBE000F80000F8
F9F000F80000F8
F8F800F80000F8
F8F800F80000F8
F87C00F80000F8
F83E00F80000F8
F83E00F80000F8
F81F00F80000F8
F81F00F80000F8
F80F80F80000F8
F807C0F80000F8
F807C0F80000F8
F803E0F80000F8
F801F0F80000F8
F801F0F80000F8
F800F8F80000F8
F80078F8F800F8
F8007CF8F800F8
F8003EF8F800F8
F8003EF8F800F8
F8001FF8F800F8
F8000FF87C01F8
F8000FF87E01F0
F80007F87F07F0
F80003F83FFFE0
F80003F81FFFC0
F80001F80FFF80
0000000001FC00
ENDCHAR
STARTCHAR 01CB
ENCODING 459
SWIDTH 920 0
DWIDTH 46 0
BBX 39 47 4 -11
BITMAP
FC0000F81E
FC0000F81E
FE0000F81E
FF0000F81E
FF0000F81E
FF8000F800
FF8000F800
FFC000F800
FBE000F800
FBE000F800
F9F000F81E
F8F800F81E
F8F800F81E
F87C00F81E
F83E00F81E
F83E00F81E
F81F00F81E
F81F00F81E
F80F80F81E
F807C0F81E
F807C0F81E
F803E0F81E
F801F0F81E
F801F0F81E
F800F8F81E
F80078F81E
F8007CF81E
F8003EF81E
F8003EF81E
F8001FF81E
F8000FF81E
F8000FF81E
F80007F81E
F80003F81E
F80003F81E
F80001F81E
000000001E
000000001E
000000001E
000000001E
000000001E
000000001E
000000003E
00000001FE
00000001FE
00000001FC
00000001F0
ENDCHAR
STARTCHAR 01CC
ENCODING 460
SWIDTH 760 0
DWIDTH 38 0
BBX 32 47 3 -11
BITMAP
0000000F
0000000F
0000000F
0000000F
0000000F
00000000
00000000
00000000
00000000
007F0000
F1FFC00F
F3FFE00F
F7FFF00F
FF01F80F
FE00F80F
FC00780F
FC00780F
F800780F
F800780F
F800780F
F800780F
F800780F
F800780F
F800780F
F800780F
F800780F
F800780F
F800780F
F800780F
F800780F
F800780F
F800780F
F800780F
F800780F
F800780F
F800780F
0000000F
0000000F
0000000F
0000000F
0000000F
0000000F
0000001F
000001FF
000001FE
000001FC
000001F0
ENDCHAR
STARTCHAR 01CD
ENCODING 461
SWIDTH 660 0
DWIDTH 33 0
BBX 31 45 1 0
BITMAP
00701E00
003C3C00
001E7800
001FF000
000FF000
0007E000
00000000
00000000
00000000
0007E000
000FE000
000FF000
001FF000
001FF000
001EF800
003EF800
003E7800
003C7C00
007C7C00
007C3C00
00783E00
00F83E00
00F81F00
00F01F00
01F01F00
01E00F80
03E00F80
03E00F80
03C007C0
07C007C0
07FFFFC0
07FFFFE0
0FFFFFE0
0FFFFFE0
0F0001F0
1F0001F0
1F0001F8
3E0000F8
3E0000F8
3E0000FC
7C00007C
7C00007C
7C00007E
F800003E
F800003E
ENDCHAR
STARTCHAR 01CE
ENCODING 462
SWIDTH 540 0
DWIDTH 27 0
BBX 24 37 2 -1
BITMAP
0701E0
0781C0
03C380
01E780
01EF00
00FE00
007E00
007C00
000000
01FF00
07FFC0
1FFFE0
3FFFF0
3F83F8
7E00F8
7C0078
7C0078
000078
000078
0000F8
0003F8
00FFF8
0FFFF8
3FFF78
7FE078
7E0078
FC0078
F80078
F80078
F80078
F800F8
F801F8
7C03F8
7FFFFF
3FFF7F
1FFC3F
07F01F
ENDCHAR
STARTCHAR 01CF
ENCODING 463
SWIDTH 300 0
DWIDTH 15 0
BBX 14 45 0 0
BITMAP
E03C
7878
3CF0
3FE0
1FE0
0FC0
0000
0000
0000
07C0
07C0
07C0
07C0
07C0
07C0
07C0
07C0
07C0
07C0
07C0
07C0
07C0
07C0
07C0
07C0
07C0
07C0
07C0
07C0
07C0
07C0
07C0
07C0
07C0
07C0
07C0
07C0
07C0
07C0
07C0
07C0
07C0
07C0
07C0
07C0
ENDCHAR
STARTCHAR 01D0
ENCODING 464
SWIDTH 260 0
DWIDTH 13 0
BBX 13 36 0 0
BITMAP
E038
F078
7870
38F0
3DE0
1FC0
0FC0
0F80
0000
0000
0780
0780
0780
0780
0780
0780
0780
0780
0780
0780
0780
0780
0780
0780
0780
0780
0780
0780
0780
0780
0780
0780
0780
0780
0780
0780
ENDCHAR
STARTCHAR 01D1
ENCODING 465
SWIDTH 780 0
DWIDTH 39 0
BBX 36 46 2 -1
BITMAP
00380F0000
001E1E0000
000F3C0000
000FF80000
0007F80000
0003F00000
0000000000
0000000000
0000000000
001FFF0000
007FFFE000
01FFFFF000
03FFFFF800
07F801FE00
0FE0007E00
1F80003F00
1F00001F80
3F00000F80
3E000007C0
7C000007C0
7C000003E0
78000003E0
F8000003E0
F8000001E0
F8000001E0
F8000001F0
F8000001F0
F8000001F0
F8000001F0
F8000001F0
F8000001E0
F8000001E0
78000003E0
7C000003E0
7C000003E0
7E000007C0
3E00000FC0
3F00000F80
1F80001F80
0FC0003F00
07F000FE00
03FC07FC00
01FFFFF800
00FFFFE000
003FFFC000
0007FC0000
ENDCHAR
STARTCHAR 01D2
ENCODING 466
SWIDTH 540 0
DWIDTH 27 0
BBX 24 37 2 -1
BITMAP
0701E0
0783C0
03C380
01E780
01EF00
00FE00
007E00
007C00
000000
00FF00
03FFC0
0FFFE0
1FFFF0
1F83F8
3F00FC
7E007C
7C003E
7C003E
F8003E
F8001E
F8001E
F8001F
F8001F
F8001F
F8001F
F8001F
F8001E
F8003E
7C003E
7C003E
7E007C
3F00FC
1F83F8
1FFFF0
0FFFE0
03FFC0
00FF00
ENDCHAR
STARTCHAR 01D3
ENCODING 467
SWIDTH 720 0
DWIDTH 36 0
BBX 28 46 4 -1
BITMAP
01C07800
00F0F000
0079E000
007FC000
003FC000
001F8000
00000000
00000000
00000000
F80001F0
F80001F0
F80001F0
F80001F0
F80001F0
F80001F0
F80001F0
F80001F0
F80001F0
F80001F0
F80001F0
F80001F0
F80001F0
F80001F0
F80001F0
F80001F0
F80001F0
F80001F0
F80001F0
F80001F0
F80001F0
F80001F0
F80001F0
F80001F0
F80001F0
F80001F0
F80001F0
F80001E0
F80003E0
7C0003E0
7E0007E0
3F000FC0
3FE07F80
1FFFFF00
0FFFFE00
03FFF800
007FC000
ENDCHAR
STARTCHAR 01D4
ENCODING 468
SWIDTH 540 0
DWIDTH 27 0
BBX 21 37 3 -1
BITMAP
0E03C0
0F0380
078700
03CF00
03DE00
01FC00
00FC00
00F800
000000
000000
F00078
F00078
F00078
F00078
F00078
F00078
F00078
F00078
F00078
F00078
F00078
F00078
F00078
F00078
F00078
F00078
F00078
F00078
F000F8
F000F8
F801F8
F803F8
FC07F8
7FFF78
3FFE78
1FFC78
07F000
ENDCHAR
STARTCHAR 01D5
ENCODING 469
SWIDTH 720 0
DWIDTH 36 0
BBX 28 49 4 -1
BITMAP
01FFF000
01FFF000
01FFF000
00000000
00F8F800
00F8F800
00F8F800
00F8F800
00F8F800
00F8F800
00000000
00000000
F80001F0
F80001F0
F80001F0
F80001F0
F80001F0
F80001F0
F80001F0
F80001F0
F80001F0
F80001F0
F80001F0
F80001F0
F80001F0
F80001F0
F80001F0
F80001F0
F80001F0
F80001F0
F80001F0
F80001F0
F80001F0
F80001F0
F80001F0
F80001F0
F80001F0
F80001F0
F80001F0
F80001E0
F80003E0
7C0003E0
7E0007E0
3F000FC0
3FE07F80
1FFFFF00
0FFFFE00
03FFF800
007FC000
ENDCHAR
STARTCHAR 01D6
ENCODING 470
SWIDTH 540 0
DWIDTH 27 0
BBX 21 42 3 -1
BITMAP
1FFF80
1FFF80
1FFF80
1FFF80
000000
000000
0FCFC0
0FCFC0
0FCFC0
0FCFC0
0FCFC0
000000
000000
000000
000000
F00078
F00078
F00078
F00078
F00078
F00078
F00078
F00078
F00078
F00078
F00078
F00078
F00078
F00078
F00078
F00078
F00078
F00078
F000F8
F000F8
F801F8
F803F8
FC07F8
7FFF78
3FFE78
1FFC78
07F000
ENDCHAR
STARTCHAR 01D7
ENCODING 471
SWIDTH 720 0
DWIDTH 36 0
BBX 28 51 4 -1
BITMAP
0000FC00
0001F000
0003E000
0007C000
000F0000
001E0000
00000000
00F8F800
00F8F800
00F8F800
00F8F800
00F8F800
00F8F800
00000000
F80001F0
F80001F0
F80001F0
F80001F0
F80001F0
F80001F0
F80001F0
F80001F0
F80001F0
F80001F0
F80001F0
F80001F0
F80001F0
F80001F0
F80001F0
F80001F0
F80001F0
F80001F0
F80001F0
F80001F0
F80001F0
F80001F0
F80001F0
F80001F0
F80001F0
F80001F0
F80001F0
F80001E0
F80003E0
7C0003E0
7E0007E0
3F000FC0
3FE07F80
1FFFFF00
0FFFFE00
03FFF800
007FC000
ENDCHAR
STARTCHAR 01D8
ENCODING 472
SWIDTH 540 0
DWIDTH 27 0
BBX 21 46 3 -1
BITMAP
0003F0
0003E0
0007C0
000F80
000F00
001E00
003C00
003800
000000
000000
0FCFC0
0FCFC0
0FCFC0
0FCFC0
0FCFC0
000000
000000
000000
000000
F00078
F00078
F00078
F00078
F00078
F00078
F00078
F00078
F00078
F00078
F00078
F00078
F00078
F00078
F00078
F00078
F00078
F00078
F000F8
F000F8
F801F8
F803F8
FC07F8
7FFF78
3FFE78
1FFC78
07F000
ENDCHAR
STARTCHAR 01D9
ENCODING 473
SWIDTH 720 0
DWIDTH 36 0
BBX 28 50 4 -1
BITMAP
01C07800
00F0F000
0079E000
007FC000
003FC000
001F8000
00000000
00F8F800
00F8F800
00F8F800
00F8F800
00F8F800
00000000
F80001F0
F80001F0
F80001F0
F80001F0
F80001F0
F80001F0
F80001F0
F80001F0
F80001F0
F80001F0
F80001F0
F80001F0
F80001F0
F80001F0
F80001F0
F80001F0
F80001F0
F80001F0
F80001F0
F80001F0
F80001F0
F80001F0
F80001F0
F80001F0
F80001F0
F80001F0
F80001F0
F80001E0
F80003E0
7C0003E0
7E0007E0
3F000FC0
3FE07F80
1FFFFF00
0FFFFE00
03FFF800
007FC000
ENDCHAR
STARTCHAR 01DA
ENCODING 474
SWIDTH 540 0
DWIDTH 27 0
BBX 21 45 3 -1
BITMAP
0F0380
070780
078F00
03DE00
01FE00
01FC00
00FC00
000000
000000
0FCFC0
0FCFC0
0FCFC0
0FCFC0
0FCFC0
000000
000000
000000
000000
F00078
F00078
F00078
F00078
F00078
F00078
F00078
F00078
F00078
F00078
F00078
F00078
F00078
F00078
F00078
F00078
F00078
F00078
F000F8
F000F8
F801F8
F803F8
FC07F8
7FFF78
3FFE78
1FFC78
07F000
ENDCHAR
STARTCHAR 01DB
ENCODING 475
SWIDTH 720 0
DWIDTH 36 0
BBX 28 50 4 -1
BITMAP
01F80000
00FC0000
003E0000
001E0000
000F0000
00038000
00F8F800
00F8F800
00F8F800
00F8F800
00F8F800
00F8F800
00000000
F80001F0
F80001F0
F80001F0
F80001F0
F80001F0
F80001F0
F80001F0
F80001F0
F80001F0
F80001F0
F80001F0
F80001F0
F80001F0
F80001F0
F80001F0
F80001F0
F80001F0
F80001F0
F80001F0
F80001F0
F80001F0
F80001F0
F80001F0
F80001F0
F80001F0
F80001F0
F80001F0
F80001E0
F80003E0
7C0003E0
7E0007E0
3F000FC0
3FE07F80
1FFFFF00
0FFFFE00
03FFF800
007FC000
ENDCHAR
STARTCHAR 01DC
ENCODING 476
SWIDTH 540 0
DWIDTH 27 0
BBX 21 46 3 -1
BITMAP
3E0000
1F0000
0F8000
078000
03C000
01E000
00E000
007000
000000
000000
0FCFC0
0FCFC0
0FCFC0
0FCFC0
0FCFC0
000000
000000
000000
000000
F00078
F00078
F00078
F00078
F00078
F00078
F00078
F00078
F00078
F00078
F00078
F00078
F00078
F00078
F00078
F00078
F00078
F00078
F000F8
F000F8
F801F8
F803F8
FC07F8
7FFF78
3FFE78
1FFC78
07F000
ENDCHAR
STARTCHAR 01DD
ENCODING 477
SWIDTH 540 0
DWIDTH 27 0
BBX 24 28 1 -1
BITMAP
007C00
03FF80
0FFFE0
1FFFF0
1FC7F8
3F00F8
7C007C
7C007C
78003E
00003E
00001E
00001E
00001F
FFFFFF
FFFFFF
FFFFFF
FFFFFF
F8001E
F8001E
78003E
7C003E
7C007C
3E00FC
3F81F8
1FFFF0
0FFFE0
07FFC0
01FF00
ENDCHAR
STARTCHAR 01DE
ENCODING 478
SWIDTH 660 0
DWIDTH 33 0
BBX 31 48 1 0
BITMAP
007FFC00
007FFC00
007FFC00
00000000
003E3E00
003E3E00
003E3E00
003E3E00
003E3E00
003E3E00
00000000
00000000
0007E000
000FE000
000FF000
001FF000
001FF000
001EF800
003EF800
003E7800
003C7C00
007C7C00
007C3C00
00783E00
00F83E00
00F81F00
00F01F00
01F01F00
01E00F80
03E00F80
03E00F80
03C007C0
07C007C0
07FFFFC0
07FFFFE0
0FFFFFE0
0FFFFFE0
0F0001F0
1F0001F0
1F0001F8
3E0000F8
3E0000F8
3E0000FC
7C00007C
7C00007C
7C00007E
F800003E
F800003E
ENDCHAR
STARTCHAR 01DF
ENCODING 479
SWIDTH 540 0
DWIDTH 27 0
BBX 24 41 2 -1
BITMAP
07FFC0
07FFC0
07FFC0
07FFC0
000000
03E3E0
03E3E0
03E3E0
03E3E0
03E3E0
000000
000000
000000
01FF00
07FFC0
1FFFE0
3FFFF0
3F83F8
7E00F8
7C0078
7C0078
000078
000078
0000F8
0003F8
00FFF8
0FFFF8
3FFF78
7FE078
7E0078
FC0078
F80078
F80078
F80078
F800F8
F801F8
7C03F8
7FFFFF
3FFF7F
1FFC3F
07F01F
ENDCHAR
STARTCHAR 01E0
ENCODING 480
SWIDTH 660 0
DWIDTH 33 0
BBX 31 48 1 0
BITMAP
007FFC00
007FFC00
007FFC00
007FFC00
00000000
0007E000
0007E000
0007E000
0007E000
0007E000
00000000
00000000
0007E000
000FE000
000FF000
001FF000
001FF000
001EF800
003EF800
003E7800
003C7C00
007C7C00
007C3C00
00783E00
00F83E00
00F81F00
00F01F00
01F01F00
01E00F80
03E00F80
03E00F80
03C007C0
07C007C0
07FFFFC0
07FFFFE0
0FFFFFE0
0FFFFFE0
0F0001F0
1F0001F0
1F0001F8
3E0000F8
3E0000F8
3E0000FC
7C00007C
7C00007C
7C00007E
F800003E
F800003E
ENDCHAR
STARTCHAR 01E1
ENCODING 481
SWIDTH 540 0
DWIDTH 27 0
BBX 24 41 2 -1
BITMAP
0FFFC0
0FFFC0
0FFFC0
0FFFC0
000000
007E00
007E00
007E00
007E00
007E00
000000
000000
000000
01FF00
07FFC0
1FFFE0
3FFFF0
3F83F8
7E00F8
7C0078
7C0078
000078
000078
0000F8
0003F8
00FFF8
0FFFF8
3FFF78
7FE078
7E0078
FC0078
F80078
F80078
F80078
F800F8
F801F8
7C03F8
7FFFFF
3FFF7F
1FFC3F
07F01F
ENDCHAR
STARTCHAR 01E2
ENCODING 482
SWIDTH 980 0
DWIDTH 49 0
BBX 47 44 1 0
BITMAP
000001FFF800
000001FFF800
000001FFF800
000001FFF800
000000000000
000000000000
000000000000
000000000000
0001FFFFFFFC
0003FFFFFFFC
0003FFFFFFFC
0003FFFFFFFC
0007C1F00000
000781F00000
000F81F00000
000F81F00000
000F01F00000
001F01F00000
001E01F00000
003E01F00000
003E01F00000
007C01F00000
007C01F00000
007801F00000
00F801FFFFF8
00F801FFFFF8
01F001FFFFF8
01F001FFFFF8
01E001F00000
03FFFFF00000
03FFFFF00000
07FFFFF00000
07FFFFF00000
0F8001F00000
0F8001F00000
0F8001F00000
1F0001F00000
1F0001F00000
3E0001F00000
3E0001F00000
3E0001FFFFFE
7C0001FFFFFE
7C0001FFFFFE
FC0001FFFFFE
ENDCHAR
STARTCHAR 01E3
ENCODING 483
SWIDTH 880 0
DWIDTH 44 0
BBX 41 36 2 -1
BITMAP
0007FFC00000
0007FFC00000
0007FFC00000
0007FFC00000
000000000000
000000000000
000000000000
000000000000
01FE007F0000
07FF81FFE000
1FFFE3FFF000
3FFFE7FFF800
3F83FFC1FC00
7E00FF007E00
7C007E003E00
7C007C001F00
00007C001F00
000078000F00
0000F8000F00
0007F8000F00
01FFFFFFFF80
0FFFFFFFFF80
3FFE7FFFFF80
7F8078000000
7E0078000000
F80078000000
F80078000000
F8007C000F00
F800FC001F00
F800FE001E00
F801FF003E00
7C07DFC0FC00
7FFF8FFFFC00
3FFF07FFF800
1FFC01FFE000
07F0007F8000
ENDCHAR
STARTCHAR 01E4
ENCODING 484
SWIDTH 780 0
DWIDTH 39 0
BBX 35 37 2 0
BITMAP
001FFE0000
007FFF8000
01FFFFE000
03FFFFF000
07F003F800
0FC000FC00
1F80007C00
1F00003E00
3E00003E00
3E00001E00
7C00001F00
7C00000000
7800000000
F800000000
F800000000
F800000000
F800000000
F8003FFF80
F8003FFF80
F8003FFF80
F8003FFF80
F800000780
F800000780
F800000780
7C003FFFE0
7C003FFFE0
7C003FFFE0
3E00001F80
3F00003F80
1F80007F80
1FC000FF80
0FE001FF80
07FC0FF780
03FFFFE780
01FFFF8380
007FFE0380
000FF00000
ENDCHAR
STARTCHAR 01E5
ENCODING 485
SWIDTH 560 0
DWIDTH 28 0
BBX 24 38 2 -11
BITMAP
00FC00
03FF1E
0FFF9E
1FFFDE
1F83FE
3F01FE
7E00FE
7C007E
7C007E
F8007E
F8003E
F8003E
F8003E
F8003E
F8003E
F8003E
F8003E
F8003E
F8007E
7C007E
7C007E
7E00FE
3F01FE
3F83FE
1FFFBE
0FFF3E
03FE3E
00FC3C
00003C
000FFF
7C0FFF
7C0FFF
3E00F8
3F01F8
1FFFF0
0FFFE0
07FFC0
01FE00
ENDCHAR
STARTCHAR 01E6
ENCODING 486
SWIDTH 760 0
DWIDTH 38 0
BBX 33 46 2 -1
BITMAP
00380F0000
001E1E0000
000F3C0000
000FF80000
0007F80000
0003F00000
0000000000
0000000000
0000000000
001FFE0000
007FFF8000
01FFFFE000
03FFFFF000
07F003F800
0FC000FC00
1F80007C00
1F00003E00
3E00003E00
3E00001E00
7C00001F00
7C00000000
7800000000
F800000000
F800000000
F800000000
F800000000
F8003FFF80
F8003FFF80
F8003FFF80
F8003FFF80
F800000780
F800000780
F800000780
7C00000780
7C00000F80
7C00000F80
3E00000F80
3F00001F80
1F80003F80
1FC0007F80
0FE001FF80
07FC07F780
03FFFFE780
01FFFF8380
007FFE0380
000FF00000
ENDCHAR
STARTCHAR 01E7
ENCODING 487
SWIDTH 560 0
DWIDTH 28 0
BBX 23 47 2 -11
BITMAP
0E03C0
0F0780
078700
03CF00
03DE00
01FC00
00FC00
00F800
000000
00FC00
03FF3E
0FFFBE
1FFFFE
1F83FE
3F01FE
7E00FE
7C007E
7C007E
F8007E
F8003E
F8003E
F8003E
F8003E
F8003E
F8003E
F8003E
F8003E
F8007E
7C007E
7C007E
7E00FE
3F01FE
3F83FE
1FFFBE
0FFF3E
03FE3E
00FC3C
00003C
00007C
7C007C
7C007C
7C00F8
3E01F8
3FFFF0
1FFFE0
07FFC0
01FF00
ENDCHAR
STARTCHAR 01E8
ENCODING 488
SWIDTH 680 0
DWIDTH 34 0
BBX 29 45 4 0
BITMAP
01C07800
00F0F000
0079E000
007FC000
003FC000
001F8000
00000000
00000000
00000000
F80003F0
F80007E0
F8000FC0
F8001F80
F8003F00
F8007E00
F800FC00
F801F800
F803F000
F807E000
F80FC000
F81F8000
F83F0000
F87E0000
F8FC0000
F9FE0000
FBFE0000
FFFF0000
FFDF8000
FF8F8000
FF07C000
FE07E000
FC03E000
F801F000
F801F800
F800FC00
F8007C00
F8003E00
F8003F00
F8001F00
F8000F80
F8000FC0
F80007C0
F80003E0
F80003F0
F80001F8
ENDCHAR
STARTCHAR 01E9
ENCODING 489
SWIDTH 520 0
DWIDTH 26 0
BBX 22 44 3 0
BITMAP
0E0780
0F0700
078F00
03DE00
03FC00
01FC00
00F800
000000
F00000
F00000
F00000
F00000
F00000
F00000
F00000
F00000
F00000
F00000
F001F0
F003E0
F007C0
F00F80
F01F00
F03E00
F07C00
F0F800
F1F000
F3F000
F7F000
FFF800
FF7C00
FE7C00
FC3E00
F83F00
F01F00
F00F80
F00F80
F007C0
F003E0
F003E0
F001F0
F001F8
F000F8
F0007C
ENDCHAR
STARTCHAR 01EA
ENCODING 490
SWIDTH 780 0
DWIDTH 39 0
BBX 36 47 2 -10
BITMAP
001FFF0000
007FFFC000
01FFFFF000
03FFFFF800
07F801FC00
0FE0007E00
1F80003F00
1F00001F80
3F00000F80
3E000007C0
7C000007C0
7C000003E0
7C000003E0
F8000003E0
F8000001E0
F8000001E0
F8000001F0
F8000001F0
F8000001F0
F8000001F0
F8000001F0
F8000001E0
F8000001E0
78000003E0
7C000003E0
7C000003E0
7C000007C0
3E000007C0
3F00000F80
1F80001F80
0FC0003F00
0FE000FE00
07F803FC00
03FFFFF800
00FFFFF000
003FFFC000
000FFE0000
0003C00000
0007800000
000F000000
001E000000
001E000000
001E000000
001E000000
000F040000
0007FC0000
0001FC0000
ENDCHAR
STARTCHAR 01EB
ENCODING 491
SWIDTH 540 0
DWIDTH 27 0
BBX 24 38 2 -11
BITMAP
00FE00
03FFC0
0FFFE0
1FFFF0
1F83F8
3F00FC
7E007C
7C007E
7C003E
F8003E
F8001E
F8001E
F8001F
F8001F
F8001F
F8001F
F8001F
F8001E
F8003E
78003E
7C003E
7C007C
3E00FC
3F01F8
1FFFF0
0FFFE0
07FFC0
01FF00
00F000
01E000
03C000
078000
078000
078000
078000
03C200
01FE00
007E00
ENDCHAR
STARTCHAR 01EC
ENCODING 492
SWIDTH 780 0
DWIDTH 39 0
BBX 36 54 2 -11
BITMAP
003FFF0000
003FFF0000
003FFF0000
0000000000
0000000000
0000000000
0000000000
001FFF0000
007FFFC000
01FFFFF000
03FFFFF800
07F801FC00
0FE0007E00
1F80003F00
1F00001F80
3F00000F80
3E000007C0
7C000007C0
7C000003E0
7C000003E0
F8000003E0
F8000001E0
F8000001E0
F8000001F0
F8000001F0
F8000001F0
F8000001F0
F8000001F0
F8000001E0
F8000001E0
78000003E0
7C000003E0
7C000003E0
7C000007C0
3E000007C0
3F00000F80
1F80001F80
0FC0003F00
0FE000FE00
07F803FC00
03FFFFF800
00FFFFF000
003FFFC000
000FFE0000
0003C00000
0007800000
000F000000
001E000000
001E000000
001E000000
001E000000
000F040000
0007FC0000
0001FC0000
ENDCHAR
STARTCHAR 01ED
ENCODING 493
SWIDTH 540 0
DWIDTH 27 0
BBX 24 43 2 -11
BITMAP
0FFFC0
0FFFC0
0FFFC0
000000
000000
00FE00
03FFC0
0FFFE0
1FFFF0
1F83F8
3F00FC
7E007C
7C007E
7C003E
F8003E
F8001E
F8001E
F8001F
F8001F
F8001F
F8001F
F8001F
F8001E
F8003E
78003E
7C003E
7C007C
3E00FC
3F01F8
1FFFF0
0FFFE0
07FFC0
01FF00
00F000
01E000
03C000
078000
078000
078000
078000
03C200
01FE00
007E00
ENDCHAR
STARTCHAR 01EE
ENCODING 494
SWIDTH 620 0
DWIDTH 31 0
BBX 28 46 2 -1
BITMAP
01C07800
00F0F000
0079E000
007FC000
003FC000
001F8000
00000000
00000000
00000000
3FFFFFF0
3FFFFFF0
3FFFFFF0
3FFFFFF0
000003E0
000007E0
00000FC0
00001F80
00003F00
00007E00
0000FC00
0000FC00
0001F800
0007F000
001FE000
001FF800
001FFE00
001FFF80
0000FFC0
00001FC0
000007E0
000003E0
000003E0
000001F0
000001F0
000001F0
F80001F0
F80001F0
F80003E0
7C0003E0
7C0007E0
7F000FC0
3FC07F80
1FFFFF00
0FFFFE00
03FFF800
007FC000
ENDCHAR
STARTCHAR 01EF
ENCODING 495
SWIDTH 520 0
DWIDTH 26 0
BBX 24 43 1 -7
BITMAP
0700E0
0381C0
03C3C0
01E780
00FF00
00FF00
007E00
007C00
000000
000000
3FFFF8
3FFFF8
3FFFF8
3FFFF8
0000F8
0001F0
0003E0
0007C0
000780
000F80
001F00
003E00
003F00
003FE0
003FF0
003FFC
0000FC
00003E
00003E
00001E
00001F
00001F
F8001F
F8001F
F8001E
78003E
7C003E
7E007C
3F81FC
1FFFF8
0FFFF0
07FFC0
00FF00
ENDCHAR
STARTCHAR 01F0
ENCODING 496
SWIDTH 220 0
DWIDTH 11 0
BBX 13 46 -1 -11
BITMAP
E038
F078
78F0
3CE0
3DE0
1FC0
0FC0
0000
0000
0780
0780
0780
0780
0780
0780
0780
0780
0780
0780
0780
0780
0780
0780
0780
0780
0780
0780
0780
0780
0780
0780
0780
0780
0780
0780
0780
0780
0780
0780
0780
0780
0F80
7F80
7F00
7F00
7C00
ENDCHAR
STARTCHAR 01F1
ENCODING 497
SWIDTH 1300 0
DWIDTH 65 0
BBX 59 36 4 0
BITMAP
FFFFC0007FFFFFE0
FFFFF8007FFFFFE0
FFFFFC007FFFFFE0
FFFFFE007FFFFFE0
F800FF00000007E0
F8001F8000000FC0
F8000FC000000F80
F80007C000001F80
F80003E000003F00
F80003E000007E00
F80001F00000FC00
F80001F00000FC00
F80001F00001F800
F80000F00003F000
F80000F00007E000
F80000F8000FC000
F80000F8000FC000
F80000F8001F8000
F80000F8003F0000
F80000F8007E0000
F80000F8007C0000
F80000F000FC0000
F80000F001F80000
F80001F003F00000
F80001F007E00000
F80001F007C00000
F80003E00FC00000
F80003E01F800000
F80007C03F000000
F8000FC07E000000
F8001F807E000000
F800FF00FC000000
FFFFFE00FFFFFFE0
FFFFFC00FFFFFFE0
FFFFF800FFFFFFE0
FFFFC000FFFFFFE0
ENDCHAR
STARTCHAR 01F2
ENCODING 498
SWIDTH 1180 0
DWIDTH 59 0
BBX 53 36 4 0
BITMAP
FFFFC000000000
FFFFF800000000
FFFFFC00000000
FFFFFE00000000
F800FF00000000
F8001F80000000
F8000FC0000000
F80007C0000000
F80003E0000000
F80003E0000000
F80001F07FFFF8
F80001F07FFFF8
F80001F07FFFF8
F80000F07FFFF8
F80000F00001F0
F80000F80003E0
F80000F80007C0
F80000F8000FC0
F80000F8000F80
F80000F8001F00
F80000F8003E00
F80000F0007C00
F80000F000F800
F80001F001F800
F80001F001F000
F80001F003E000
F80003E007C000
F80003E00F8000
F80007C01F0000
F8000FC03F0000
F8001F803E0000
F800FF007C0000
FFFFFE00FFFFF8
FFFFFC00FFFFF8
FFFFF800FFFFF8
FFFFC000FFFFF8
ENDCHAR
STARTCHAR 01F3
ENCODING 499
SWIDTH 1040 0
DWIDTH 52 0
BBX 49 37 2 -1
BITMAP
00001E00000000
00001E00000000
00001E00000000
00001E00000000
00001E00000000
00001E00000000
00001E00000000
00001E00000000
00001E00000000
00FC1E00000000
03FF1E0FFFFF00
0FFFDE0FFFFF00
1FFFDE0FFFFF00
3FC3FE0FFFFF00
3F00FE00003E00
7E007E00007C00
7C007E00007C00
7C003E0000F800
F8003E0001F000
F8001E0003E000
F8001E0007C000
F8001E000F8000
F8001E001F8000
F8001E001F0000
F8001E003E0000
F8001E007C0000
F8001E00F80000
F8003E01F00000
7C003E03F00000
7C003E03E00000
7E007E07C00000
3F00FE0F800000
3FC3FE1FFFFF80
1FFFDE1FFFFF80
0FFF9E1FFFFF80
03FF1E1FFFFF80
00FC0000000000
ENDCHAR
STARTCHAR 01F4
ENCODING 500
SWIDTH 760 0
DWIDTH 38 0
BBX 33 46 2 -1
BITMAP
00001F8000
00003E0000
00007C0000
0000F80000
0001E00000
0003C00000
0000000000
0000000000
0000000000
001FFE0000
007FFF8000
01FFFFE000
03FFFFF000
07F003F800
0FC000FC00
1F80007C00
1F00003E00
3E00003E00
3E00001E00
7C00001F00
7C00000000
7800000000
F800000000
F800000000
F800000000
F800000000
F8003FFF80
F8003FFF80
F8003FFF80
F8003FFF80
F800000780
F800000780
F800000780
7C00000780
7C00000F80
7C00000F80
3E00000F80
3F00001F80
1F80003F80
1FC0007F80
0FE001FF80
07FC07F780
03FFFFE780
01FFFF8380
007FFE0380
000FF00000
ENDCHAR
STARTCHAR 01F5
ENCODING 501
SWIDTH 560 0
DWIDTH 28 0
BBX 23 47 2 -11
BITMAP
0003F0
0007E0
0007C0
000F80
001F00
001E00
003C00
003800
000000
00FC00
03FF3E
0FFFBE
1FFFFE
1F83FE
3F01FE
7E00FE
7C007E
7C007E
F8007E
F8003E
F8003E
F8003E
F8003E
F8003E
F8003E
F8003E
F8003E
F8007E
7C007E
7C007E
7E00FE
3F01FE
3F83FE
1FFFBE
0FFF3E
03FE3E
00FC3C
00003C
00007C
7C007C
7C007C
7C00F8
3E01F8
3FFFF0
1FFFE0
07FFC0
01FF00
ENDCHAR
STARTCHAR 01F7
ENCODING 503
SWIDTH 600 0
DWIDTH 30 0
BBX 25 37 4 0
BITMAP
001FF000
F87FF800
F9FFFE00
FBFFFE00
FFF07F00
FFC01F00
FF000F00
FC000F80
F8000F80
F8000F80
F8000F00
F8001F00
F8001F00
F8003E00
F8003E00
F8007E00
F800FC00
F801F800
F803F000
F807F000
F80FE000
F81F8000
F87F0000
F8FE0000
FBFC0000
FFF80000
FFE00000
FFC00000
FF000000
FC000000
F8000000
F8000000
F8000000
F8000000
F8000000
F8000000
F8000000
ENDCHAR
STARTCHAR 01F8
ENCODING 504
SWIDTH 740 0
DWIDTH 37 0
BBX 29 45 4 0
BITMAP
003F0000
001F8000
0007C000
0003C000
0001E000
00007000
00000000
00000000
00000000
FC0000F8
FC0000F8
FE0000F8
FF0000F8
FF0000F8
FF8000F8
FF8000F8
FFC000F8
FBE000F8
FBE000F8
F9F000F8
F8F800F8
F8F800F8
F87C00F8
F83E00F8
F83E00F8
F81F00F8
F81F00F8
F80F80F8
F807C0F8
F807C0F8
F803E0F8
F801F0F8
F801F0F8
F800F8F8
F80078F8
F8007CF8
F8003EF8
F8003EF8
F8001FF8
F8000FF8
F8000FF8
F80007F8
F80003F8
F80003F8
F80001F8
ENDCHAR
STARTCHAR 01F9
ENCODING 505
SWIDTH 540 0
DWIDTH 27 0
BBX 21 37 3 0
BITMAP
1F8000
07C000
03C000
01E000
00F000
007000
003800
001C00
000000
000000
007F00
F1FFC0
F3FFE0
F7FFF0
FF01F8
FE00F8
FC0078
FC0078
F80078
F80078
F80078
F80078
F80078
F80078
F80078
F80078
F80078
F80078
F80078
F80078
F80078
F80078
F80078
F80078
F80078
F80078
F80078
ENDCHAR
STARTCHAR 01FA
ENCODING 506
SWIDTH 660 0
DWIDTH 33 0
BBX 31 45 1 0
BITMAP
0003F000
0007C000
000F8000
001F0000
003C0000
00798000
0007E000
000FF000
001EF800
001C3800
003C3800
003C3800
001C3800
001FF800
000FF000
0007E000
00000000
00000000
000FE000
000FE000
000FF000
001FF000
001EF800
003E7800
003C7C00
007C7C00
00783E00
00F83E00
00F01F00
01F01F00
01E00F80
03E00F80
03C007C0
07C007C0
07FFFFE0
0FFFFFE0
0FFFFFF0
1F0001F0
1F0001F0
3E0000F8
3E0000F8
7C00007C
7C00007C
F800003E
F800003E
ENDCHAR
STARTCHAR 01FB
ENCODING 507
SWIDTH 540 0
DWIDTH 27 0
BBX 24 46 2 -1
BITMAP
000FC0
001F00
003E00
007C00
00F000
01E000
007C00
00FF00
01FF80
01E780
03C380
03C3C0
03C380
01E780
01FF80
00FF00
003C00
000000
01FF00
07FFC0
1FFFE0
3FFFF0
3F83F8
7E00F8
7C0078
7C0078
000078
000078
0000F8
0003F8
00FFF8
0FFFF8
3FFF78
7FE078
7E0078
FC0078
F80078
F80078
F80078
F800F8
F801F8
7C03F8
7FFFFF
3FFF7F
1FFC3F
07F01F
ENDCHAR
STARTCHAR 01FC
ENCODING 508
SWIDTH 980 0
DWIDTH 49 0
BBX 47 45 1 0
BITMAP
00000001F800
00000003E000
00000007C000
0000000F8000
0000001E0000
0000003C0000
000000000000
000000000000
000000000000
0001FFFFFFFC
0003FFFFFFFC
0003FFFFFFFC
0003FFFFFFFC
0007C1F00000
000781F00000
000F81F00000
000F81F00000
000F01F00000
001F01F00000
001E01F00000
003E01F00000
003E01F00000
007C01F00000
007C01F00000
007801F00000
00F801FFFFF8
00F801FFFFF8
01F001FFFFF8
01F001FFFFF8
01E001F00000
03FFFFF00000
03FFFFF00000
07FFFFF00000
07FFFFF00000
0F8001F00000
0F8001F00000
0F8001F00000
1F0001F00000
1F0001F00000
3E0001F00000
3E0001F00000
3E0001FFFFFE
7C0001FFFFFE
7C0001FFFFFE
FC0001FFFFFE
ENDCHAR
STARTCHAR 01FD
ENCODING 509
SWIDTH 880 0
DWIDTH 44 0
BBX 41 37 2 -1
BITMAP
000001F80000
000001F00000
000003E00000
000007C00000
000007800000
00000F000000
00000E000000
00001C000000
000000000000
01FE007F0000
07FF81FFE000
1FFFE3FFF000
3FFFE7FFF800
3F83FFC1FC00
7E00FF007E00
7C007E003E00
7C007C001F00
00007C001F00
000078000F00
0000F8000F00
0007F8000F00
01FFFFFFFF80
0FFFFFFFFF80
3FFE7FFFFF80
7F8078000000
7E0078000000
F80078000000
F80078000000
F8007C000F00
F800FC001F00
F800FE001E00
F801FF003E00
7C07DFC0FC00
7FFF8FFFFC00
3FFF07FFF800
1FFC01FFE000
07F0007F8000
ENDCHAR
STARTCHAR 01FE
ENCODING 510
SWIDTH 780 0
DWIDTH 39 0
BBX 36 46 2 -1
BITMAP
00001F8000
00003E0000
00007C0000
0000F80000
0001E00000
0003C00000
0000000000
0000000000
0000000060
001FFF00F0
007FFFC1E0
01FFFFF3C0
03FFFFFB80
07F801FF00
0FE0007F00
1F80003F00
1F00003F80
3F00007F80
3E0000F7C0
7C0001E7C0
7C0003C3E0
7C000783E0
F8000F03E0
F8001E01E0
F8003C01E0
F8007801F0
F800F001F0
F801E001F0
F803C001F0
F8078001F0
F80F0001E0
F81E0001E0
781C0003E0
7C380003E0
7C700003E0
3EE00007C0
3FC0000FC0
3F80000F80
1F80001F80
0FC0003F00
1FF000FE00
3FFC07FC00
79FFFFF800
F0FFFFE000
E03FFFC000
4007FC0000
ENDCHAR
STARTCHAR 01FF
ENCODING 511
SWIDTH 620 0
DWIDTH 31 0
BBX 26 37 1 -1
BITMAP
0000FC00
0001F800
0001F000
0003E000
0003C000
00078000
000F0000
000E0000
00000000
00FF0100
03FFC1C0
07FFF380
1FFFFF00
1FC1FE00
3F007C00
7E003E00
7C007E00
7C00FF00
F801DF00
F8038F00
F8070F80
F80E0F80
F80C0F80
F81C0F80
F8380F80
F8700F80
F8E00F00
F9C01F00
7F801F00
7F003F00
3E003E00
3F007E00
3FC1FC00
7FFFF800
E7FFF000
C3FFE000
C07F0000
ENDCHAR
STARTCHAR 0200
ENCODING 512
SWIDTH 660 0
DWIDTH 33 0
BBX 31 45 1 0
BITMAP
07F3F000
01F1F000
00F9F000
0078F800
003C7800
001C3800
00000000
00000000
00000000
0007E000
000FE000
000FF000
001FF000
001FF000
001EF800
003EF800
003E7800
003C7C00
007C7C00
007C3C00
00783E00
00F83E00
00F81F00
00F01F00
01F01F00
01E00F80
03E00F80
03E00F80
03C007C0
07C007C0
07FFFFC0
07FFFFE0
0FFFFFE0
0FFFFFE0
0F0001F0
1F0001F0
1F0001F8
3E0000F8
3E0000F8
3E0000FC
7C00007C
7C00007C
7C00007E
F800003E
F800003E
ENDCHAR
STARTCHAR 0201
ENCODING 513
SWIDTH 540 0
DWIDTH 27 0
BBX 24 37 2 -1
BITMAP
7C7E00
3E3E00
1E1E00
0F1F00
0F0F00
078780
038780
01C380
000000
01FF00
07FFC0
1FFFE0
3FFFF0
3F83F8
7E00F8
7C0078
7C0078
000078
000078
0000F8
0003F8
00FFF8
0FFFF8
3FFF78
7FE078
7E0078
FC0078
F80078
F80078
F80078
F800F8
F801F8
7C03F8
7FFFFF
3FFF7F
1FFC3F
07F01F
ENDCHAR
STARTCHAR 0202
ENCODING 514
SWIDTH 660 0
DWIDTH 33 0
BBX 31 45 1 0
BITMAP
0007C000
003FF800
007FFC00
007FFC00
00F01E00
00E00E00
00000000
00000000
00000000
0007E000
000FE000
000FF000
001FF000
001FF000
001EF800
003EF800
003E7800
003C7C00
007C7C00
007C3C00
00783E00
00F83E00
00F81F00
00F01F00
01F01F00
01E00F80
03E00F80
03E00F80
03C007C0
07C007C0
07FFFFC0
07FFFFE0
0FFFFFE0
0FFFFFE0
0F0001F0
1F0001F0
1F0001F8
3E0000F8
3E0000F8
3E0000FC
7C00007C
7C00007C
7C00007E
F800003E
F800003E
ENDCHAR
STARTCHAR 0203
ENCODING 515
SWIDTH 540 0
DWIDTH 27 0
BBX 24 37 2 -1
BITMAP
001000
01FF00
07FF80
07FFC0
0F03C0
0E01E0
000000
000000
000000
01FF00
07FFC0
1FFFE0
3FFFF0
3F83F8
7E00F8
7C0078
7C0078
000078
000078
0000F8
0003F8
00FFF8
0FFFF8
3FFF78
7FE078
7E0078
FC0078
F80078
F80078
F80078
F800F8
F801F8
7C03F8
7FFFFF
3FFF7F
1FFC3F
07F01F
ENDCHAR
STARTCHAR 0204
ENCODING 516
SWIDTH 640 0
DWIDTH 32 0
BBX 26 45 4 0
BITMAP
1FCFC000
07C7C000
03E7C000
01E3E000
00F1E000
0070E000
00000000
00000000
00000000
FFFFFF80
FFFFFF80
FFFFFF80
FFFFFF80
F8000000
F8000000
F8000000
F8000000
F8000000
F8000000
F8000000
F8000000
F8000000
F8000000
F8000000
F8000000
FFFFFF00
FFFFFF00
FFFFFF00
FFFFFF00
F8000000
F8000000
F8000000
F8000000
F8000000
F8000000
F8000000
F8000000
F8000000
F8000000
F8000000
F8000000
FFFFFFC0
FFFFFFC0
FFFFFFC0
FFFFFFC0
ENDCHAR
STARTCHAR 0205
ENCODING 517
SWIDTH 540 0
DWIDTH 27 0
BBX 24 37 2 -1
BITMAP
3E3E00
3F1F00
1F1F00
0F8F00
078780
03C780
01C3C0
00E1C0
000000
00FF00
03FFC0
07FFF0
0FFFF8
1FC3F8
3F00FC
3E007C
7C003E
78003E
F8001E
F8001E
F8001E
FFFFFF
FFFFFF
FFFFFF
F80000
F80000
F80000
F80000
7C003E
7C003E
7E007C
3F00FC
1FC1F8
1FFFF8
0FFFE0
03FFC0
00FF00
ENDCHAR
STARTCHAR 0206
ENCODING 518
SWIDTH 640 0
DWIDTH 32 0
BBX 26 45 4 0
BITMAP
003F0000
00FFC000
01FFE000
03FFF000
0380F000
07007000
00000000
00000000
00000000
FFFFFF80
FFFFFF80
FFFFFF80
FFFFFF80
F8000000
F8000000
F8000000
F8000000
F8000000
F8000000
F8000000
F8000000
F8000000
F8000000
F8000000
F8000000
FFFFFF00
FFFFFF00
FFFFFF00
FFFFFF00
F8000000
F8000000
F8000000
F8000000
F8000000
F8000000
F8000000
F8000000
F8000000
F8000000
F8000000
F8000000
FFFFFFC0
FFFFFFC0
FFFFFFC0
FFFFFFC0
ENDCHAR
STARTCHAR 0207
ENCODING 519
SWIDTH 540 0
DWIDTH 27 0
BBX 24 37 2 -1
BITMAP
001000
01FF00
03FFC0
07FFC0
0781E0
0F00E0
000000
000000
000000
00FF00
03FFC0
07FFF0
0FFFF8
1FC3F8
3F00FC
3E007C
7C003E
78003E
F8001E
F8001E
F8001E
FFFFFF
FFFFFF
FFFFFF
F80000
F80000
F80000
F80000
7C003E
7C003E
7E007C
3F00FC
1FC1F8
1FFFF8
0FFFE0
03FFC0
00FF00
ENDCHAR
STARTCHAR 0208
ENCODING 520
SWIDTH 300 0
DWIDTH 15 0
BBX 16 45 -2 0
BITMAP
FE7E
3E3E
1F3E
0F1F
078F
0387
0000
0000
0000
01F0
01F0
01F0
01F0
01F0
01F0
01F0
01F0
01F0
01F0
01F0
01F0
01F0
01F0
01F0
01F0
01F0
01F0
01F0
01F0
01F0
01F0
01F0
01F0
01F0
01F0
01F0
01F0
01F0
01F0
01F0
01F0
01F0
01F0
01F0
01F0
ENDCHAR
STARTCHAR 0209
ENCODING 521
SWIDTH 260 0
DWIDTH 13 0
BBX 16 36 -3 0
BITMAP
F8FC
7C7C
3C3C
3E3E
1E1E
0F0E
070F
0387
0000
0000
00F0
00F0
00F0
00F0
00F0
00F0
00F0
00F0
00F0
00F0
00F0
00F0
00F0
00F0
00F0
00F0
00F0
00F0
00F0
00F0
00F0
00F0
00F0
00F0
00F0
00F0
ENDCHAR
STARTCHAR 020A
ENCODING 522
SWIDTH 300 0
DWIDTH 15 0
BBX 15 45 0 0
BITMAP
0FC0
3FF0
7FF8
FFFC
F01E
E00E
0000
0000
0000
07C0
07C0
07C0
07C0
07C0
07C0
07C0
07C0
07C0
07C0
07C0
07C0
07C0
07C0
07C0
07C0
07C0
07C0
07C0
07C0
07C0
07C0
07C0
07C0
07C0
07C0
07C0
07C0
07C0
07C0
07C0
07C0
07C0
07C0
07C0
07C0
ENDCHAR
STARTCHAR 020B
ENCODING 523
SWIDTH 260 0
DWIDTH 13 0
BBX 15 36 -1 0
BITMAP
0100
1FF0
7FF8
7FFC
F03E
E00E
0000
0000
0000
0000
03C0
03C0
03C0
03C0
03C0
03C0
03C0
03C0
03C0
03C0
03C0
03C0
03C0
03C0
03C0
03C0
03C0
03C0
03C0
03C0
03C0
03C0
03C0
03C0
03C0
03C0
ENDCHAR
STARTCHAR 020C
ENCODING 524
SWIDTH 780 0
DWIDTH 39 0
BBX 36 46 2 -1
BITMAP
01FCFC0000
007C7C0000
003E7C0000
001E3E0000
000F1E0000
00070E0000
0000000000
0000000000
0000000000
001FFF0000
007FFFE000
01FFFFF000
03FFFFF800
07F801FE00
0FE0007E00
1F80003F00
1F00001F80
3F00000F80
3E000007C0
7C000007C0
7C000003E0
78000003E0
F8000003E0
F8000001E0
F8000001E0
F8000001F0
F8000001F0
F8000001F0
F8000001F0
F8000001F0
F8000001E0
F8000001E0
78000003E0
7C000003E0
7C000003E0
7E000007C0
3E00000FC0
3F00000F80
1F80001F80
0FC0003F00
07F000FE00
03FC07FC00
01FFFFF800
00FFFFE000
003FFFC000
0007FC0000
ENDCHAR
STARTCHAR 020D
ENCODING 525
SWIDTH 540 0
DWIDTH 27 0
BBX 24 37 2 -1
BITMAP
7C7C00
7E3E00
3E3E00
1F1E00
0F0F00
078F00
038700
01C380
000000
00FF00
03FFC0
0FFFE0
1FFFF0
1F83F8
3F00FC
7E007C
7C003E
7C003E
F8003E
F8001E
F8001E
F8001F
F8001F
F8001F
F8001F
F8001F
F8001E
F8003E
7C003E
7C003E
7E007C
3F00FC
1F83F8
1FFFF0
0FFFE0
03FFC0
00FF00
ENDCHAR
STARTCHAR 020E
ENCODING 526
SWIDTH 780 0
DWIDTH 39 0
BBX 36 46 2 -1
BITMAP
0003F00000
000FFC0000
001FFE0000
003FFF0000
003C078000
0038038000
0000000000
0000000000
0000000000
001FFF0000
007FFFE000
01FFFFF000
03FFFFF800
07F801FE00
0FE0007E00
1F80003F00
1F00001F80
3F00000F80
3E000007C0
7C000007C0
7C000003E0
78000003E0
F8000003E0
F8000001E0
F8000001E0
F8000001F0
F8000001F0
F8000001F0
F8000001F0
F8000001F0
F8000001E0
F8000001E0
78000003E0
7C000003E0
7C000003E0
7E000007C0
3E00000FC0
3F00000F80
1F80001F80
0FC0003F00
07F000FE00
03FC07FC00
01FFFFF800
00FFFFE000
003FFFC000
0007FC0000
ENDCHAR
STARTCHAR 020F
ENCODING 527
SWIDTH 540 0
DWIDTH 27 0
BBX 24 37 2 -1
BITMAP
001000
01FF00
03FF80
07FFC0
0F81E0
0E00E0
000000
000000
000000
00FF00
03FFC0
0FFFE0
1FFFF0
1F83F8
3F00FC
7E007C
7C003E
7C003E
F8003E
F8001E
F8001E
F8001F
F8001F
F8001F
F8001F
F8001F
F8001E
F8003E
7C003E
7C003E
7E007C
3F00FC
1F83F8
1FFFF0
0FFFE0
03FFC0
00FF00
ENDCHAR
STARTCHAR 0210
ENCODING 528
SWIDTH 700 0
DWIDTH 35 0
BBX 29 45 4 0
BITMAP
3F9F8000
0F8F8000
07CF8000
03C7C000
01E3C000
00E1C000
00000000
00000000
00000000
FFFFF800
FFFFFE00
FFFFFF80
FFFFFFC0
F8001FC0
F80007E0
F80003E0
F80001E0
F80001F0
F80001F0
F80001F0
F80001E0
F80001E0
F80003E0
F80007C0
F8001FC0
FFFFFF80
FFFFFE00
FFFFFF00
FFFFFF80
F8000FC0
F80007E0
F80003E0
F80001E0
F80001F0
F80001F0
F80001F0
F80001F0
F80001F0
F80001F0
F80001F0
F80001F0
F80001F0
F80001F0
F80001F0
F80000F8
ENDCHAR
STARTCHAR 0211
ENCODING 529
SWIDTH 340 0
DWIDTH 17 0
BBX 17 36 -1 0
BITMAP
FC7C00
7C7E00
3E3E00
1E1E00
0F1F00
070F00
078700
038380
000000
000780
0F1F80
0F3F80
0F7F80
0FFC00
0FF000
0FC000
0FC000
0F8000
0F8000
0F8000
0F8000
0F8000
0F8000
0F8000
0F8000
0F8000
0F8000
0F8000
0F8000
0F8000
0F8000
0F8000
0F8000
0F8000
0F8000
0F8000
ENDCHAR
STARTCHAR 0212
ENCODING 530
SWIDTH 700 0
DWIDTH 35 0
BBX 29 45 4 0
BITMAP
003F0000
00FFC000
01FFF000
01FFF000
03C07800
03803800
00000000
00000000
00000000
FFFFF800
FFFFFE00
FFFFFF80
FFFFFFC0
F8001FC0
F80007E0
F80003E0
F80001E0
F80001F0
F80001F0
F80001F0
F80001E0
F80001E0
F80003E0
F80007C0
F8001FC0
FFFFFF80
FFFFFE00
FFFFFF00
FFFFFF80
F8000FC0
F80007E0
F80003E0
F80001E0
F80001F0
F80001F0
F80001F0
F80001F0
F80001F0
F80001F0
F80001F0
F80001F0
F80001F0
F80001F0
F80001F0
F80000F8
ENDCHAR
STARTCHAR 0213
ENCODING 531
SWIDTH 340 0
DWIDTH 17 0
BBX 15 36 2 0
BITMAP
0100
1FF0
3FF8
7FFC
F81E
E00E
0000
0000
0000
003C
78FC
79FC
7BFC
7FE0
7F80
7E00
7E00
7C00
7C00
7C00
7C00
7C00
7C00
7C00
7C00
7C00
7C00
7C00
7C00
7C00
7C00
7C00
7C00
7C00
7C00
7C00
ENDCHAR
STARTCHAR 0214
ENCODING 532
SWIDTH 720 0
DWIDTH 36 0
BBX 28 46 4 -1
BITMAP
1FCFC000
07C7C000
03E7C000
01E3E000
00F1E000
0070E000
00000000
00000000
00000000
F80001F0
F80001F0
F80001F0
F80001F0
F80001F0
F80001F0
F80001F0
F80001F0
F80001F0
F80001F0
F80001F0
F80001F0
F80001F0
F80001F0
F80001F0
F80001F0
F80001F0
F80001F0
F80001F0
F80001F0
F80001F0
F80001F0
F80001F0
F80001F0
F80001F0
F80001F0
F80001F0
F80001E0
F80003E0
7C0003E0
7E0007E0
3F000FC0
3FE07F80
1FFFFF00
0FFFFE00
03FFF800
007FC000
ENDCHAR
STARTCHAR 0215
ENCODING 533
SWIDTH 540 0
DWIDTH 27 0
BBX 21 37 3 -1
BITMAP
3E3E00
3F1F00
1F1F00
0F8F00
078780
03C780
01C3C0
00E1C0
000000
000000
F00078
F00078
F00078
F00078
F00078
F00078
F00078
F00078
F00078
F00078
F00078
F00078
F00078
F00078
F00078
F00078
F00078
F00078
F000F8
F000F8
F801F8
F803F8
FC07F8
7FFF78
3FFE78
1FFC78
07F000
ENDCHAR
STARTCHAR 0216
ENCODING 534
SWIDTH 720 0
DWIDTH 36 0
BBX 28 46 4 -1
BITMAP
001F8000
007FE000
00FFF000
01FFF800
01E03800
01C03C00
00000000
00000000
00000000
F80001F0
F80001F0
F80001F0
F80001F0
F80001F0
F80001F0
F80001F0
F80001F0
F80001F0
F80001F0
F80001F0
F80001F0
F80001F0
F80001F0
F80001F0
F80001F0
F80001F0
F80001F0
F80001F0
F80001F0
F80001F0
F80001F0
F80001F0
F80001F0
F80001F0
F80001F0
F80001F0
F80001E0
F80003E0
7C0003E0
7E0007E0
3F000FC0
3FE07F80
1FFFFF00
0FFFFE00
03FFF800
007FC000
ENDCHAR
STARTCHAR 0217
ENCODING 535
SWIDTH 540 0
DWIDTH 27 0
BBX 21 37 3 -1
BITMAP
002000
03FE00
07FF00
0FFF80
1E03C0
1C01C0
000000
000000
000000
000000
F00078
F00078
F00078
F00078
F00078
F00078
F00078
F00078
F00078
F00078
F00078
F00078
F00078
F00078
F00078
F00078
F00078
F00078
F000F8
F000F8
F801F8
F803F8
FC07F8
7FFF78
3FFE78
1FFC78
07F000
ENDCHAR
STARTCHAR 0218
ENCODING 536
SWIDTH 660 0
DWIDTH 33 0
BBX 28 51 3 -14
BITMAP
00FFF000
03FFFC00
0FFFFE00
1FFFFF00
3F803F80
3E000FC0
3E0007C0
7C0007C0
7C0003C0
7C0003E0
7C0003E0
7C000000
7E000000
3F000000
3FE00000
1FFE0000
0FFFE000
03FFFC00
007FFF00
0007FF80
0000FFC0
00001FE0
000007E0
000003E0
000001F0
F80001F0
F80001F0
F80001F0
F80001E0
7C0003E0
7E0007E0
3F000FC0
3FC03F80
1FFFFF80
0FFFFE00
03FFFC00
007FE000
00000000
00000000
00000000
000F8000
000F8000
000F8000
000F8000
000F8000
00038000
00038000
00030000
00070000
000E0000
000C0000
ENDCHAR
STARTCHAR 0219
ENCODING 537
SWIDTH 500 0
DWIDTH 25 0
BBX 23 42 1 -15
BITMAP
00FF00
07FFC0
0FFFE0
1FFFF0
3F83F8
7E00F8
7C007C
7C007C
7C0000
7C0000
7E0000
3FC000
1FFC00
0FFFC0
03FFF0
007FF8
0007FC
0000FC
00003E
F8003E
F8003E
FC003C
7C007C
7F01FC
3FFFF8
1FFFF0
0FFFC0
01FF00
000000
000000
000000
007C00
007C00
007C00
007C00
007C00
001C00
001C00
001800
003800
007000
006000
ENDCHAR
STARTCHAR 021A
ENCODING 538
SWIDTH 640 0
DWIDTH 32 0
BBX 28 51 2 -15
BITMAP
FFFFFFF0
FFFFFFF0
FFFFFFF0
FFFFFFF0
000F8000
000F8000
000F8000
000F8000
000F8000
000F8000
000F8000
000F8000
000F8000
000F8000
000F8000
000F8000
000F8000
000F8000
000F8000
000F8000
000F8000
000F8000
000F8000
000F8000
000F8000
000F8000
000F8000
000F8000
000F8000
000F8000
000F8000
000F8000
000F8000
000F8000
000F8000
000F8000
00000000
00000000
00000000
00000000
001F0000
001F0000
001F0000
001F0000
001F0000
00070000
00070000
00060000
000E0000
001C0000
00180000
ENDCHAR
STARTCHAR 021B
ENCODING 539
SWIDTH 280 0
DWIDTH 14 0
BBX 11 48 2 -15
BITMAP
1E00
1E00
1E00
1E00
1E00
1E00
1E00
FFE0
FFE0
FFE0
1E00
1E00
1E00
1E00
1E00
1E00
1E00
1E00
1E00
1E00
1E00
1E00
1E00
1E00
1E00
1E00
1E00
1E00
1E00
1E00
1FE0
1FE0
0FE0
07E0
0000
0000
0000
1F00
1F00
1F00
1F00
1F00
0700
0700
0600
0E00
1C00
1800
ENDCHAR
STARTCHAR 021C
ENCODING 540
SWIDTH 540 0
DWIDTH 27 0
BBX 23 40 2 -4
BITMAP
03FF00
0FFFC0
1FFFE0
3FFFF0
7E01F8
7C00F8
7C00F8
F80078
F8007C
F8007C
F8007C
000078
0000F8
0001F8
0003F0
0007E0
001FC0
007FE0
03FFF0
03FFF8
03F0FC
03C07C
00003C
00003E
00003E
00003E
00003E
00007C
0000FC
0001FC
0007F8
001FF0
007FE0
01FFC0
07FF00
7FFC00
FFF000
7FC000
7E0000
700000
ENDCHAR
STARTCHAR 021D
ENCODING 541
SWIDTH 420 0
DWIDTH 21 0
BBX 19 31 1 -4
BITMAP
03F800
0FFC00
3FFF00
3FFF00
7E1F80
7C0F80
F807C0
F807C0
F807C0
0007C0
000F80
001F80
003F00
00FE00
07FF80
07FF80
07C7C0
0303C0
0003E0
0003E0
0003E0
0007C0
0007C0
001FC0
003F80
00FF00
07FC00
3FF000
7FC000
7F0000
380000
ENDCHAR
STARTCHAR 021E
ENCODING 542
SWIDTH 720 0
DWIDTH 36 0
BBX 28 45 4 0
BITMAP
01C07800
00F0F000
0079E000
007FC000
003FC000
001F8000
00000000
00000000
00000000
F80001F0
F80001F0
F80001F0
F80001F0
F80001F0
F80001F0
F80001F0
F80001F0
F80001F0
F80001F0
F80001F0
F80001F0
F80001F0
F80001F0
F80001F0
F80001F0
FFFFFFF0
FFFFFFF0
FFFFFFF0
FFFFFFF0
F80001F0
F80001F0
F80001F0
F80001F0
F80001F0
F80001F0
F80001F0
F80001F0
F80001F0
F80001F0
F80001F0
F80001F0
F80001F0
F80001F0
F80001F0
F80001F0
ENDCHAR
STARTCHAR 021F
ENCODING 543
SWIDTH 540 0
DWIDTH 27 0
BBX 21 44 3 0
BITMAP
0781E0
0383C0
01C780
01E780
00FF00
007E00
007E00
000000
F00000
F00000
F00000
F00000
F00000
F00000
F00000
F00000
F00000
F07F00
F1FFC0
F3FFE0
F7FFF0
FF01F8
FE00F8
FC0078
F80078
F80078
F80078
F00078
F00078
F00078
F00078
F00078
F00078
F00078
F00078
F00078
F00078
F00078
F00078
F00078
F00078
F00078
F00078
F00078
ENDCHAR
STARTCHAR 0220
ENCODING 544
SWIDTH 720 0
DWIDTH 36 0
BBX 28 47 4 -10
BITMAP
F8FFF000
FBFFFC00
FFFFFF00
FFFFFF80
FF801FC0
FE000FC0
FC0007E0
FC0003E0
F80001E0
F80001F0
F80001F0
F80001F0
F80001F0
F80001F0
F80001F0
F80001F0
F80001F0
F80001F0
F80001F0
F80001F0
F80001F0
F80001F0
F80001F0
F80001F0
F80001F0
F80001F0
F80001F0
F80001F0
F80001F0
F80001F0
F80001F0
F80001F0
F80001F0
F80001F0
F80001F0
F80001F0
000001F0
000001F0
000001F0
000001F0
000001F0
000001F0
000001F0
000001F0
000001F0
000001F0
000001F0
ENDCHAR
STARTCHAR 0224
ENCODING 548
SWIDTH 620 0
DWIDTH 31 0
BBX 28 47 2 -11
BITMAP
7FFFFFF0
7FFFFFF0
7FFFFFF0
7FFFFFF0
000007E0
000007E0
00000FC0
00001F80
00003F00
00003E00
00007E00
0000FC00
0001F800
0003F000
0003E000
0007E000
000FC000
001F8000
003F0000
003F0000
007E0000
00FC0000
01F80000
01F00000
03F00000
07E00000
0FC00000
1F800000
1F000000
3F000000
7E000000
FC000000
FFFFFFF0
FFFFFFF0
FFFFFFF0
FFFFFFF0
000001F0
000001F0
000001F0
000001F0
000001F0
000001F0
000003F0
00001FE0
00001FE0
00001FC0
00001F00
ENDCHAR
STARTCHAR 0225
ENCODING 549
SWIDTH 480 0
DWIDTH 24 0
BBX 22 37 2 -11
BITMAP
7FFFF8
7FFFF8
7FFFF8
7FFFF8
0001F0
0003E0
0007E0
0007C0
000F80
001F00
003E00
007C00
00FC00
01F800
01F000
03E000
07C000
0F8000
1F8000
3F0000
7E0000
7C0000
FFFFFC
FFFFFC
FFFFFC
FFFFFC
00007C
00007C
00007C
00007C
00007C
00007C
0000FC
0007F8
0007F8
0007F0
0007C0
ENDCHAR
STARTCHAR 0226
ENCODING 550
SWIDTH 660 0
DWIDTH 33 0
BBX 31 45 1 0
BITMAP
0007E000
0007E000
0007E000
0007E000
0007E000
00000000
00000000
00000000
00000000
0007E000
000FE000
000FF000
001FF000
001FF000
001EF800
003EF800
003E7800
003C7C00
007C7C00
007C3C00
00783E00
00F83E00
00F81F00
00F01F00
01F01F00
01E00F80
03E00F80
03E00F80
03C007C0
07C007C0
07FFFFC0
07FFFFE0
0FFFFFE0
0FFFFFE0
0F0001F0
1F0001F0
1F0001F8
3E0000F8
3E0000F8
3E0000FC
7C00007C
7C00007C
7C00007E
F800003E
F800003E
ENDCHAR
STARTCHAR 0227
ENCODING 551
SWIDTH 540 0
DWIDTH 27 0
BBX 24 38 2 -1
BITMAP
007E00
007E00
007E00
007E00
007E00
000000
000000
000000
000000
000000
01FF00
07FFC0
1FFFE0
3FFFF0
3F83F8
7E00F8
7C0078
7C0078
000078
000078
0000F8
0003F8
00FFF8
0FFFF8
3FFF78
7FE078
7E0078
FC0078
F80078
F80078
F80078
F800F8
F801F8
7C03F8
7FFFFF
3FFF7F
1FFC3F
07F01F
ENDCHAR
STARTCHAR 0228
ENCODING 552
SWIDTH 640 0
DWIDTH 32 0
BBX 26 46 4 -10
BITMAP
FFFFFF80
FFFFFF80
FFFFFF80
FFFFFF80
F8000000
F8000000
F8000000
F8000000
F8000000
F8000000
F8000000
F8000000
F8000000
F8000000
F8000000
F8000000
FFFFFF00
FFFFFF00
FFFFFF00
FFFFFF00
F8000000
F8000000
F8000000
F8000000
F8000000
F8000000
F8000000
F8000000
F8000000
F8000000
F8000000
F8000000
FFFFFFC0
FFFFFFC0
FFFFFFC0
FFFFFFC0
00180000
00180000
003F0000
003F8000
0007C000
0003C000
0003C000
03878000
03FF0000
007E0000
ENDCHAR
STARTCHAR 0229
ENCODING 553
SWIDTH 540 0
DWIDTH 27 0
BBX 24 39 2 -12
BITMAP
00FE00
03FFC0
07FFE0
1FFFF0
1F83F8
3F00FC
7E007C
7C003E
78003E
F8001E
F8001E
F8001F
FFFFFF
FFFFFF
FFFFFF
F80000
F80000
F80000
F80000
78003E
7C003E
7E007C
3F00FC
1F81F8
1FFFF0
07FFE0
03FFC0
007E00
003000
003000
007E00
007F00
000F80
000780
000780
020780
078F00
07FE00
00FC00
ENDCHAR
STARTCHAR 022A
ENCODING 554
SWIDTH 780 0
DWIDTH 39 0
BBX 36 49 2 -1
BITMAP
003FFF0000
003FFF0000
003FFF0000
0000000000
001F9F8000
001F9F8000
001F9F8000
001F9F8000
001F9F8000
001F9F8000
0000000000
0000000000
001FFF0000
007FFFE000
01FFFFF000
03FFFFF800
07F801FE00
0FE0007E00
1F80003F00
1F00001F80
3F00000F80
3E000007C0
7C000007C0
7C000003E0
78000003E0
F8000003E0
F8000001E0
F8000001E0
F8000001F0
F8000001F0
F8000001F0
F8000001F0
F8000001F0
F8000001E0
F8000001E0
78000003E0
7C000003E0
7C000003E0
7E000007C0
3E00000FC0
3F00000F80
1F80001F80
0FC0003F00
07F000FE00
03FC07FC00
01FFFFF800
00FFFFE000
003FFFC000
0007FC0000
ENDCHAR
STARTCHAR 022B
ENCODING 555
SWIDTH 540 0
DWIDTH 27 0
BBX 24 41 2 -1
BITMAP
07FFC0
07FFC0
07FFC0
07FFC0
000000
000000
07E7E0
07E7E0
07E7E0
07E7E0
07E7E0
000000
000000
00FF00
03FFC0
0FFFE0
1FFFF0
1F83F8
3F00FC
7E007C
7C003E
7C003E
F8003E
F8001E
F8001E
F8001F
F8001F
F8001F
F8001F
F8001F
F8001E
F8003E
7C003E
7C003E
7E007C
3F00FC
1F83F8
1FFFF0
0FFFE0
03FFC0
00FF00
ENDCHAR
STARTCHAR 022C
ENCODING 556
SWIDTH 780 0
DWIDTH 39 0
BBX 36 51 2 -1
BITMAP
001FFF0000
001FFF0000
001FFF0000
001FFF0000
0000000000
0004038000
001F838000
003FFF8000
003FFF0000
0038FF0000
00701C0000
0000000000
0000000000
0000000000
001FFF0000
007FFFE000
01FFFFF000
03FFFFF800
07F801FE00
0FE0007E00
1F80003F00
1F00001F80
3F00000F80
3E000007C0
7C000007C0
7C000003E0
78000003E0
F8000003E0
F8000001E0
F8000001E0
F8000001F0
F8000001F0
F8000001F0
F8000001F0
F8000001F0
F8000001E0
F8000001E0
78000003E0
7C000003E0
7C000003E0
7E000007C0
3E00000FC0
3F00000F80
1F80001F80
0FC0003F00
07F000FE00
03FC07FC00
01FFFFF800
00FFFFE000
003FFFC000
0007FC0000
ENDCHAR
STARTCHAR 022D
ENCODING 557
SWIDTH 540 0
DWIDTH 27 0
BBX 24 41 2 -1
BITMAP
07FFC0
07FFC0
07FFC0
07FFC0
000000
000000
03E0E0
07FDE0
0FFFC0
0E3FC0
0E0780
000000
000000
00FF00
03FFC0
0FFFE0
1FFFF0
1F83F8
3F00FC
7E007C
7C003E
7C003E
F8003E
F8001E
F8001E
F8001F
F8001F
F8001F
F8001F
F8001F
F8001E
F8003E
7C003E
7C003E
7E007C
3F00FC
1F83F8
1FFFF0
0FFFE0
03FFC0
00FF00
ENDCHAR
STARTCHAR 022E
ENCODING 558
SWIDTH 780 0
DWIDTH 39 0
BBX 36 46 2 -1
BITMAP
0001F00000
0001F00000
0001F00000
0001F00000
0001F00000
0000000000
0000000000
0000000000
0000000000
001FFF0000
007FFFE000
01FFFFF000
03FFFFF800
07F801FE00
0FE0007E00
1F80003F00
1F00001F80
3F00000F80
3E000007C0
7C000007C0
7C000003E0
78000003E0
F8000003E0
F8000001E0
F8000001E0
F8000001F0
F8000001F0
F8000001F0
F8000001F0
F8000001F0
F8000001E0
F8000001E0
78000003E0
7C000003E0
7C000003E0
7E000007C0
3E00000FC0
3F00000F80
1F80001F80
0FC0003F00
07F000FE00
03FC07FC00
01FFFFF800
00FFFFE000
003FFFC000
0007FC0000
ENDCHAR
STARTCHAR 022F
ENCODING 559
SWIDTH 540 0
DWIDTH 27 0
BBX 24 36 2 -1
BITMAP
007C00
007C00
007C00
007C00
007C00
000000
000000
000000
00FF00
03FFC0
0FFFE0
1FFFF0
1F83F8
3F00FC
7E007C
7C003E
7C003E
F8003E
F8001E
F8001E
F8001F
F8001F
F8001F
F8001F
F8001F
F8001E
F8003E
7C003E
7C003E
7E007C
3F00FC
1F83F8
1FFFF0
0FFFE0
03FFC0
00FF00
ENDCHAR
STARTCHAR 0230
ENCODING 560
SWIDTH 780 0
DWIDTH 39 0
BBX 36 50 2 -1
BITMAP
003FFF0000
003FFF0000
003FFF0000
0000000000
0000000000
0001F00000
0001F00000
0001F00000
0001F00000
0001F00000
0000000000
0000000000
0000000000
001FFF0000
007FFFE000
01FFFFF000
03FFFFF800
07F801FE00
0FE0007E00
1F80003F00
1F00001F80
3F00000F80
3E000007C0
7C000007C0
7C000003E0
78000003E0
F8000003E0
F8000001E0
F8000001E0
F8000001F0
F8000001F0
F8000001F0
F8000001F0
F8000001F0
F8000001E0
F8000001E0
78000003E0
7C000003E0
7C000003E0
7E000007C0
3E00000FC0
3F00000F80
1F80001F80
0FC0003F00
07F000FE00
03FC07FC00
01FFFFF800
00FFFFE000
003FFFC000
0007FC0000
ENDCHAR
STARTCHAR 0231
ENCODING 561
SWIDTH 540 0
DWIDTH 27 0
BBX 24 41 2 -1
BITMAP
0FFFC0
0FFFC0
0FFFC0
000000
000000
007C00
007C00
007C00
007C00
007C00
000000
000000
000000
00FF00
03FFC0
0FFFE0
1FFFF0
1F83F8
3F00FC
7E007C
7C003E
7C003E
F8003E
F8001E
F8001E
F8001F
F8001F
F8001F
F8001F
F8001F
F8001E
F8003E
7C003E
7C003E
7E007C
3F00FC
1F83F8
1FFFF0
0FFFE0
03FFC0
00FF00
ENDCHAR
STARTCHAR 0232
ENCODING 562
SWIDTH 680 0
DWIDTH 34 0
BBX 32 43 1 0
BITMAP
007FFC00
007FFC00
007FFC00
007FFC00
00000000
00000000
00000000
FC00003F
7E00003E
3E00007E
3F00007C
1F0000FC
1F8000F8
0FC001F0
07C003F0
07E003E0
03F007C0
01F007C0
01F80F80
00F81F80
007C1F00
007E3E00
003E3E00
001F7C00
001FF800
000FF800
000FF000
0007F000
0003E000
0003E000
0003E000
0003E000
0003E000
0003E000
0003E000
0003E000
0003E000
0003E000
0003E000
0003E000
0003E000
0003E000
0003E000
ENDCHAR
STARTCHAR 0233
ENCODING 563
SWIDTH 480 0
DWIDTH 24 0
BBX 22 43 1 -11
BITMAP
0FFFC0
0FFFC0
0FFFC0
000000
000000
000000
F0003C
F0007C
F80078
780078
7800F8
7C00F0
3C01F0
3C01F0
3E01E0
1E03E0
1E03C0
1F03C0
0F07C0
0F0780
0F8780
078F80
078F00
07CF00
03DF00
03DE00
03FE00
01FC00
01FC00
01FC00
00F800
00F800
00F800
00F000
01F000
01E000
01E000
03E000
07C000
7FC000
7F8000
7F0000
3C0000
ENDCHAR
STARTCHAR 0237
ENCODING 567
SWIDTH 220 0
DWIDTH 11 0
BBX 8 37 0 -11
BITMAP
0F
0F
0F
0F
0F
0F
0F
0F
0F
0F
0F
0F
0F
0F
0F
0F
0F
0F
0F
0F
0F
0F
0F
0F
0F
0F
0F
0F
0F
0F
0F
0F
1F
FF
FE
FE
F8
ENDCHAR
STARTCHAR 0238
ENCODING 568
SWIDTH 920 0
DWIDTH 46 0
BBX 43 37 2 -1
BITMAP
00001E000000
00001E000000
00001E000000
00001E000000
00001E000000
00001E000000
00001E000000
00001E000000
00001E000000
00FC1E0FE000
03FF1E3FF800
0FFFDE7FFC00
1FFFDEFFFE00
3FC3FFF07F00
3F00FFC01F80
7E007F800F80
7C007F800FC0
7C003F0007C0
F8003F0007C0
F8001F0003C0
F8001E0003E0
F8001E0003E0
F8001E0003E0
F8001E0003E0
F8001E0003E0
F8001E0003C0
F8001E0003C0
F8003F0007C0
7C003F0007C0
7C003F800FC0
7E007F800F80
3F00FFC01F80
3FC3FFF07F00
1FFFEEFFFE00
0FFFCE7FFC00
03FF8E3FF800
00FE000FE000
ENDCHAR
STARTCHAR 0239
ENCODING 569
SWIDTH 920 0
DWIDTH 46 0
BBX 43 37 2 -10
BITMAP
00FE000FE000
03FF8E3FF800
0FFFCE7FFC00
1FFFEEFFFE00
1FC3FEF07F00
3F00FFE01F80
7E007FC00F80
7C003F800FC0
7C003F8007C0
F8003F0007C0
F8001F0003C0
F8001F0003C0
F8001F0003E0
F8001F0003E0
F8001F0003E0
F8001F0003E0
F8001F0003E0
F8001F0003C0
F8003F0007C0
7C003F8007C0
7C003F800FC0
7E007FC00F80
3F00FFE01F80
3FC3FFF07F00
1FFFDFFFFE00
0FFFDF7FFC00
03FF1F3FF800
00FC1F0FE000
00001F000000
00001F000000
00001F000000
00001F000000
00001F000000
00001F000000
00001F000000
00001F000000
00001F000000
ENDCHAR
STARTCHAR 0250
ENCODING 592
SWIDTH 540 0
DWIDTH 27 0
BBX 24 28 1 -1
BITMAP
7807C0
FC3FF8
FE7FFC
FEFFFE
1FE03E
1F801F
1F001F
1F001F
1E001F
1E001F
1E001F
1E003F
1E03FE
1E7FFC
1FFFF8
1FFF80
1FE000
1F0000
1E0000
1E0000
1E003E
1E003E
1F003E
1F80FC
0FFFFC
07FFF8
03FFF0
00FFC0
ENDCHAR
STARTCHAR 0251
ENCODING 593
SWIDTH 580 0
DWIDTH 29 0
BBX 25 27 2 0
BITMAP
03FE3C00
0FFF3C00
1FFFBC00
1F03FC00
3E01FC00
7E00FC00
7C00FC00
7C007C00
F8007C00
F8007C00
F8003C00
F8003C00
F8003C00
F8003C00
F8003C00
F8003C00
F8007C00
78007C00
7C007C00
7E00FC00
3E00FC00
3F81FC00
1FFFFC00
0FFFBF80
07FF3F80
01FE1F80
00000F80
ENDCHAR
STARTCHAR 0252
ENCODING 594
SWIDTH 580 0
DWIDTH 29 0
BBX 26 27 1 0
BITMAP
FC038000
FE1FE000
FE7FF800
3EFFFC00
1FF9FE00
1FE07E00
1FC03F00
1F801F00
1F800F80
1F000F80
1F000F80
1F000780
1F0007C0
1F0007C0
1F0007C0
1F0007C0
1F000780
1F000780
1F000F80
1F800F80
1F801F00
1FC01F00
1FE03F00
1FF07E00
1F7FFC00
1F3FF800
1F1FE000
ENDCHAR
STARTCHAR 0253
ENCODING 595
SWIDTH 560 0
DWIDTH 28 0
BBX 24 37 3 -1
BITMAP
1F0000
3F0000
7F0000
FF0000
F80000
F00000
F00000
F00000
F00000
F07F00
F1FFC0
F3FFE0
F7FFF0
FF83F8
FE00FC
FC007C
FC007E
F8003E
F8003E
F8001E
F0001F
F0001F
F0001F
F0001F
F0001F
F0001E
F0001E
F8003E
F8003E
FC007E
FC007C
FE00FC
FF83F8
F7FFF0
F7FFE0
F1FFC0
007F00
ENDCHAR
STARTCHAR 0254
ENCODING 596
SWIDTH 500 0
DWIDTH 25 0
BBX 22 28 1 -1
BITMAP
00F800
07FF00
1FFFC0
3FFFE0
3F8FF0
7E03F0
FC01F8
F800F8
F8007C
F0007C
00007C
00007C
00003C
00003C
00003C
00003C
00007C
00007C
00007C
F8007C
F800F8
F800F8
7C01F0
7F07F0
3FFFE0
1FFFC0
0FFF80
03FE00
ENDCHAR
STARTCHAR 0255
ENCODING 597
SWIDTH 500 0
DWIDTH 25 0
BBX 23 29 1 -2
BITMAP
007F00
01FFC0
07FFE0
0FFFF0
0FC1F8
1F00F8
3F007C
3E003C
3C003E
7C0000
7C0000
7C0000
7C0000
7C0000
7C0000
7C07C0
7C1FF0
7C3FF8
3C7FF8
3EFC7C
3FF03C
1FE03C
1FC03C
1FC0F8
3FFFF8
FFFFF0
79FFE0
707F80
200000
ENDCHAR
STARTCHAR 0256
ENCODING 598
SWIDTH 600 0
DWIDTH 30 0
BBX 28 47 2 -11
BITMAP
00001E00
00001E00
00001E00
00001E00
00001E00
00001E00
00001E00
00001E00
00001E00
00FC1E00
03FF1E00
0FFFDE00
1FFFDE00
3FC3FE00
3F00FE00
7E007E00
7C007E00
7C003E00
F8003E00
F8001E00
F8001E00
F8001E00
F8001E00
F8001E00
F8001E00
F8001E00
F8001E00
F8003E00
7C003E00
7C003E00
7E007E00
3F00FE00
3FC3FE00
1FFFDE00
0FFF9E00
03FF1E00
00FC1E00
00001E00
00001E00
00001E00
00001E00
00001E00
00001F00
00001FF0
00000FF0
000007F0
000001F0
ENDCHAR
STARTCHAR 0257
ENCODING 599
SWIDTH 600 0
DWIDTH 30 0
BBX 28 37 2 -1
BITMAP
000003F0
000007F0
00000FF0
00001FF0
00001F00
00001E00
00001E00
00001E00
00001E00
00FC1E00
03FF1E00
0FFFDE00
1FFFDE00
3FC3FE00
3F00FE00
7E007E00
7C007E00
7C003E00
F8003E00
F8001E00
F8001E00
F8001E00
F8001E00
F8001E00
F8001E00
F8001E00
F8001E00
F8003E00
7C003E00
7C003E00
7E007E00
3F00FE00
3FC3FE00
1FFFDE00
0FFF9E00
03FF1E00
00FC0000
ENDCHAR
STARTCHAR 0258
ENCODING 600
SWIDTH 540 0
DWIDTH 27 0
BBX 24 28 2 -1
BITMAP
00FE00
07FFC0
0FFFE0
1FFFF0
3F83F8
3F00F8
7C007C
7C003C
78003E
78001E
F8001E
F8001E
FFFFFF
FFFFFF
FFFFFF
00001F
00001F
00001E
00001E
78003E
7C003E
7C007C
3E00FC
3F83F8
1FFFF0
0FFFE0
03FFC0
00FE00
ENDCHAR
STARTCHAR 0259
ENCODING 601
SWIDTH 540 0
DWIDTH 27 0
BBX 24 28 1 -1
BITMAP
007C00
03FF80
0FFFE0
1FFFF0
1FC7F8
3F00F8
7C007C
7C007C
78003E
00003E
00001E
00001E
00001F
FFFFFF
FFFFFF
FFFFFF
FFFFFF
F8001E
F8001E
78003E
7C003E
7C007C
3E00FC
3F81F8
1FFFF0
0FFFE0
07FFC0
01FF00
ENDCHAR
STARTCHAR 025A
ENCODING 602
SWIDTH 780 0
DWIDTH 39 0
BBX 37 29 2 -1
BITMAP
000000F000
00FE01F000
03FF83F800
0FFFE7F800
1FFFFF7800
3F83FE3800
3E00FC3C00
7C007C3C00
7C003C1C00
78003E1E08
00001E1E18
00001E0F18
00001E0FF8
00001F07F8
FFFFFF07F0
FFFFFF03E0
FFFFFF0000
F8001F0000
F8001E0000
F8001E0000
78003E0000
7C003E0000
7C007C0000
3E00FC0000
3FC3F80000
1FFFF00000
0FFFE00000
07FFC00000
00FE000000
ENDCHAR
STARTCHAR 025B
ENCODING 603
SWIDTH 480 0
DWIDTH 24 0
BBX 22 28 2 -1
BITMAP
01FE00
07FF80
1FFFC0
3FFFE0
3F03F0
7E01F0
7C00F8
7C00F8
7C0000
7C0000
7E0000
3F0000
1FF800
0FF800
1FF800
3FF800
7E0000
FC0000
F80000
F8007C
F8007C
F800F8
FC01F8
7F03F8
3FFFF0
1FFFE0
0FFFC0
01FE00
ENDCHAR
STARTCHAR 025C
ENCODING 604
SWIDTH 480 0
DWIDTH 24 0
BBX 21 28 2 -1
BITMAP
01FC00
0FFF00
1FFF80
3FFFC0
3F07E0
7C03E0
7C01F0
7C01F0
0001F0
0001F0
0003E0
0007E0
00FFC0
00FF00
00FFC0
00FFE0
0007F0
0001F0
0000F8
F800F8
F800F8
F800F0
7C01F0
7F07F0
3FFFE0
3FFFC0
0FFF80
03FC00
ENDCHAR
STARTCHAR 025D
ENCODING 605
SWIDTH 740 0
DWIDTH 37 0
BBX 34 29 2 -1
BITMAP
0000078000
03F80F8000
0FFF3FC000
1FFFFFC000
3FFFF9C000
3F07F9E000
7C03F1E000
7C01E1E000
7C01F0F000
0001F0F040
0001F070C0
0003E079C0
0007E07FC0
00FFC03FC0
00FF001F80
00FFC00F00
00FFE00000
0007F00000
0001F00000
0000F80000
F800F80000
F800F80000
F800F00000
7C01F00000
7F07F00000
3FFFE00000
3FFFC00000
0FFF800000
03FC000000
ENDCHAR
STARTCHAR 025E
ENCODING 606
SWIDTH 500 0
DWIDTH 25 0
BBX 22 28 2 -1
BITMAP
01FC00
0FFF80
1FFFC0
3FFFE0
3F07F0
7E01F0
7C00F8
7800F8
F800F8
F800F8
F801F0
F803F0
F83FE0
F83F80
F83FE0
F83FF0
F803F8
F800F8
F8007C
F8007C
7C007C
7C0078
7E00F8
3F83F8
1FFFF0
1FFFE0
07FFC0
01FE00
ENDCHAR
STARTCHAR 025F
ENCODING 607
SWIDTH 280 0
DWIDTH 14 0
BBX 11 37 1 -11
BITMAP
0F00
0F00
0F00
0F00
0F00
0F00
0F00
0F00
0F00
0F00
7FE0
7FE0
7FE0
7FE0
0F00
0F00
0F00
0F00
0F00
0F00
0F00
0F00
0F00
0F00
0F00
0F00
0F00
0F00
0F00
0F00
0F00
0F00
1F00
FF00
FE00
FE00
F800
ENDCHAR
STARTCHAR 0260
ENCODING 608
SWIDTH 580 0
DWIDTH 29 0
BBX 27 44 2 -11
BITMAP
000000C0
000007E0
00000FE0
00001FE0
00001F00
00001E00
00FC1E00
03FF1E00
0FFF9E00
1FFFDE00
1F83FE00
3F01FE00
7E00FE00
7C007E00
7C007E00
F8007E00
F8003E00
F8003E00
F8003E00
F8003E00
F8003E00
F8003E00
F8003E00
F8003E00
F8007E00
7C007E00
7C007E00
7E00FE00
3F01FE00
3F83FE00
1FFFBE00
0FFF3E00
03FE3E00
00FC3C00
00003C00
00007C00
7C007C00
7C007C00
7C00F800
3E01F800
3FFFF000
1FFFE000
07FFC000
01FF0000
ENDCHAR
ENDFONT
